<?xml version="1.0" encoding="UTF-8" standalone="no"?>
<!DOCTYPE svg PUBLIC "-//W3C//DTD SVG 1.1//EN" "http://www.w3.org/Graphics/SVG/1.1/DTD/svg11.dtd">
<svg xmlns="http://www.w3.org/2000/svg" version="1.1" viewBox="0.00 0.00 500.00 500.00">
<g stroke-width="2.00" fill="none" stroke-linecap="butt">
<path stroke="#758cb0" vector-effect="non-scaling-stroke" d="
  M 176.95 147.20
  Q 175.55 150.93 175.63 152.50
  C 175.75 154.93 176.49 160.83 172.95 160.84
  Q 172.02 160.85 170.54 160.03
  Q 169.29 159.35 167.93 158.94"
/>
<path stroke="#758cb0" vector-effect="non-scaling-stroke" d="
  M 166.52 157.82
  Q 164.44 154.12 161.31 153.41"
/>
<path stroke="#758cb0" vector-effect="non-scaling-stroke" d="
  M 161.75 145.00
  Q 162.44 145.17 163.75 144.88
  Q 166.20 144.32 167.22 142.92"
/>
<path stroke="#70747a" vector-effect="non-scaling-stroke" d="
  M 279.54 278.02
  Q 279.45 277.80 278.90 278.09"
/>
<path stroke="#636669" vector-effect="non-scaling-stroke" d="
  M 278.90 278.09
  Q 278.56 277.87 278.26 277.50
  Q 274.77 273.18 270.44 269.71
  C 266.74 266.76 264.33 262.97 260.52 260.18
  C 257.52 257.99 256.03 254.69 252.75 252.70
  Q 249.62 250.79 247.30 247.85
  Q 245.70 245.81 243.29 244.38
  Q 239.59 242.19 236.69 239.07
  C 234.26 236.44 230.74 235.18 227.82 233.03
  Q 223.25 229.66 218.50 226.88
  C 216.25 225.56 213.68 225.10 211.38 223.80
  C 206.66 221.13 202.05 218.37 196.66 216.93
  C 185.90 214.04 176.35 209.95 164.95 208.46
  Q 142.34 205.49 121.60 206.18
  Q 110.78 206.54 94.86 208.24
  C 91.24 208.63 87.39 209.73 83.53 210.25"
/>
<path stroke="#525457" vector-effect="non-scaling-stroke" d="
  M 278.90 278.09
  L 281.36 284.11"
/>
<path stroke="#636669" vector-effect="non-scaling-stroke" d="
  M 272.73 280.87
  Q 274.01 279.58 274.10 278.23
  A 1.29 1.25 -61.5 0 0 273.86 277.37
  Q 271.79 274.55 268.97 272.85
  Q 265.51 270.77 263.48 267.44
  Q 262.56 265.93 261.17 264.89
  C 258.93 263.20 256.77 261.79 254.86 259.66
  C 252.43 256.94 249.69 254.90 247.20 252.45
  Q 242.69 247.99 238.22 244.73
  C 233.22 241.09 228.78 236.28 223.15 233.78
  Q 221.01 232.82 219.20 231.08
  C 216.00 228.00 211.14 226.35 207.10 224.57
  C 201.79 222.24 196.88 218.99 191.05 217.68
  Q 181.22 215.47 171.19 212.89
  Q 155.98 208.97 141.00 208.89
  C 135.27 208.86 129.60 208.43 123.95 208.78
  C 115.70 209.28 107.30 209.13 99.25 210.83
  Q 91.69 212.42 84.37 214.18
  Q 83.74 214.33 83.92 215.27"
/>
<path stroke="#525457" vector-effect="non-scaling-stroke" d="
  M 83.05 213.92
  Q 83.57 213.57 82.98 212.01"
/>
<path stroke="#d39570" vector-effect="non-scaling-stroke" d="
  M 451.79 200.55
  Q 451.61 202.50 451.60 204.19
  C 451.59 206.22 452.76 207.34 454.74 207.11
  Q 455.28 207.04 455.66 206.66
  Q 458.28 204.02 461.33 202.05
  Q 461.77 201.77 461.92 201.27
  Q 462.24 200.18 461.56 199.21
  Q 461.25 198.78 460.72 198.80
  L 453.13 199.17"
/>
<path stroke="#7e5b4a" vector-effect="non-scaling-stroke" d="
  M 463.68 201.23
  L 463.76 207.27"
/>
<path stroke="#d39570" vector-effect="non-scaling-stroke" d="
  M 449.01 206.26
  Q 448.92 204.71 447.06 203.60
  Q 446.57 203.31 446.32 202.80
  C 444.56 199.08 437.54 198.45 433.26 198.55
  C 431.02 198.60 429.04 198.49 427.65 200.52
  A 2.42 2.41 -54.7 0 0 428.21 203.83
  Q 429.91 205.08 432.76 205.37
  Q 433.74 205.47 435.32 206.88"
/>
<path stroke="#dc8880" vector-effect="non-scaling-stroke" d="
  M 454.44 234.32
  C 456.95 235.88 459.27 236.01 462.07 236.41
  Q 467.35 237.17 472.23 237.18
  A 1.99 1.97 2.5 0 1 474.20 239.32
  L 473.41 248.63"
/>
<path stroke="#af828d" vector-effect="non-scaling-stroke" d="
  M 473.41 248.63
  Q 472.89 249.97 472.86 251.32
  A 1.93 1.93 0.0 0 1 470.91 253.22
  L 465.67 253.16"
/>
<path stroke="#af828d" vector-effect="non-scaling-stroke" d="
  M 462.88 252.84
  Q 461.03 251.83 458.83 251.53
  Q 456.46 251.22 454.74 250.76
  Q 451.83 249.97 448.84 250.22"
/>
<path stroke="#927da6" vector-effect="non-scaling-stroke" d="
  M 443.32 249.64
  Q 443.08 249.37 442.63 249.21
  Q 442.53 249.18 441.84 249.11
  Q 441.20 249.04 439.87 248.64
  Q 430.87 245.93 419.34 245.19"
/>
<path stroke="#dc8880" vector-effect="non-scaling-stroke" d="
  M 402.24 234.00
  Q 399.77 233.45 397.43 233.86
  A 2.71 2.70 -6.3 0 1 394.26 231.32
  Q 394.18 229.35 392.93 227.97
  A 1.16 1.14 26.7 0 1 392.63 227.08
  L 393.33 219.86
  A 1.78 1.77 89.4 0 1 394.88 218.27
  L 403.44 217.26"
/>
<path stroke="#af828d" vector-effect="non-scaling-stroke" d="
  M 403.44 217.26
  Q 410.50 217.13 417.20 215.45"
/>
<path stroke="#dc8880" vector-effect="non-scaling-stroke" d="
  M 420.71 215.05
  Q 427.01 215.87 430.56 213.11"
/>
<path stroke="#536f92" vector-effect="non-scaling-stroke" d="
  M 448.11 303.77
  L 445.33 303.46"
/>
<path stroke="#7e99bb" vector-effect="non-scaling-stroke" d="
  M 445.33 303.46
  L 441.84 301.48"
/>
<path stroke="#536f92" vector-effect="non-scaling-stroke" d="
  M 441.84 301.48
  L 437.41 300.55
  A 1.70 1.69 19.5 0 0 435.56 301.43
  Q 434.30 303.84 434.47 302.54"
/>
<path stroke="#7e99bb" vector-effect="non-scaling-stroke" d="
  M 371.44 275.74
  Q 370.96 275.00 372.07 273.43
  Q 372.87 272.31 373.05 271.37
  Q 373.64 268.25 373.32 265.24
  A 0.78 0.77 4.5 0 0 372.75 264.58
  Q 369.04 263.56 365.74 263.99"
/>
<path stroke="#8c695a" vector-effect="non-scaling-stroke" d="
  M 403.44 217.26
  L 398.44 217.19"
/>
<path stroke="#8c695a" vector-effect="non-scaling-stroke" d="
  M 473.37 252.00
  Q 473.10 250.29 473.41 248.63"
/>
<path stroke="#acb0b5" vector-effect="non-scaling-stroke" d="
  M 441.84 301.48
  Q 439.95 301.84 437.55 301.10
  A 1.36 1.35 -74.7 0 0 435.84 302.08
  L 434.44 307.90
  Q 434.17 309.04 435.25 309.47
  Q 436.81 310.10 438.44 310.11
  Q 445.40 310.14 452.82 310.13
  Q 454.00 310.13 453.83 308.96
  Q 453.76 308.45 453.50 307.98
  Q 452.93 306.90 451.71 306.82
  Q 450.65 306.75 449.68 306.27
  Q 449.37 306.12 448.06 304.94
  Q 447.08 304.06 445.33 303.46"
/>
<path stroke="#a28f56" vector-effect="non-scaling-stroke" d="
  M 79.01 282.57
  Q 75.08 284.43 71.91 287.84"
/>
<path stroke="#a28f56" vector-effect="non-scaling-stroke" d="
  M 65.03 290.72
  L 58.79 291.09"
/>
<path stroke="#acb0b5" vector-effect="non-scaling-stroke" d="
  M 409.46 322.31
  Q 414.46 323.52 415.28 319.49
  Q 415.38 319.00 415.07 318.60
  Q 412.65 315.50 408.70 317.47"
/>
<path stroke="#acb0b5" vector-effect="non-scaling-stroke" d="
  M 452.16 322.17
  Q 455.70 323.11 456.66 321.52
  C 458.87 317.89 455.04 314.66 452.01 317.77
  Q 451.08 318.72 451.49 321.26"
/>
<path stroke="#acb0b5" vector-effect="non-scaling-stroke" d="
  M 260.04 210.44
  C 257.49 198.56 256.36 185.35 255.24 172.78
  A 0.69 0.68 -4.3 0 0 254.51 172.16
  Q 251.71 172.35 249.37 172.69
  Q 238.62 174.25 227.61 176.11
  Q 225.75 176.43 224.28 177.21
  A 1.41 1.40 67.6 0 0 223.60 178.86
  C 224.14 180.66 224.79 182.30 225.09 184.18
  Q 227.59 199.82 228.80 215.20
  A 0.52 0.51 85.6 0 0 229.35 215.68
  C 237.68 215.11 246.16 213.36 254.24 211.75
  Q 256.66 211.27 259.19 211.42
  A 0.81 0.81 0.0 0 0 260.04 210.44"
/>
<path stroke="#9b9ea3" vector-effect="non-scaling-stroke" d="
  M 233.17 208.33
  A 1.11 1.11 0.0 0 0 234.40 209.27
  L 253.91 206.99
  A 1.11 1.11 0.0 0 0 254.88 205.70
  L 250.58 179.93
  A 1.11 1.11 0.0 0 0 249.38 179.01
  L 230.29 180.81
  A 1.11 1.11 0.0 0 0 229.30 182.08
  L 233.17 208.33"
/>
<path stroke="#70747a" vector-effect="non-scaling-stroke" d="
  M 118.99 246.89
  C 123.90 246.00 128.79 245.10 133.73 244.72
  Q 147.40 243.67 158.20 242.13
  Q 170.03 240.44 187.69 237.04
  C 191.22 236.36 194.97 236.07 198.58 235.98
  Q 200.44 235.93 200.28 234.07
  Q 199.96 230.40 199.00 227.58
  Q 198.59 226.36 197.30 226.51
  Q 183.95 228.13 171.34 230.59
  C 163.19 232.18 154.63 233.36 146.67 234.21
  Q 132.38 235.75 116.94 237.37
  A 1.24 1.23 -0.8 0 0 115.84 238.50
  Q 115.59 241.92 116.36 245.99
  A 1.28 1.27 -5.7 0 0 117.63 247.02
  Q 118.31 247.01 118.99 246.89"
/>
<path stroke="#70747a" vector-effect="non-scaling-stroke" d="
  M 201.55 246.63
  Q 201.43 244.65 199.44 244.73
  Q 197.03 244.82 193.77 245.27
  Q 178.90 247.34 165.61 249.78
  Q 154.23 251.87 145.73 252.69
  Q 133.81 253.84 119.33 255.61
  Q 117.84 255.80 118.03 257.28
  L 118.86 263.69
  Q 119.05 265.19 120.53 264.87
  Q 125.33 263.86 129.51 263.52
  Q 146.14 262.19 153.75 261.01
  Q 168.85 258.66 183.96 256.02
  Q 188.50 255.23 199.83 253.97
  A 2.27 2.27 0.0 0 0 201.85 251.58
  L 201.55 246.63"
/>
<path stroke="#70747a" vector-effect="non-scaling-stroke" d="
  M 163.0673 270.8476
  A 1.89 1.89 0.0 0 0 160.9813 269.1764
  L 121.6403 273.5197
  A 1.89 1.89 0.0 0 0 119.9692 275.6056
  L 120.5727 281.0724
  A 1.89 1.89 0.0 0 0 122.6587 282.7436
  L 161.9997 278.4003
  A 1.89 1.89 0.0 0 0 163.6708 276.3144
  L 163.0673 270.8476"
/>
</g>
<path fill="#8bb5f9" d="
  M 176.95 147.20
  Q 175.55 150.93 175.63 152.50
  C 175.75 154.93 176.49 160.83 172.95 160.84
  Q 172.02 160.85 170.54 160.03
  Q 169.29 159.35 167.93 158.94
  L 166.52 157.82
  Q 164.44 154.12 161.31 153.41
  Q 158.59 152.48 156.66 150.27
  A 1.47 1.47 0.0 0 1 156.52 148.51
  Q 158.24 145.79 161.75 145.00
  Q 162.44 145.17 163.75 144.88
  Q 166.20 144.32 167.22 142.92
  L 174.77 140.04
  A 1.63 1.63 0.0 0 1 176.99 141.58
  L 176.95 147.20
  Z"
/>
<path fill="#5f6267" d="
  M 167.22 142.92
  Q 166.20 144.32 163.75 144.88
  Q 162.44 145.17 161.75 145.00
  L 167.22 142.92
  Z"
/>
<path fill="#5f6267" d="
  M 176.95 147.20
  Q 177.09 151.61 176.38 157.74
  Q 176.09 160.27 174.22 161.49
  A 1.26 1.25 33.1 0 1 173.30 161.68
  Q 170.20 161.13 167.93 158.94
  Q 169.29 159.35 170.54 160.03
  Q 172.02 160.85 172.95 160.84
  C 176.49 160.83 175.75 154.93 175.63 152.50
  Q 175.55 150.93 176.95 147.20
  Z"
/>
<path fill="#5f6267" d="
  M 161.31 153.41
  Q 164.44 154.12 166.52 157.82
  L 161.31 153.41
  Z"
/>
<path fill="#81868c" d="
  M 279.54 278.02
  Q 279.45 277.80 278.90 278.09
  Q 278.56 277.87 278.26 277.50
  Q 274.77 273.18 270.44 269.71
  C 266.74 266.76 264.33 262.97 260.52 260.18
  C 257.52 257.99 256.03 254.69 252.75 252.70
  Q 249.62 250.79 247.30 247.85
  Q 245.70 245.81 243.29 244.38
  Q 239.59 242.19 236.69 239.07
  C 234.26 236.44 230.74 235.18 227.82 233.03
  Q 223.25 229.66 218.50 226.88
  C 216.25 225.56 213.68 225.10 211.38 223.80
  C 206.66 221.13 202.05 218.37 196.66 216.93
  C 185.90 214.04 176.35 209.95 164.95 208.46
  Q 142.34 205.49 121.60 206.18
  Q 110.78 206.54 94.86 208.24
  C 91.24 208.63 87.39 209.73 83.53 210.25
  C 83.57 207.64 83.63 205.07 83.20 202.48
  Q 82.12 196.04 81.40 190.65
  Q 80.92 187.04 84.40 186.62
  Q 90.50 185.88 96.03 184.84
  C 108.13 182.57 120.49 181.38 132.75 179.98
  Q 150.23 177.99 169.15 174.30
  C 174.73 173.21 180.07 172.71 185.76 172.30
  C 191.96 171.86 198.20 170.67 204.40 169.94
  Q 210.22 169.25 216.07 168.24
  Q 236.47 164.73 256.02 162.24
  Q 258.47 161.93 261.15 162.13
  Q 262.80 162.26 263.32 163.46
  C 265.54 168.61 265.43 174.67 265.90 180.31
  Q 266.26 184.56 266.91 188.76
  Q 270.59 212.59 273.22 233.70
  C 273.73 237.81 273.89 242.11 274.49 246.18
  Q 276.83 262.01 279.54 278.02
  Z
  M 260.04 210.44
  C 257.49 198.56 256.36 185.35 255.24 172.78
  A 0.69 0.68 -4.3 0 0 254.51 172.16
  Q 251.71 172.35 249.37 172.69
  Q 238.62 174.25 227.61 176.11
  Q 225.75 176.43 224.28 177.21
  A 1.41 1.40 67.6 0 0 223.60 178.86
  C 224.14 180.66 224.79 182.30 225.09 184.18
  Q 227.59 199.82 228.80 215.20
  A 0.52 0.51 85.6 0 0 229.35 215.68
  C 237.68 215.11 246.16 213.36 254.24 211.75
  Q 256.66 211.27 259.19 211.42
  A 0.81 0.81 0.0 0 0 260.04 210.44
  Z"
/>
<path fill="#d7d9de" d="
  M 255.24 172.78
  C 256.36 185.35 257.49 198.56 260.04 210.44
  A 0.81 0.81 0.0 0 1 259.19 211.42
  Q 256.66 211.27 254.24 211.75
  C 246.16 213.36 237.68 215.11 229.35 215.68
  A 0.52 0.51 85.6 0 1 228.80 215.20
  Q 227.59 199.82 225.09 184.18
  C 224.79 182.30 224.14 180.66 223.60 178.86
  A 1.41 1.40 67.6 0 1 224.28 177.21
  Q 225.75 176.43 227.61 176.11
  Q 238.62 174.25 249.37 172.69
  Q 251.71 172.35 254.51 172.16
  A 0.69 0.68 -4.3 0 1 255.24 172.78
  Z
  M 233.17 208.33
  A 1.11 1.11 0.0 0 0 234.40 209.27
  L 253.91 206.99
  A 1.11 1.11 0.0 0 0 254.88 205.70
  L 250.58 179.93
  A 1.11 1.11 0.0 0 0 249.38 179.01
  L 230.29 180.81
  A 1.11 1.11 0.0 0 0 229.30 182.08
  L 233.17 208.33
  Z"
/>
<path fill="#5f6267" d="
  M 233.17 208.33
  L 229.30 182.08
  A 1.11 1.11 0.0 0 1 230.29 180.81
  L 249.38 179.01
  A 1.11 1.11 0.0 0 1 250.58 179.93
  L 254.88 205.70
  A 1.11 1.11 0.0 0 1 253.91 206.99
  L 234.40 209.27
  A 1.11 1.11 0.0 0 1 233.17 208.33
  Z"
/>
<path fill="#b86f4d" d="
  M 451.79 200.55
  Q 451.61 202.50 451.60 204.19
  C 451.59 206.22 452.76 207.34 454.74 207.11
  Q 455.28 207.04 455.66 206.66
  Q 458.28 204.02 461.33 202.05
  Q 461.77 201.77 461.92 201.27
  Q 462.24 200.18 461.56 199.21
  Q 461.25 198.78 460.72 198.80
  L 453.13 199.17
  C 456.56 196.78 462.41 196.33 463.68 201.23
  L 463.76 207.27
  Q 463.57 207.75 462.74 208.43
  Q 459.05 211.47 455.11 210.10
  C 452.83 209.31 451.34 205.64 449.01 206.26
  Q 448.92 204.71 447.06 203.60
  Q 446.57 203.31 446.32 202.80
  C 444.56 199.08 437.54 198.45 433.26 198.55
  C 431.02 198.60 429.04 198.49 427.65 200.52
  A 2.42 2.41 -54.7 0 0 428.21 203.83
  Q 429.91 205.08 432.76 205.37
  Q 433.74 205.47 435.32 206.88
  C 432.30 207.16 425.69 205.54 426.57 201.41
  C 428.14 194.04 442.49 197.43 446.23 200.59
  Q 447.17 201.38 448.11 202.19
  Q 450.10 203.90 451.79 200.55
  Z"
/>
<path fill="#eeba93" d="
  M 449.01 206.26
  Q 448.47 206.62 447.75 206.67
  Q 441.50 207.09 435.32 206.88
  Q 433.74 205.47 432.76 205.37
  Q 429.91 205.08 428.21 203.83
  A 2.42 2.41 -54.7 0 1 427.65 200.52
  C 429.04 198.49 431.02 198.60 433.26 198.55
  C 437.54 198.45 444.56 199.08 446.32 202.80
  Q 446.57 203.31 447.06 203.60
  Q 448.92 204.71 449.01 206.26
  Z"
/>
<path fill="#eeba93" d="
  M 451.79 200.55
  Q 452.36 199.32 453.13 199.17
  L 460.72 198.80
  Q 461.25 198.78 461.56 199.21
  Q 462.24 200.18 461.92 201.27
  Q 461.77 201.77 461.33 202.05
  Q 458.28 204.02 455.66 206.66
  Q 455.28 207.04 454.74 207.11
  C 452.76 207.34 451.59 206.22 451.60 204.19
  Q 451.61 202.50 451.79 200.55
  Z"
/>
<path fill="#444646" d="
  M 463.68 201.23
  Q 465.37 204.52 463.76 207.27
  L 463.68 201.23
  Z"
/>
<path fill="#444646" d="
  M 278.90 278.09
  L 281.36 284.11
  Q 279.36 282.53 277.54 281.25
  Q 276.41 280.46 275.25 280.49
  Q 274.03 280.53 272.73 280.87
  Q 274.01 279.58 274.10 278.23
  A 1.29 1.25 -61.5 0 0 273.86 277.37
  Q 271.79 274.55 268.97 272.85
  Q 265.51 270.77 263.48 267.44
  Q 262.56 265.93 261.17 264.89
  C 258.93 263.20 256.77 261.79 254.86 259.66
  C 252.43 256.94 249.69 254.90 247.20 252.45
  Q 242.69 247.99 238.22 244.73
  C 233.22 241.09 228.78 236.28 223.15 233.78
  Q 221.01 232.82 219.20 231.08
  C 216.00 228.00 211.14 226.35 207.10 224.57
  C 201.79 222.24 196.88 218.99 191.05 217.68
  Q 181.22 215.47 171.19 212.89
  Q 155.98 208.97 141.00 208.89
  C 135.27 208.86 129.60 208.43 123.95 208.78
  C 115.70 209.28 107.30 209.13 99.25 210.83
  Q 91.69 212.42 84.37 214.18
  Q 83.74 214.33 83.92 215.27
  Q 83.73 214.11 83.05 213.92
  Q 83.57 213.57 82.98 212.01
  Q 84.04 212.45 83.53 210.25
  C 87.39 209.73 91.24 208.63 94.86 208.24
  Q 110.78 206.54 121.60 206.18
  Q 142.34 205.49 164.95 208.46
  C 176.35 209.95 185.90 214.04 196.66 216.93
  C 202.05 218.37 206.66 221.13 211.38 223.80
  C 213.68 225.10 216.25 225.56 218.50 226.88
  Q 223.25 229.66 227.82 233.03
  C 230.74 235.18 234.26 236.44 236.69 239.07
  Q 239.59 242.19 243.29 244.38
  Q 245.70 245.81 247.30 247.85
  Q 249.62 250.79 252.75 252.70
  C 256.03 254.69 257.52 257.99 260.52 260.18
  C 264.33 262.97 266.74 266.76 270.44 269.71
  Q 274.77 273.18 278.26 277.50
  Q 278.56 277.87 278.90 278.09
  Z"
/>
<path fill="#81868c" d="
  M 272.73 280.87
  Q 260.93 281.36 249.22 283.28
  Q 243.27 284.26 238.23 284.94
  C 233.28 285.62 228.49 286.58 223.56 287.09
  Q 217.51 287.72 211.55 288.71
  C 203.49 290.04 195.25 290.17 187.28 291.89
  C 183.31 292.75 179.16 292.91 175.09 293.57
  Q 162.88 295.53 150.15 297.38
  C 144.07 298.26 137.83 298.15 131.84 299.26
  C 125.17 300.50 118.66 300.98 111.94 302.30
  Q 105.45 303.58 98.22 304.18
  A 1.30 1.30 0.0 0 1 96.86 303.22
  Q 95.23 297.01 94.80 291.27
  Q 93.91 279.23 91.85 261.44
  C 90.93 253.44 89.45 246.31 87.70 237.63
  Q 86.85 233.46 86.42 228.75
  Q 85.85 222.44 83.92 215.27
  Q 83.74 214.33 84.37 214.18
  Q 91.69 212.42 99.25 210.83
  C 107.30 209.13 115.70 209.28 123.95 208.78
  C 129.60 208.43 135.27 208.86 141.00 208.89
  Q 155.98 208.97 171.19 212.89
  Q 181.22 215.47 191.05 217.68
  C 196.88 218.99 201.79 222.24 207.10 224.57
  C 211.14 226.35 216.00 228.00 219.20 231.08
  Q 221.01 232.82 223.15 233.78
  C 228.78 236.28 233.22 241.09 238.22 244.73
  Q 242.69 247.99 247.20 252.45
  C 249.69 254.90 252.43 256.94 254.86 259.66
  C 256.77 261.79 258.93 263.20 261.17 264.89
  Q 262.56 265.93 263.48 267.44
  Q 265.51 270.77 268.97 272.85
  Q 271.79 274.55 273.86 277.37
  A 1.29 1.25 -61.5 0 1 274.10 278.23
  Q 274.01 279.58 272.73 280.87
  Z
  M 118.99 246.89
  C 123.90 246.00 128.79 245.10 133.73 244.72
  Q 147.40 243.67 158.20 242.13
  Q 170.03 240.44 187.69 237.04
  C 191.22 236.36 194.97 236.07 198.58 235.98
  Q 200.44 235.93 200.28 234.07
  Q 199.96 230.40 199.00 227.58
  Q 198.59 226.36 197.30 226.51
  Q 183.95 228.13 171.34 230.59
  C 163.19 232.18 154.63 233.36 146.67 234.21
  Q 132.38 235.75 116.94 237.37
  A 1.24 1.23 -0.8 0 0 115.84 238.50
  Q 115.59 241.92 116.36 245.99
  A 1.28 1.27 -5.7 0 0 117.63 247.02
  Q 118.31 247.01 118.99 246.89
  Z
  M 201.55 246.63
  Q 201.43 244.65 199.44 244.73
  Q 197.03 244.82 193.77 245.27
  Q 178.90 247.34 165.61 249.78
  Q 154.23 251.87 145.73 252.69
  Q 133.81 253.84 119.33 255.61
  Q 117.84 255.80 118.03 257.28
  L 118.86 263.69
  Q 119.05 265.19 120.53 264.87
  Q 125.33 263.86 129.51 263.52
  Q 146.14 262.19 153.75 261.01
  Q 168.85 258.66 183.96 256.02
  Q 188.50 255.23 199.83 253.97
  A 2.27 2.27 0.0 0 0 201.85 251.58
  L 201.55 246.63
  Z
  M 163.0673 270.8476
  A 1.89 1.89 0.0 0 0 160.9813 269.1764
  L 121.6403 273.5197
  A 1.89 1.89 0.0 0 0 119.9692 275.6056
  L 120.5727 281.0724
  A 1.89 1.89 0.0 0 0 122.6587 282.7436
  L 161.9997 278.4003
  A 1.89 1.89 0.0 0 0 163.6708 276.3144
  L 163.0673 270.8476
  Z"
/>
<path fill="#ffa1b3" d="
  M 454.44 234.32
  C 456.95 235.88 459.27 236.01 462.07 236.41
  Q 467.35 237.17 472.23 237.18
  A 1.99 1.97 2.5 0 1 474.20 239.32
  L 473.41 248.63
  Q 472.89 249.97 472.86 251.32
  A 1.93 1.93 0.0 0 1 470.91 253.22
  L 465.67 253.16
  L 462.88 252.84
  Q 461.03 251.83 458.83 251.53
  Q 456.46 251.22 454.74 250.76
  Q 451.83 249.97 448.84 250.22
  L 443.32 249.64
  Q 443.08 249.37 442.63 249.21
  Q 442.53 249.18 441.84 249.11
  Q 441.20 249.04 439.87 248.64
  Q 430.87 245.93 419.34 245.19
  L 415.03 244.14
  A 2.09 2.08 33.0 0 1 414.24 240.46
  Q 418.44 237.22 420.93 232.64
  Q 421.16 232.21 420.70 232.04
  Q 418.67 231.33 416.99 231.76
  Q 408.92 233.81 402.24 234.00
  Q 399.77 233.45 397.43 233.86
  A 2.71 2.70 -6.3 0 1 394.26 231.32
  Q 394.18 229.35 392.93 227.97
  A 1.16 1.14 26.7 0 1 392.63 227.08
  L 393.33 219.86
  A 1.78 1.77 89.4 0 1 394.88 218.27
  L 403.44 217.26
  Q 410.50 217.13 417.20 215.45
  L 420.71 215.05
  Q 427.01 215.87 430.56 213.11
  Q 435.48 212.52 440.79 211.75
  Q 445.06 211.14 447.01 211.90
  C 449.24 212.77 452.25 215.40 453.43 217.89
  Q 454.02 219.12 453.74 220.62
  Q 452.90 225.05 451.74 229.40
  Q 451.26 231.18 451.47 233.08
  Q 451.53 233.65 452.08 233.78
  L 454.44 234.32
  Z"
/>
<path fill="#5f6267" d="
  M 82.98 212.01
  Q 83.57 213.57 83.05 213.92
  Q 65.15 217.69 50.77 223.75
  Q 47.54 225.11 44.66 226.21
  Q 41.54 227.40 38.62 228.71
  C 32.97 231.24 27.67 234.65 21.90 236.55
  A 1.12 1.12 0.0 0 1 20.58 234.93
  Q 21.14 233.95 22.25 233.33
  C 27.33 230.49 31.88 227.77 37.47 225.70
  Q 43.18 223.58 45.07 222.67
  Q 55.83 217.51 66.81 215.53
  C 71.68 214.65 75.98 212.89 80.74 211.70
  Q 82.12 211.36 82.98 212.01
  Z"
/>
<path fill="#b86f4d" d="
  M 430.56 213.11
  Q 427.01 215.87 420.71 215.05
  Q 425.54 213.34 430.56 213.11
  Z"
/>
<path fill="#5f6267" d="
  M 417.20 215.45
  Q 410.50 217.13 403.44 217.26
  L 398.44 217.19
  L 417.20 215.45
  Z"
/>
<path fill="#b86f4d" d="
  M 398.44 217.19
  L 403.44 217.26
  L 394.88 218.27
  A 1.78 1.77 89.4 0 0 393.33 219.86
  L 392.63 227.08
  A 1.16 1.14 26.7 0 0 392.93 227.97
  Q 394.18 229.35 394.26 231.32
  A 2.71 2.70 -6.3 0 0 397.43 233.86
  Q 399.77 233.45 402.24 234.00
  Q 399.48 234.53 396.75 234.96
  C 392.70 235.60 393.61 231.51 392.32 229.40
  Q 392.01 228.89 391.41 228.84
  C 388.15 228.52 385.09 228.29 383.80 224.77
  A 0.87 0.87 0.0 0 1 384.49 223.61
  Q 387.22 223.20 389.92 224.01
  Q 391.29 224.42 391.74 223.07
  C 392.45 220.96 391.44 218.70 394.12 217.63
  Q 395.67 217.01 398.44 217.19
  Z"
/>
<path fill="#5f6267" d="
  M 118.99 246.89
  Q 118.31 247.01 117.63 247.02
  A 1.28 1.27 -5.7 0 1 116.36 245.99
  Q 115.59 241.92 115.84 238.50
  A 1.24 1.23 -0.8 0 1 116.94 237.37
  Q 132.38 235.75 146.67 234.21
  C 154.63 233.36 163.19 232.18 171.34 230.59
  Q 183.95 228.13 197.30 226.51
  Q 198.59 226.36 199.00 227.58
  Q 199.96 230.40 200.28 234.07
  Q 200.44 235.93 198.58 235.98
  C 194.97 236.07 191.22 236.36 187.69 237.04
  Q 170.03 240.44 158.20 242.13
  Q 147.40 243.67 133.73 244.72
  C 128.79 245.10 123.90 246.00 118.99 246.89
  Z"
/>
<path fill="#b86f4d" d="
  M 454.44 234.32
  L 474.02 236.97
  A 1.75 1.74 -86.2 0 1 475.53 238.70
  L 475.53 243.67
  Q 475.53 244.17 476.00 244.32
  C 479.05 245.34 484.44 244.60 482.63 250.21
  A 1.96 1.96 0.0 0 1 479.85 251.34
  L 475.13 248.87
  Q 474.69 248.64 474.44 249.07
  Q 473.67 250.40 473.37 252.00
  Q 473.10 250.29 473.41 248.63
  L 474.20 239.32
  A 1.99 1.97 2.5 0 0 472.23 237.18
  Q 467.35 237.17 462.07 236.41
  C 459.27 236.01 456.95 235.88 454.44 234.32
  Z"
/>
<circle fill="#82ca96" cx="303.90" cy="250.03" r="10.35"/>
<path fill="#5f6267" d="
  M 201.55 246.63
  L 201.85 251.58
  A 2.27 2.27 0.0 0 1 199.83 253.97
  Q 188.50 255.23 183.96 256.02
  Q 168.85 258.66 153.75 261.01
  Q 146.14 262.19 129.51 263.52
  Q 125.33 263.86 120.53 264.87
  Q 119.05 265.19 118.86 263.69
  L 118.03 257.28
  Q 117.84 255.80 119.33 255.61
  Q 133.81 253.84 145.73 252.69
  Q 154.23 251.87 165.61 249.78
  Q 178.90 247.34 193.77 245.27
  Q 197.03 244.82 199.44 244.73
  Q 201.43 244.65 201.55 246.63
  Z"
/>
<path fill="#255898" d="
  M 419.34 245.19
  Q 430.87 245.93 439.87 248.64
  Q 441.20 249.04 441.84 249.11
  Q 442.53 249.18 442.63 249.21
  Q 443.08 249.37 443.32 249.64
  Q 443.05 250.86 443.69 251.53
  Q 449.26 257.27 454.91 263.10
  C 458.16 266.46 457.85 272.54 456.70 277.12
  Q 455.07 283.53 453.49 289.85
  Q 451.78 296.66 447.68 301.81
  Q 447.21 302.40 447.34 302.81
  Q 447.49 303.28 448.11 303.77
  L 445.33 303.46
  L 441.84 301.48
  L 437.41 300.55
  A 1.70 1.69 19.5 0 0 435.56 301.43
  Q 434.30 303.84 434.47 302.54
  Q 433.80 297.77 435.50 291.25
  Q 437.86 282.24 439.16 275.28
  C 439.98 270.92 435.25 265.97 432.16 263.04
  Q 429.40 260.42 426.80 263.09
  Q 420.91 269.16 415.71 276.48
  C 412.25 281.37 408.18 282.24 402.26 281.12
  Q 396.12 279.96 389.08 279.41
  Q 386.53 279.22 381.36 277.66
  Q 376.28 276.14 371.44 275.74
  Q 370.96 275.00 372.07 273.43
  Q 372.87 272.31 373.05 271.37
  Q 373.64 268.25 373.32 265.24
  A 0.78 0.77 4.5 0 0 372.75 264.58
  Q 369.04 263.56 365.74 263.99
  Q 366.42 263.02 367.51 263.04
  C 370.15 263.08 372.35 264.27 374.80 262.21
  C 377.41 260.01 388.02 261.67 391.30 262.36
  C 394.79 263.10 398.57 263.75 402.11 263.67
  C 404.45 263.62 406.42 261.61 407.72 259.81
  Q 411.37 254.79 415.79 249.89
  Q 416.22 249.41 417.93 247.87
  Q 419.72 246.26 419.34 245.19
  Z"
/>
<path fill="#5f6267" d="
  M 473.41 248.63
  Q 473.10 250.29 473.37 252.00
  Q 473.15 254.54 471.67 254.64
  Q 469.62 254.78 465.67 253.16
  L 470.91 253.22
  A 1.93 1.93 0.0 0 0 472.86 251.32
  Q 472.89 249.97 473.41 248.63
  Z"
/>
<path fill="#5f6267" d="
  M 448.84 250.22
  Q 451.83 249.97 454.74 250.76
  Q 456.46 251.22 458.83 251.53
  Q 461.03 251.83 462.88 252.84
  Q 455.68 252.74 448.84 250.22
  Z"
/>
<path fill="#d7d9de" d="
  M 371.44 275.74
  Q 369.24 280.81 365.35 282.71
  A 1.58 1.58 0.0 0 1 363.09 281.05
  L 365.74 263.99
  Q 369.04 263.56 372.75 264.58
  A 0.78 0.77 4.5 0 1 373.32 265.24
  Q 373.64 268.25 373.05 271.37
  Q 372.87 272.31 372.07 273.43
  Q 370.96 275.00 371.44 275.74
  Z"
/>
<path fill="#ffd765" d="
  M 79.01 282.57
  Q 75.08 284.43 71.91 287.84
  L 65.03 290.72
  L 58.79 291.09
  Q 55.09 290.05 54.30 287.45
  C 52.06 280.11 57.10 275.70 63.03 272.69
  Q 68.02 270.16 73.04 267.64
  C 77.63 265.33 82.90 268.97 83.54 273.74
  Q 84.40 280.15 79.01 282.57
  Z"
/>
<rect fill="#5f6267" x="-21.68" y="-4.64" transform="translate(141.82,275.96) rotate(-6.3)" width="43.36" height="9.28" rx="1.89"/>
<path fill="#5f6267" d="
  M 278.90 278.09
  Q 279.45 277.80 279.54 278.02
  C 288.00 286.46 297.69 294.29 308.17 300.15
  C 313.05 302.87 317.11 305.81 322.61 307.92
  Q 329.64 310.62 336.53 313.34
  Q 339.62 314.57 342.58 315.24
  C 345.48 315.90 348.17 317.06 351.11 317.27
  Q 356.86 317.70 360.75 318.63
  Q 367.56 320.27 374.12 320.45
  Q 382.30 320.67 390.43 320.96
  Q 391.96 321.01 392.00 322.55
  L 392.01 323.06
  A 1.45 1.45 0.0 0 1 390.62 324.54
  C 380.82 324.94 370.98 323.64 361.25 322.50
  C 358.18 322.14 355.35 320.45 352.12 320.06
  C 347.89 319.55 344.04 318.21 339.81 317.48
  Q 333.80 316.43 328.23 313.65
  Q 322.00 310.54 314.91 307.57
  C 309.84 305.44 305.73 302.07 300.93 299.43
  Q 296.74 297.12 292.10 293.30
  Q 288.01 289.93 283.03 286.24
  Q 282.28 285.68 281.36 284.11
  L 278.90 278.09
  Z"
/>
<path fill="#444646" d="
  M 79.01 282.57
  L 71.91 287.84
  Q 75.08 284.43 79.01 282.57
  Z"
/>
<path fill="#444646" d="
  M 65.03 290.72
  Q 61.97 292.17 58.79 291.09
  L 65.03 290.72
  Z"
/>
<path fill="#81868c" d="
  M 441.84 301.48
  Q 439.95 301.84 437.55 301.10
  A 1.36 1.35 -74.7 0 0 435.84 302.08
  L 434.44 307.90
  Q 434.17 309.04 435.25 309.47
  Q 436.81 310.10 438.44 310.11
  Q 445.40 310.14 452.82 310.13
  Q 454.00 310.13 453.83 308.96
  Q 453.76 308.45 453.50 307.98
  Q 452.93 306.90 451.71 306.82
  Q 450.65 306.75 449.68 306.27
  Q 449.37 306.12 448.06 304.94
  Q 447.08 304.06 445.33 303.46
  L 448.11 303.77
  Q 451.33 305.81 454.88 307.58
  Q 457.40 308.84 459.39 308.51
  Q 464.56 307.66 469.04 304.65
  A 1.19 1.19 0.0 0 1 470.78 305.13
  C 471.72 307.16 470.43 308.96 468.33 309.31
  C 464.96 309.88 462.58 312.35 459.16 312.18
  Q 440.14 311.23 424.35 311.71
  Q 414.36 312.02 406.80 311.92
  C 403.12 311.88 400.86 309.39 397.33 308.80
  Q 396.79 308.71 396.47 308.26
  Q 395.28 306.58 395.90 304.66
  A 0.51 0.51 0.0 0 1 396.71 304.42
  C 397.64 305.21 398.29 306.09 399.47 306.55
  C 402.22 307.61 404.92 308.75 407.97 308.82
  Q 417.87 309.04 427.42 308.77
  C 428.73 308.73 429.97 308.98 431.27 309.03
  A 1.22 1.20 10.3 0 0 432.44 308.23
  L 434.47 302.54
  Q 434.30 303.84 435.56 301.43
  A 1.70 1.69 19.5 0 1 437.41 300.55
  L 441.84 301.48
  Z"
/>
<path fill="#d7d9de" d="
  M 441.84 301.48
  L 445.33 303.46
  Q 447.08 304.06 448.06 304.94
  Q 449.37 306.12 449.68 306.27
  Q 450.65 306.75 451.71 306.82
  Q 452.93 306.90 453.50 307.98
  Q 453.76 308.45 453.83 308.96
  Q 454.00 310.13 452.82 310.13
  Q 445.40 310.14 438.44 310.11
  Q 436.81 310.10 435.25 309.47
  Q 434.17 309.04 434.44 307.90
  L 435.84 302.08
  A 1.36 1.35 -74.7 0 1 437.55 301.10
  Q 439.95 301.84 441.84 301.48
  Z"
/>
<path fill="#81868c" d="
  M 409.46 322.31
  Q 414.46 323.52 415.28 319.49
  Q 415.38 319.00 415.07 318.60
  Q 412.65 315.50 408.70 317.47
  A 4.15 3.95 -70.6 0 1 413.26 315.23
  A 4.16 3.95 -71.3 0 1 416.20 319.22
  A 4.16 3.95 -70.6 0 1 409.46 322.31
  Z"
/>
<path fill="#81868c" d="
  M 452.16 322.17
  Q 455.70 323.11 456.66 321.52
  C 458.87 317.89 455.04 314.66 452.01 317.77
  Q 451.08 318.72 451.49 321.26
  A 4.17 3.80 -88.6 0 1 453.87 315.09
  A 4.15 3.78 89.8 0 1 456.58 315.46
  A 4.16 3.81 -88.6 0 1 458.55 319.49
  A 4.16 3.80 -88.7 0 1 452.16 322.17
  Z"
/>
<path fill="#d7d9de" d="
  M 452.16 322.17
  A 4.34 3.73 -88.6 0 1 451.49 321.26
  Q 451.08 318.72 452.01 317.77
  C 455.04 314.66 458.87 317.89 456.66 321.52
  Q 455.70 323.11 452.16 322.17
  Z"
/>
<path fill="#d7d9de" d="
  M 409.46 322.31
  A 4.14 3.94 -70.9 0 1 408.70 317.47
  Q 412.65 315.50 415.07 318.60
  Q 415.38 319.00 415.28 319.49
  Q 414.46 323.52 409.46 322.31
  Z"
/>
</svg>
