<?xml version="1.0" encoding="iso-8859-1"?>
<!-- Uploaded to: SVG Repo, www.svgrepo.com, Generator: SVG Repo Mixer Tools -->
<svg height="800px" width="800px" version="1.1" id="Layer_1" xmlns="http://www.w3.org/2000/svg" xmlns:xlink="http://www.w3.org/1999/xlink" 
	 viewBox="0 0 344.802 344.802" xml:space="preserve">
<path style="fill:#80635B;" d="M99,171.813c-8.284,0-15-6.716-15-15v-30.799c0-8.284,6.716-15,15-15s15,6.716,15,15v30.799
	C114,165.098,107.284,171.813,99,171.813z"/>
<circle style="fill:#80635B;" cx="251.597" cy="238.824" r="93.205"/>
<path style="fill:#68514A;" d="M251.597,332.03c-51.476,0-93.205-41.729-93.205-93.205s41.729-93.205,93.205-93.205V332.03z"/>
<circle style="fill:#80635B;" cx="55.401" cy="274.569" r="55.401"/>
<path style="fill:#68514A;" d="M55.401,329.97C24.804,329.97,0,305.165,0,274.569s24.804-55.401,55.401-55.401V329.97z"/>
<circle style="fill:#A47D73;" cx="55.401" cy="274.569" r="43.599"/>
<path style="fill:#8A6A61;" d="M55.401,318.168c-24.079,0-43.599-19.52-43.599-43.599s19.52-43.599,43.599-43.599V318.168z"/>
<circle style="fill:#A47D73;" cx="251.597" cy="238.824" r="79.343"/>
<path style="fill:#8A6A61;" d="M251.597,318.168c-43.82,0-79.343-35.523-79.343-79.343s35.523-79.343,79.343-79.343V318.168z"/>
<path style="fill:#E27879;" d="M55.401,289.569c-8.284,0-15-6.716-15-15c0-98.908,80.467-179.375,179.375-179.375
	c8.284,0,15,6.716,15,15s-6.716,15-15,15c-82.365,0-149.375,67.009-149.375,149.375C70.401,282.853,63.685,289.569,55.401,289.569z"
	/>
<path style="fill:#C76B6B;" d="M150.802,108.993c-64.77,27.082-110.401,91.097-110.401,165.576c0,8.284,6.716,15,15,15
	s15-6.716,15-15c0-57.499,32.661-107.507,80.401-132.465V108.993z"/>
<path style="fill:#E2EBD5;" d="M108.013,137.822H53.438c-8.284,0-15-6.716-15-15v-9.102c0-15.991,13.01-29.001,29.001-29.001h26.572
	c15.991,0,29.001,13.01,29.001,29.001v9.102C123.013,131.106,116.297,137.822,108.013,137.822z"/>
<path style="fill:#D7E0CB;" d="M83.802,84.72H67.439c-15.991,0-29.001,13.01-29.001,29.001v9.102c0,8.284,6.716,15,15,15h30.364
	V84.72z"/>
<path style="fill:#E27879;" d="M251.581,253.802c-6.965,0-13.208-4.878-14.674-11.967L195.761,42.772h-23.507
	c-8.284,0-15-6.716-15-15s6.716-15,15-15h35.724c7.114,0,13.25,4.997,14.689,11.964l43.62,211.028
	c1.677,8.113-3.541,16.049-11.653,17.726C253.609,253.701,252.588,253.802,251.581,253.802z"/>
</svg>