<?xml version="1.0" encoding="UTF-8" standalone="no"?>
<!DOCTYPE svg PUBLIC "-//W3C//DTD SVG 1.1//EN" "http://www.w3.org/Graphics/SVG/1.1/DTD/svg11.dtd">
<svg xmlns="http://www.w3.org/2000/svg" version="1.1" viewBox="0.00 0.00 500.00 500.00">
<g stroke-width="2.00" fill="none" stroke-linecap="butt">
<path stroke="#ebeaef" vector-effect="non-scaling-stroke" d="
  M 500.00 180.40
  L 471.78 182.57"
/>
<path stroke="#e5e9ec" vector-effect="non-scaling-stroke" d="
  M 454.28 182.30
  C 447.20 181.22 440.38 181.40 433.82 182.83"
/>
<path stroke="#f9cfe5" vector-effect="non-scaling-stroke" d="
  M 433.82 182.83
  C 415.01 182.73 396.11 182.59 377.23 182.70
  C 370.74 182.73 364.25 182.60 357.76 182.29
  C 353.70 182.10 349.46 178.69 349.73 174.25
  C 349.91 171.41 349.73 165.55 349.19 156.66"
/>
<path stroke="#e5e9ec" vector-effect="non-scaling-stroke" d="
  M 349.19 156.66
  L 348.84 150.11
  C 348.83 149.80 348.90 149.50 349.05 149.24
  C 349.23 148.93 349.34 148.60 349.38 148.25
  C 349.43 147.80 349.23 147.58 348.77 147.60
  C 340.72 148.00 331.47 147.07 324.83 147.04
  C 308.46 146.97 292.10 147.08 275.74 147.39
  C 255.90 147.76 236.07 147.55 216.23 147.64
  C 209.83 147.67 203.69 146.73 197.16 146.97
  C 186.28 147.35 172.36 146.98 164.59 146.97
  C 133.31 146.90 102.03 146.83 70.75 146.74
  C 69.28 146.74 68.12 146.48 67.27 145.97
  C 64.98 144.60 62.82 142.85 60.79 140.74"
/>
<path stroke="#e9edf0" vector-effect="non-scaling-stroke" d="
  M 60.79 140.74
  C 60.18 137.88 59.31 135.16 59.56 132.39
  C 60.69 119.79 75.55 120.89 84.75 121.48
  C 88.50 121.73 96.59 121.65 109.00 121.26
  C 115.90 121.05 127.63 121.11 144.19 121.44
  C 161.04 121.79 177.57 121.15 194.76 121.40
  C 218.39 121.73 242.04 121.44 265.67 121.60
  C 292.69 121.78 319.68 121.11 346.75 121.47
  C 347.41 121.48 347.93 121.69 348.32 122.09
  C 348.74 122.53 349.48 122.34 349.64 121.75
  C 349.91 120.74 350.04 119.66 350.03 118.50
  C 349.94 110.33 349.70 102.21 349.88 94.03
  C 349.97 90.38 349.50 86.81 348.49 83.34"
/>
<path stroke="#a7c5ec" vector-effect="non-scaling-stroke" d="
  M 367.56 59.57
  C 362.10 60.99 359.58 61.17 358.44 67.51
  C 357.32 73.79 361.52 77.74 367.54 77.97
  C 371.93 78.14 376.34 78.11 380.76 77.87
  C 392.60 77.23 392.27 60.58 380.03 59.65"
/>
<path stroke="#e9edf0" vector-effect="non-scaling-stroke" d="
  M 380.03 59.65
  L 367.56 59.57"
/>
<path stroke="#9cbee7" vector-effect="non-scaling-stroke" d="
  M 380.03 59.65
  L 367.56 59.57"
/>
<path stroke="#c9c9cb" vector-effect="non-scaling-stroke" d="
  M 372.26 100.43
  C 369.98 103.53 375.59 104.60 377.35 104.58
  C 410.68 104.29 444.01 104.16 477.34 104.20
  C 479.09 104.20 481.14 103.76 480.89 101.66
  C 480.81 101.04 480.46 100.70 479.83 100.63
  C 479.53 100.60 479.29 100.70 479.10 100.94
  C 478.49 101.72 477.71 102.11 476.75 102.11
  C 465.98 102.14 455.22 102.18 444.46 102.21"
/>
<path stroke="#e9edf0" vector-effect="non-scaling-stroke" d="
  M 444.46 102.21
  L 441.87 102.04
  C 441.64 102.02 441.47 101.80 441.53 101.57
  L 441.73 100.81
  C 441.80 100.55 441.97 100.42 442.24 100.41
  C 452.40 100.14 462.65 100.09 472.98 100.26
  C 474.22 100.28 474.81 99.77 475.98 99.52
  C 476.28 99.45 476.43 99.29 476.44 99.03
  C 476.44 98.86 476.30 98.72 476.13 98.71
  C 451.37 97.68 426.40 98.03 401.61 98.24
  C 392.69 98.32 383.40 97.41 374.51 98.61
  C 373.17 98.79 372.42 99.40 372.26 100.43"
/>
<path stroke="#bec2c7" vector-effect="non-scaling-stroke" d="
  M 444.46 102.21
  C 421.39 102.23 398.32 102.21 375.25 102.14
  C 374.06 102.14 373.06 101.57 372.26 100.43"
/>
<path stroke="#c9c9cb" vector-effect="non-scaling-stroke" d="
  M 389.51 118.10
  C 388.02 121.65 396.49 121.91 398.57 121.92
  C 426.46 122.00 445.93 121.94 457.00 121.73
  C 458.13 121.71 459.90 121.38 462.30 120.75
  C 462.63 120.66 462.82 120.45 462.86 120.11
  C 462.98 119.13 462.82 118.25 462.39 117.46"
/>
<path stroke="#e9edf0" vector-effect="non-scaling-stroke" d="
  M 462.39 117.46
  C 462.46 116.90 462.12 116.52 461.37 116.33
  C 459.61 115.86 456.75 115.58 454.53 115.55
  C 446.94 115.43 439.34 115.40 431.75 115.47
  C 418.14 115.59 404.39 114.82 390.84 116.43
  C 390.39 116.48 390.04 116.63 389.81 116.88
  C 389.46 117.27 389.36 117.68 389.51 118.10"
/>
<path stroke="#bec2c7" vector-effect="non-scaling-stroke" d="
  M 462.39 117.46
  C 462.40 117.57 462.29 117.59 462.08 117.54
  C 461.89 117.49 461.76 117.56 461.69 117.75
  C 461.25 119.04 460.10 119.69 458.25 119.70
  C 430.01 119.92 409.34 119.93 396.25 119.73
  C 394.42 119.70 392.18 119.16 389.51 118.10"
/>
<path stroke="#ebb2ad" vector-effect="non-scaling-stroke" d="
  M 72.47 138.04
  C 72.10 138.03 71.77 138.14 71.47 138.37
  C 71.20 138.58 71.08 138.85 71.10 139.18
  L 71.22 140.98
  C 71.26 141.65 71.98 142.06 72.58 141.76
  C 73.73 141.19 74.75 140.42 75.63 139.47
  C 75.91 139.17 76.26 139.04 76.67 139.07
  C 80.11 139.33 83.09 138.80 83.88 134.99
  C 85.94 124.98 72.17 124.98 72.09 133.13
  C 72.08 134.42 72.81 135.87 73.11 137.24
  C 73.20 137.65 72.89 138.05 72.47 138.04"
/>
<path stroke="#f2e4a3" vector-effect="non-scaling-stroke" d="
  M 160.5296 134.8812
  C 160.52 133.11 159.09 131.69 157.3184 131.6924
  L 95.6788 131.9076
  C 93.91 131.91 92.48 133.35 92.4900 135.1188
  L 92.4904 135.2388
  C 92.50 137.01 93.93 138.43 95.7016 138.4276
  L 157.3412 138.2124
  C 159.11 138.21 160.54 136.77 160.5300 135.0012
  L 160.5296 134.8812"
/>
<path stroke="#f2e4a3" vector-effect="non-scaling-stroke" d="
  M 192.8811 134.3641
  C 192.88 132.88 191.68 131.67 190.1958 131.6694
  L 167.9958 131.6306
  C 166.51 131.63 165.30 132.83 165.3012 134.3159
  L 165.2989 135.6159
  C 165.30 137.10 166.50 138.31 167.9842 138.3106
  L 190.1842 138.3494
  C 191.67 138.35 192.88 137.15 192.8788 135.6641
  L 192.8811 134.3641"
/>
<path stroke="#ebb2ad" vector-effect="non-scaling-stroke" d="
  M 367.31 168.54
  C 370.10 170.46 373.66 171.40 378.00 171.37
  C 408.17 171.15 438.33 171.07 468.50 171.14
  C 473.94 171.15 479.48 171.80 484.28 168.45"
/>
<path stroke="#f9b1a9" vector-effect="non-scaling-stroke" d="
  M 484.28 168.45
  C 492.67 161.79 492.17 147.95 482.18 143.46
  C 480.21 142.57 477.35 142.14 473.59 142.15
  C 430.19 142.32 398.16 142.36 377.50 142.25
  C 374.93 142.24 372.60 142.65 370.52 143.50
  C 367.92 144.56 363.40 149.44 362.40 151.87
  C 360.98 155.35 361.00 158.88 362.46 162.46
  C 363.44 164.86 365.49 166.49 367.31 168.54"
/>
<path stroke="#ef6f62" vector-effect="non-scaling-stroke" d="
  M 484.28 168.45
  C 482.99 167.58 481.34 167.72 479.33 168.87
  C 479.05 169.03 478.74 169.11 478.42 169.11
  C 451.31 169.00 419.26 169.47 381.29 168.98
  C 377.77 168.94 373.60 167.81 369.53 168.06
  C 369.26 168.08 369.00 168.03 368.75 167.90
  C 368.19 167.62 367.62 167.29 367.04 166.91
  C 366.79 166.74 366.49 167.03 366.63 167.29
  L 367.31 168.54"
/>
<path stroke="#9cbee7" vector-effect="non-scaling-stroke" d="
  M 386.90 68.48
  C 386.90 64.54 383.71 61.35 379.77 61.35
  C 375.83 61.35 372.64 64.54 372.64 68.48
  C 372.64 72.42 375.83 75.61 379.77 75.61
  C 383.71 75.61 386.90 72.42 386.90 68.48"
/>
<path stroke="#d9e2e8" vector-effect="non-scaling-stroke" d="
  M 60.79 140.74
  C 59.90 139.83 59.51 139.02 59.62 138.31
  C 59.67 137.95 59.53 137.71 59.18 137.59
  C 59.06 137.55 58.96 137.48 58.88 137.38
  C 58.78 137.25 58.69 137.33 58.60 137.60
  C 58.57 137.70 58.50 137.77 58.41 137.81
  C 58.26 137.88 58.22 138.00 58.30 138.15
  C 58.51 138.52 58.55 138.91 58.42 139.34
  C 58.32 139.65 58.11 139.81 57.79 139.84
  C 57.28 139.88 56.90 140.09 56.64 140.47
  C 56.47 140.72 56.27 140.92 56.03 141.09
  C 55.56 141.42 55.02 141.66 54.43 141.80
  C 54.18 141.86 54.10 142.01 54.21 142.25
  C 54.25 142.33 54.27 142.41 54.28 142.49
  C 54.31 142.80 54.17 142.96 53.86 142.99
  C 53.22 143.04 52.71 142.90 52.33 142.58
  C 52.01 142.31 51.69 142.31 51.37 142.58
  C 50.46 143.33 49.48 143.63 48.41 143.48
  C 48.10 143.43 47.79 143.62 47.68 143.92
  L 47.37 144.75
  C 47.18 145.27 46.92 145.30 46.61 144.85
  C 46.41 144.56 46.20 144.53 45.98 144.76
  C 45.92 144.82 45.91 144.88 45.96 144.95
  C 46.02 145.04 46.03 145.12 45.99 145.19
  C 45.34 146.36 44.59 146.61 43.74 145.95
  C 43.47 145.75 43.35 145.48 43.38 145.15
  C 43.53 143.24 43.26 141.42 42.57 139.71"
/>
<path stroke="#dfaba8" vector-effect="non-scaling-stroke" d="
  M 68.30 105.62
  C 68.30 103.01 66.19 100.90 63.58 100.90
  C 60.97 100.90 58.86 103.01 58.86 105.62
  C 58.86 108.23 60.97 110.34 63.58 110.34
  C 66.19 110.34 68.30 108.23 68.30 105.62"
/>
<path stroke="#92e5ee" vector-effect="non-scaling-stroke" d="
  M 95.87 105.76
  C 95.87 103.16 93.76 101.05 91.16 101.05
  C 88.56 101.05 86.45 103.16 86.45 105.76
  C 86.45 108.36 88.56 110.47 91.16 110.47
  C 93.76 110.47 95.87 108.36 95.87 105.76"
/>
<path stroke="#e7dd9f" vector-effect="non-scaling-stroke" d="
  M 82.7748 104.8347
  C 82.24 102.30 79.46 100.74 76.5629 101.3508
  C 73.67 101.96 71.75 104.51 72.2852 107.0453
  C 72.82 109.58 75.60 111.14 78.4971 110.5292
  C 81.39 109.92 83.31 107.37 82.7748 104.8347"
/>
<path stroke="#ebb2ad" vector-effect="non-scaling-stroke" d="
  M 82.12 132.23
  C 82.12 130.78 81.00 129.57 79.54 129.47
  L 77.40 129.32
  C 75.70 129.20 74.29 130.63 74.45 132.34
  L 74.66 134.61
  C 74.79 136.04 75.99 137.13 77.42 137.12
  L 79.36 137.12
  C 80.88 137.11 82.12 135.87 82.12 134.35
  L 82.12 132.23"
/>
<path stroke="#e9c3dd" vector-effect="non-scaling-stroke" d="
  M 349.19 156.66
  C 341.52 157.86 333.28 157.07 325.50 157.12
  C 320.74 157.14 314.15 164.21 314.12 168.50
  C 314.09 171.89 314.10 179.05 314.15 189.97
  C 314.17 194.98 313.88 202.03 314.07 208.08
  C 314.30 215.38 313.67 223.57 314.39 229.75
  C 314.68 232.20 315.08 233.91 315.60 234.87
  C 316.87 237.19 318.47 238.45 320.40 238.66"
/>
<path stroke="#998e98" vector-effect="non-scaling-stroke" d="
  M 320.40 238.66
  C 322.98 239.65 325.76 240.14 328.75 240.13
  C 342.51 240.12 356.53 239.62 370.25 240.06
  C 383.72 240.49 401.56 240.48 423.75 240.03
  C 427.46 239.96 430.53 239.04 432.96 237.28"
/>
<path stroke="#e9c3dd" vector-effect="non-scaling-stroke" d="
  M 432.96 237.28
  C 434.65 235.75 435.52 233.40 435.56 230.24
  C 435.77 214.77 435.80 199.29 435.67 183.79
  C 435.67 183.44 435.50 183.23 435.16 183.15
  L 433.82 182.83"
/>
<path stroke="#e5e9ec" vector-effect="non-scaling-stroke" d="
  M 166.43 357.79
  C 166.27 358.02 166.07 358.18 165.82 358.27"
/>
<path stroke="#a68ae7" vector-effect="non-scaling-stroke" d="
  M 165.82 358.27
  C 165.79 357.41 166.01 355.65 166.48 353.00
  C 166.88 350.73 166.53 342.61 163.70 340.34"
/>
<path stroke="#e5e9ec" vector-effect="non-scaling-stroke" d="
  M 163.70 340.34
  C 164.35 340.11 164.86 340.06 165.24 340.19"
/>
<path stroke="#babec3" vector-effect="non-scaling-stroke" d="
  M 165.24 340.19
  C 165.35 340.26 165.40 340.40 165.37 340.62
  C 165.37 340.63 165.37 340.63 165.37 340.63
  C 165.37 340.63 165.37 340.63 165.37 340.63
  C 165.36 340.62 165.36 340.61 165.36 340.60
  C 165.93 337.02 165.29 332.93 165.33 330.13
  C 165.60 310.90 166.36 291.40 165.44 272.21
  C 165.32 269.70 164.73 267.87 163.72 265.73
  C 163.38 265.00 163.18 265.04 163.12 265.84
  L 163.00 267.43"
/>
<path stroke="#e5e9ec" vector-effect="non-scaling-stroke" d="
  M 163.00 267.43
  C 161.27 261.40 155.23 260.79 149.50 260.84
  C 117.91 261.07 86.31 261.16 54.71 261.13
  C 51.67 261.13 46.84 261.61 42.80 260.96"
/>
<path stroke="#889cbc" vector-effect="non-scaling-stroke" d="
  M 187.36 212.29
  C 187.19 215.27 187.10 218.26 187.10 221.25
  C 187.11 254.92 187.08 288.58 187.01 322.25
  C 187.00 325.37 188.32 328.51 191.30 330.11
  C 193.10 331.07 194.58 331.55 195.75 331.56
  C 228.33 331.63 260.91 331.67 293.50 331.68
  C 297.76 331.68 300.52 331.32 301.77 330.59
  C 305.27 328.56 307.02 325.86 307.01 322.50
  C 306.96 293.67 306.94 264.85 306.95 236.04"
/>
<path stroke="#8aa1c4" vector-effect="non-scaling-stroke" d="
  M 306.95 236.04
  C 307.06 214.32 307.09 192.60 307.03 170.87
  C 307.02 167.16 306.91 164.91 306.72 164.14
  C 305.53 159.34 300.79 156.72 295.75 156.72
  C 263.10 156.77 230.44 156.79 197.77 156.79
  C 195.96 156.79 194.35 157.14 192.94 157.83
  C 189.10 159.71 187.24 162.43 187.17 166.25
  C 186.96 179.60 187.02 194.94 187.36 212.29"
/>
<path stroke="#3d5f9c" vector-effect="non-scaling-stroke" d="
  M 306.95 236.04
  C 306.77 234.93 306.19 234.16 305.22 233.73
  C 304.87 233.58 304.69 233.31 304.70 232.92
  C 304.71 231.16 303.93 229.82 302.36 228.91
  C 302.27 228.86 302.22 228.78 302.19 228.69
  C 302.16 228.58 302.16 228.49 302.17 228.41
  C 302.20 228.26 302.14 228.17 302.01 228.12
  C 300.48 227.53 299.34 226.53 298.57 225.12
  C 298.40 224.81 298.40 224.49 298.56 224.18
  C 298.99 223.36 298.89 222.58 298.26 221.85
  C 298.04 221.60 297.77 221.43 297.44 221.34
  C 296.26 221.03 295.37 220.66 294.76 220.24
  C 294.48 220.04 294.34 219.81 294.35 219.55
  C 294.35 219.29 294.24 219.09 294.02 218.96
  L 292.87 218.28
  C 292.60 218.12 292.42 217.83 292.41 217.51
  L 292.35 215.24
  C 292.34 215.03 292.17 214.86 291.96 214.85
  C 291.79 214.85 291.68 214.78 291.65 214.63
  C 291.35 213.26 290.98 212.28 291.20 210.80
  C 291.25 210.47 291.14 210.22 290.85 210.05
  C 288.98 208.91 289.37 207.04 287.88 205.45
  C 287.65 205.20 287.49 204.92 287.40 204.59
  L 286.71 202.05
  C 286.68 201.95 286.63 201.88 286.54 201.84
  C 286.41 201.78 286.29 201.73 286.18 201.68
  C 285.95 201.60 285.75 201.47 285.58 201.28
  C 284.55 200.18 283.42 199.19 282.21 198.30
  C 281.94 198.11 281.75 197.86 281.62 197.55
  C 281.27 196.74 280.67 196.22 279.80 196.00"
/>
<path stroke="#4e5278" vector-effect="non-scaling-stroke" d="
  M 279.80 196.00
  C 277.92 193.55 275.92 192.91 273.46 191.78
  C 273.17 191.65 272.94 191.46 272.75 191.21
  C 272.10 190.35 271.21 189.82 270.08 189.61
  C 269.77 189.56 269.48 189.45 269.21 189.28
  C 268.26 188.69 267.27 188.21 266.24 187.85
  C 263.70 186.95 261.76 185.41 259.06 184.86
  C 256.62 184.37 254.17 183.17 251.15 184.30"
/>
<path stroke="#99617b" vector-effect="non-scaling-stroke" d="
  M 251.15 184.30
  C 250.03 183.97 248.66 183.85 247.05 183.93"
/>
<path stroke="#8ea5c8" vector-effect="non-scaling-stroke" d="
  M 247.05 183.93
  C 236.06 182.51 221.25 189.97 213.99 198.02"
/>
<path stroke="#43a4ca" vector-effect="non-scaling-stroke" d="
  M 213.99 198.02
  C 210.22 201.86 207.15 206.53 204.78 212.04"
/>
<path stroke="#3d5f9c" vector-effect="non-scaling-stroke" d="
  M 204.78 212.04
  C 204.55 210.99 204.53 209.94 204.72 208.89
  C 204.75 208.72 204.68 208.64 204.51 208.63
  L 204.13 208.63
  C 203.96 208.63 203.85 208.46 203.90 208.30
  C 204.58 206.25 204.29 204.40 203.02 202.73
  C 202.65 202.24 202.42 201.78 202.35 201.35
  C 202.26 200.82 202.16 200.30 202.05 199.77
  C 201.98 199.45 201.84 199.16 201.64 198.89
  L 200.64 197.58
  C 200.46 197.34 200.37 197.07 200.38 196.76
  C 200.39 196.45 200.27 196.20 200.02 196.03
  C 199.86 195.91 199.63 196.03 199.63 196.23
  C 199.63 196.32 199.63 196.41 199.63 196.50
  C 199.63 196.50 199.59 196.50 199.50 196.50
  C 199.41 196.50 199.31 196.50 199.21 196.51
  C 199.02 196.51 198.98 196.43 199.09 196.28
  C 199.17 196.17 199.19 196.05 199.16 195.94
  C 199.09 195.65 198.90 195.53 198.60 195.58
  C 197.73 195.73 196.91 195.57 196.16 195.09
  C 195.98 194.98 195.75 194.97 195.56 195.06
  C 195.24 195.21 195.09 195.41 195.12 195.68
  C 195.17 196.03 195.02 196.25 194.67 196.33
  C 193.76 196.54 192.88 196.44 192.05 196.05
  C 190.50 195.30 188.69 196.38 188.58 198.10
  L 188.30 202.59
  C 188.28 202.90 188.16 203.17 187.94 203.39
  C 187.75 203.58 187.67 203.78 187.69 203.99
  C 188.01 207.10 187.90 209.87 187.36 212.29"
/>
<path stroke="#4c4d70" vector-effect="non-scaling-stroke" d="
  M 279.80 196.00
  C 281.18 197.84 282.74 199.08 283.77 201.18
  C 285.26 204.21 287.47 206.49 288.69 209.70
  C 289.12 210.83 289.58 211.95 290.07 213.06
  C 292.46 218.53 293.29 225.87 293.57 231.79
  C 293.88 238.19 291.65 244.00 289.28 249.83
  C 288.52 251.70 287.50 253.51 286.22 255.25
  C 284.99 256.93 283.74 258.59 282.46 260.23
  C 279.90 263.50 278.10 264.67 276.11 266.70
  C 273.75 269.11 270.27 270.74 267.30 272.31
  C 258.04 277.23 246.90 277.72 236.41 275.92
  C 234.23 275.54 232.22 274.51 230.03 273.83
  C 228.31 273.29 226.82 272.56 225.57 271.64
  C 223.32 269.99 221.04 268.37 218.74 266.78
  C 216.74 265.39 215.20 263.62 213.35 261.99
  C 212.37 261.14 211.95 259.98 211.13 258.99
  C 206.00 252.78 203.43 247.39 200.86 238.00
  C 200.31 235.98 200.58 233.55 201.67 230.71"
/>
<path stroke="#a7794d" vector-effect="non-scaling-stroke" d="
  M 201.67 230.71
  C 203.43 243.71 206.34 251.86 215.18 260.04
  C 217.76 262.42 220.04 264.34 222.03 265.80
  C 228.43 270.52 237.20 272.79 245.03 273.20"
/>
<path stroke="#a84f4f" vector-effect="non-scaling-stroke" d="
  M 245.03 273.20
  C 250.21 273.46 255.49 271.98 260.50 270.76
  C 264.07 269.89 267.31 268.34 270.22 266.10
  C 270.39 265.97 270.62 265.89 270.93 265.88
  C 271.26 265.87 271.55 265.75 271.80 265.53
  C 273.01 264.46 274.23 263.40 275.44 262.34
  C 278.21 259.92 280.18 256.84 282.41 253.93
  C 283.68 252.26 284.71 250.52 285.49 248.71
  C 287.83 243.22 289.25 239.40 289.76 237.27
  C 290.77 232.96 290.80 227.37 289.86 220.50
  C 289.56 218.32 287.82 214.20 284.63 208.13
  C 284.26 207.42 283.14 205.95 281.28 203.72
  C 281.17 203.59 281.12 203.45 281.13 203.28
  C 281.13 203.19 281.13 203.10 281.12 203.02
  C 281.11 202.87 281.05 202.72 280.94 202.58
  C 279.09 200.25 275.93 196.99 271.45 192.80
  C 270.28 191.71 269.31 191.01 268.52 190.70
  C 268.26 190.60 268.02 190.46 267.81 190.28
  L 265.85 188.64
  C 265.58 188.41 265.26 188.28 264.90 188.24
  C 263.66 188.10 262.44 187.86 261.25 187.51
  C 260.63 187.33 259.90 187.44 259.27 186.85
  C 259.08 186.68 258.85 186.55 258.61 186.48
  L 251.15 184.30"
/>
<path stroke="#409fc2" vector-effect="non-scaling-stroke" d="
  M 204.78 212.04
  C 202.88 217.53 201.96 223.28 202.02 229.27"
/>
<path stroke="#958671" vector-effect="non-scaling-stroke" d="
  M 202.02 229.27
  C 201.79 229.76 201.68 230.24 201.67 230.71"
/>
<path stroke="#e8a29e" vector-effect="non-scaling-stroke" d="
  M 247.05 183.93
  L 246.48 209.56"
/>
<path stroke="#8ca0c0" vector-effect="non-scaling-stroke" d="
  M 246.48 209.56
  L 246.24 209.81
  C 246.05 210.02 245.82 210.13 245.55 210.15
  C 241.32 210.50 237.34 212.29 233.60 215.50"
/>
<path stroke="#92e5ee" vector-effect="non-scaling-stroke" d="
  M 233.60 215.50
  C 229.34 211.87 225.25 207.94 221.34 203.72
  C 220.22 202.51 219.05 201.49 217.84 200.65
  C 216.57 199.76 215.28 198.89 213.99 198.02"
/>
<path stroke="#409fc2" vector-effect="non-scaling-stroke" d="
  M 233.60 215.50
  C 230.29 218.59 228.27 222.64 227.54 227.66
  C 227.50 227.94 227.56 228.20 227.71 228.45
  C 227.95 228.84 228.00 229.35 227.87 229.96
  C 227.86 230.05 227.83 230.05 227.80 229.97
  C 227.76 229.88 227.72 229.78 227.68 229.68
  C 227.59 229.48 227.45 229.32 227.26 229.21
  L 226.70 228.88"
/>
<path stroke="#9bcb9f" vector-effect="non-scaling-stroke" d="
  M 226.70 228.88
  C 224.56 229.06 222.59 229.39 220.42 229.32
  C 214.29 229.13 208.16 229.12 202.02 229.27"
/>
<path stroke="#f1884f" vector-effect="non-scaling-stroke" d="
  M 245.03 273.20
  C 246.24 273.11 246.84 272.62 246.83 271.75
  C 246.76 263.75 246.88 255.77 247.18 247.82"
/>
<path stroke="#965c73" vector-effect="non-scaling-stroke" d="
  M 247.18 247.82
  C 248.99 247.69 251.02 247.30 253.28 246.64
  C 262.20 244.02 266.24 233.96 265.74 225.25
  C 265.50 220.95 262.61 215.42 259.15 212.74
  C 255.94 210.26 251.01 208.15 246.96 209.91
  C 246.79 209.98 246.68 209.93 246.65 209.74
  C 246.61 209.57 246.55 209.51 246.48 209.56"
/>
<path stroke="#958671" vector-effect="non-scaling-stroke" d="
  M 247.18 247.82
  C 244.45 247.34 241.38 247.20 239.16 246.25
  C 232.45 243.38 228.52 238.12 227.38 230.49
  C 227.32 230.10 227.09 229.57 226.70 228.88"
/>
<path stroke="#e5e9ec" vector-effect="non-scaling-stroke" d="
  M 132.54 197.71
  C 132.54 189.97 126.26 183.69 118.52 183.69
  C 110.78 183.69 104.50 189.97 104.50 197.71
  C 104.50 205.45 110.78 211.73 118.52 211.73
  C 126.26 211.73 132.54 205.45 132.54 197.71"
/>
<path stroke="#e9a5a1" vector-effect="non-scaling-stroke" d="
  M 433.06 328.89
  C 434.97 327.48 435.87 324.69 435.78 320.50
  C 435.33 299.65 435.84 282.09 435.34 258.00
  C 435.25 253.65 432.81 251.24 429.05 249.60
  C 426.33 248.41 423.06 248.74 420.02 248.64"
/>
<path stroke="#dba7a5" vector-effect="non-scaling-stroke" d="
  M 420.02 248.64
  C 402.17 248.44 384.35 248.95 366.51 248.71
  C 353.05 248.52 339.59 248.55 326.13 248.80
  C 316.58 248.98 315.15 255.32 315.20 263.50
  C 315.31 282.21 315.29 300.92 315.14 319.63
  C 315.11 322.87 315.34 325.09 315.83 326.29
  C 317.55 330.57 322.08 332.27 326.50 332.24
  C 359.41 332.05 392.33 332.00 425.25 332.07
  C 428.23 332.08 430.83 331.02 433.06 328.89"
/>
<path stroke="#ef6f62" vector-effect="non-scaling-stroke" d="
  M 420.02 248.64
  L 398.63 248.77
  C 398.54 248.77 398.47 248.80 398.40 248.85
  C 398.33 248.91 398.26 248.97 398.20 249.02
  C 398.16 249.05 398.12 249.06 398.07 249.07
  C 394.38 249.28 390.69 249.38 387.00 249.37
  C 386.35 249.37 386.30 249.51 386.83 249.78
  C 386.93 249.83 387.05 249.85 387.19 249.86
  C 387.32 249.87 387.33 249.90 387.20 249.94
  C 386.99 250.01 386.77 250.10 386.56 250.21
  C 386.34 250.34 386.13 250.41 385.94 250.44
  C 382.17 251.03 378.88 249.73 375.17 251.30
  C 374.98 251.38 374.89 251.61 374.97 251.80
  C 376.15 254.55 376.75 257.45 376.78 260.51
  C 376.89 272.20 376.96 283.89 376.99 295.58
  C 376.99 297.00 376.38 298.72 376.57 300.26
  C 376.87 302.62 376.97 304.64 376.88 306.33"
/>
<path stroke="#9f5859" vector-effect="non-scaling-stroke" d="
  M 376.88 306.33
  L 375.29 299.01"
/>
<path stroke="#ebb2ad" vector-effect="non-scaling-stroke" d="
  M 375.29 299.01
  C 375.28 285.20 375.29 271.36 375.33 257.50
  C 375.33 256.74 375.09 255.86 374.61 254.85
  C 374.46 254.54 374.21 254.36 373.87 254.31
  C 372.50 254.10 371.37 254.00 370.50 253.99
  C 359.23 253.88 344.57 253.87 326.50 253.98
  C 324.87 253.99 323.53 254.15 322.49 254.45
  C 322.14 254.56 321.87 254.83 321.77 255.18
  C 321.28 256.93 321.04 258.87 321.03 261.00
  C 321.00 276.59 321.08 289.74 321.29 300.45"
/>
<path stroke="#9e83a4" vector-effect="non-scaling-stroke" d="
  M 321.29 300.45
  L 321.53 321.79"
/>
<path stroke="#9f5859" vector-effect="non-scaling-stroke" d="
  M 321.53 321.79
  C 321.41 322.66 321.42 323.42 321.55 324.07
  C 321.77 325.11 322.67 325.86 323.73 325.89
  C 341.51 326.36 359.06 326.30 376.37 325.69"
/>
<path stroke="#ef6f62" vector-effect="non-scaling-stroke" d="
  M 376.37 325.69
  C 375.14 326.61 375.21 327.80 376.58 329.25
  C 376.80 329.48 377.10 329.62 377.41 329.63
  C 379.95 329.74 382.41 330.53 384.78 330.58
  C 392.19 330.75 399.59 330.66 407.00 330.33
  C 408.38 330.27 409.47 330.90 410.69 330.89
  C 413.66 330.86 416.63 330.76 419.60 330.59
  C 420.60 330.53 421.24 331.30 422.22 331.35
  C 425.63 331.52 429.24 330.70 433.06 328.89"
/>
<path stroke="#ad5655" vector-effect="non-scaling-stroke" d="
  M 376.37 325.69
  C 377.78 319.35 376.98 312.74 376.88 306.33"
/>
<path stroke="#50bdea" vector-effect="non-scaling-stroke" d="
  M 354.17 300.73
  L 369.04 324.75"
/>
<path stroke="#5c6a98" vector-effect="non-scaling-stroke" d="
  M 369.04 324.75
  C 354.05 325.08 339.13 324.96 324.27 324.40
  C 322.66 324.34 321.47 323.44 321.53 321.79"
/>
<path stroke="#a99aa0" vector-effect="non-scaling-stroke" d="
  M 375.29 299.01
  C 375.86 302.76 375.76 306.35 374.99 309.80"
/>
<path stroke="#9decf2" vector-effect="non-scaling-stroke" d="
  M 374.99 309.80
  C 373.26 307.12 371.61 304.65 370.04 302.39
  C 367.68 298.98 365.12 294.33 361.39 290.77
  C 361.25 290.63 361.02 290.66 360.90 290.82
  L 354.17 300.73"
/>
<path stroke="#a7c5ec" vector-effect="non-scaling-stroke" d="
  M 354.17 300.73
  L 338.60 275.33
  C 338.30 274.84 337.58 274.83 337.27 275.32
  L 321.29 300.45"
/>
<path stroke="#52929e" vector-effect="non-scaling-stroke" d="
  M 374.99 309.80
  C 375.49 313.62 375.50 317.99 375.03 322.92
  C 374.97 323.49 374.64 323.99 374.14 324.25
  C 372.64 325.04 370.94 325.21 369.04 324.75"
/>
<path stroke="#f79056" vector-effect="non-scaling-stroke" d="
  M 439.9714 156.0037
  C 439.98 154.36 438.66 153.03 437.0170 153.0182
  L 414.8173 152.9019
  C 413.18 152.89 411.84 154.22 411.8318 155.8563
  L 411.8286 156.4563
  C 411.82 158.10 413.14 159.43 414.7830 159.4418
  L 436.9827 159.5581
  C 438.62 159.57 439.96 158.24 439.9682 156.6037
  L 439.9714 156.0037"
/>
<path stroke="#ad7491" vector-effect="non-scaling-stroke" d="
  M 432.96 237.28
  C 429.66 238.63 426.92 239.34 424.75 239.40
  C 418.58 239.57 409.83 239.55 398.50 239.32
  C 388.30 239.11 380.18 239.33 371.02 239.25
  C 358.77 239.14 344.76 239.26 331.64 239.32
  C 327.98 239.34 324.23 239.12 320.40 238.66"
/>
<path stroke="#f9cfe5" vector-effect="non-scaling-stroke" d="
  M 360.1668 203.6633
  C 362.01 202.48 362.47 199.91 361.2008 197.9252
  C 359.93 195.94 357.40 195.29 355.5532 196.4767
  C 353.71 197.66 353.25 200.23 354.5192 202.2148
  C 355.79 204.20 358.32 204.85 360.1668 203.6633"
/>
<path stroke="#f9cfe5" vector-effect="non-scaling-stroke" d="
  M 374.5703 204.4203
  C 376.78 204.68 378.80 203.02 379.0717 200.7072
  C 379.35 198.39 377.78 196.30 375.5697 196.0397
  C 373.36 195.78 371.34 197.44 371.0683 199.7528
  C 370.79 202.07 372.36 204.16 374.5703 204.4203"
/>
<path stroke="#f9cfe5" vector-effect="non-scaling-stroke" d="
  M 393.0349 204.5329
  C 395.14 204.30 396.62 202.17 396.3561 199.7831
  C 396.09 197.40 394.17 195.65 392.0651 195.8871
  C 389.96 196.12 388.48 198.25 388.7439 200.6369
  C 389.01 203.02 390.93 204.77 393.0349 204.5329"
/>
<path stroke="#e5e9ec" vector-effect="non-scaling-stroke" d="
  M 130.3615 198.2757
  C 131.10 192.21 126.77 186.69 120.7016 185.9559
  L 118.5970 185.7012
  C 112.53 184.97 107.01 189.29 106.2772 195.3611
  L 105.9985 197.6643
  C 105.26 203.73 109.59 209.25 115.6584 209.9841
  L 117.7630 210.2388
  C 123.83 210.97 129.35 206.65 130.0828 200.5789
  L 130.3615 198.2757"
/>
<path stroke="#e5e9ec" vector-effect="non-scaling-stroke" d="
  M 116.07 197.58
  C 115.14 196.95 114.16 196.89 113.13 197.41
  C 112.34 197.81 112.38 198.08 113.25 198.23
  L 116.53 198.77
  C 116.83 198.82 117.08 199.02 117.20 199.29
  C 117.53 200.06 117.73 200.86 117.80 201.70
  C 117.83 202.10 118.38 202.17 118.51 201.79
  C 118.76 201.04 118.84 200.27 118.73 199.47
  C 118.68 199.09 118.93 198.74 119.30 198.65
  L 122.00 198.00
  C 123.41 197.66 123.48 197.22 122.20 196.67
  C 122.12 196.64 121.45 196.76 120.20 197.05
  C 119.52 197.21 118.89 196.64 118.97 195.95
  L 119.16 194.23
  C 119.19 193.95 119.06 193.67 118.83 193.52
  C 118.48 193.29 118.19 193.37 117.98 193.74
  C 117.48 194.62 117.25 195.68 117.29 196.91
  C 117.31 197.55 116.60 197.94 116.07 197.58"
/>
<path stroke="#409fc2" vector-effect="non-scaling-stroke" d="
  M 296.1689 307.3638
  C 296.16 300.53 290.61 295.00 283.7773 295.0154
  L 209.7174 295.1446
  C 202.89 295.16 197.36 300.70 197.3690 307.5362
  L 197.3711 308.7362
  C 197.38 315.57 202.93 321.10 209.7627 321.0846
  L 283.8226 320.9554
  C 290.65 320.94 296.18 315.40 296.1710 308.5638
  L 296.1689 307.3638"
/>
<path stroke="#ad5655" vector-effect="non-scaling-stroke" d="
  M 399.10 307.28
  C 397.52 311.33 398.58 314.63 401.09 317.84
  C 402.30 319.39 403.75 320.61 405.44 321.48
  C 411.33 324.53 419.32 323.73 423.43 318.03
  C 426.07 314.36 425.99 309.76 425.38 305.07"
/>
<path stroke="#ac81a1" vector-effect="non-scaling-stroke" d="
  M 425.38 305.07
  C 423.86 302.02 422.39 298.37 418.98 296.93
  C 412.48 294.17 403.79 294.56 400.62 302.02
  C 399.90 303.71 399.39 305.47 399.10 307.28"
/>
<path stroke="#5c6a98" vector-effect="non-scaling-stroke" d="
  M 425.38 305.07
  C 425.60 307.92 425.25 310.27 424.33 312.10
  C 423.57 313.62 422.93 315.40 421.92 316.43
  C 417.47 320.94 412.21 321.83 406.13 319.10
  C 401.08 316.83 398.74 312.89 399.10 307.28"
/>
<path stroke="#f2e4a3" vector-effect="non-scaling-stroke" d="
  M 369.80 270.01
  C 369.80 265.19 365.89 261.28 361.07 261.28
  C 356.25 261.28 352.34 265.19 352.34 270.01
  C 352.34 274.83 356.25 278.74 361.07 278.74
  C 365.89 278.74 369.80 274.83 369.80 270.01"
/>
<path stroke="#c9c9cb" vector-effect="non-scaling-stroke" d="
  M 163.00 267.43
  C 163.36 269.75 164.00 271.97 164.10 274.23
  C 164.39 280.36 164.23 286.68 164.35 292.60
  C 164.43 296.29 164.40 299.50 164.25 302.25
  C 163.88 309.30 163.91 315.97 164.32 322.28
  C 164.67 327.60 164.25 334.23 165.24 340.19"
/>
<path stroke="#b695ef" vector-effect="non-scaling-stroke" d="
  M 163.70 340.34
  C 160.41 335.06 157.57 333.82 152.91 331.35
  C 152.60 331.18 152.44 330.93 152.43 330.58
  C 152.14 322.08 152.14 313.61 152.42 305.17
  C 152.49 303.28 152.04 301.42 151.71 299.61"
/>
<path stroke="#f1d2e8" vector-effect="non-scaling-stroke" d="
  M 151.71 299.61
  C 151.26 297.06 145.33 295.77 143.25 295.71
  C 127.82 295.32 110.17 295.59 97.01 295.56
  C 72.54 295.52 48.08 295.60 23.62 295.81
  C 18.69 295.85 13.72 297.75 13.48 303.50
  C 12.50 326.72 13.36 350.10 13.32 373.35
  C 13.31 378.02 13.67 382.42 14.11 386.93"
/>
<path stroke="#9db0d4" vector-effect="non-scaling-stroke" d="
  M 14.11 386.93
  C 13.62 389.49 13.36 392.01 13.31 394.50
  C 13.14 405.33 13.14 416.17 13.33 427.00
  C 13.43 432.93 17.86 434.22 22.75 434.22
  C 63.00 434.25 103.25 434.19 143.50 434.02
  C 147.12 434.01 152.24 432.58 152.30 428.25
  C 152.38 422.40 152.36 412.81 152.24 399.47"
/>
<path stroke="#b695ef" vector-effect="non-scaling-stroke" d="
  M 152.24 399.47
  L 152.14 372.53
  C 152.14 372.05 152.42 371.61 152.86 371.42
  C 158.20 369.03 164.41 364.20 165.82 358.27"
/>
<path stroke="#c9c9cb" vector-effect="non-scaling-stroke" d="
  M 166.10 364.26
  C 165.46 366.47 165.34 368.75 165.74 371.10
  C 165.98 372.57 165.09 374.16 165.11 375.77
  C 165.19 382.52 164.49 389.63 165.20 396.30
  C 165.40 398.19 165.16 400.21 165.45 402.02
  C 165.49 402.29 165.44 402.53 165.31 402.76
  C 165.18 402.98 165.11 403.22 165.12 403.48
  L 165.34 420.06"
/>
<path stroke="#c9c9cb" vector-effect="non-scaling-stroke" d="
  M 151.19 281.90
  C 151.26 283.03 150.49 284.04 149.38 284.26
  C 146.64 284.81 144.21 284.25 142.09 282.56
  C 141.66 282.22 141.52 282.31 141.69 282.84
  C 142.84 286.48 152.78 288.18 153.15 282.15
  C 153.26 280.34 152.11 278.12 151.47 276.27
  C 151.44 276.17 151.37 276.12 151.26 276.12
  C 151.17 276.12 151.07 276.12 150.98 276.11
  C 150.88 276.11 150.83 276.16 150.84 276.25
  L 151.19 281.90"
/>
<path stroke="#b373e3" vector-effect="non-scaling-stroke" d="
  M 151.71 299.61
  L 150.91 299.20
  C 150.52 299.01 150.36 299.12 150.43 299.54
  C 151.93 309.37 151.12 320.27 151.12 330.24
  C 151.13 330.51 150.89 330.71 150.63 330.67
  C 145.48 329.89 140.45 330.52 135.54 332.57"
/>
<path stroke="#efc297" vector-effect="non-scaling-stroke" d="
  M 135.54 332.57
  C 135.24 331.87 135.65 331.35 136.78 331.00
  C 137.23 330.86 137.50 330.56 137.59 330.11
  C 138.65 324.91 136.33 317.11 131.75 314.37
  C 129.34 312.93 127.03 311.56 124.21 311.18
  C 115.59 310.02 112.19 311.34 106.63 317.64
  C 105.59 318.82 105.13 320.76 105.25 323.47
  C 105.26 323.70 105.16 323.85 104.93 323.92
  C 104.74 323.99 104.63 324.16 104.61 324.44
  C 104.26 329.85 104.14 334.65 108.74 338.77
  C 110.76 340.57 113.31 341.89 116.39 342.72
  C 120.52 343.83 123.53 342.28 127.18 341.72"
/>
<path stroke="#b373e3" vector-effect="non-scaling-stroke" d="
  M 127.18 341.72
  C 123.23 348.78 124.31 357.39 129.06 363.95
  C 134.17 371.01 141.46 372.67 150.01 372.13
  C 150.64 372.09 151.18 372.60 151.17 373.24
  L 150.72 399.51"
/>
<path stroke="#a4a3df" vector-effect="non-scaling-stroke" d="
  M 150.72 399.51
  C 149.85 400.01 149.09 399.68 148.45 398.53
  C 146.98 395.86 145.40 393.60 143.72 391.74
  C 136.46 383.71 129.53 375.06 122.27 366.45
  C 121.71 365.77 120.68 365.75 120.07 366.39
  L 100.98 386.66"
/>
<path stroke="#9a8ec7" vector-effect="non-scaling-stroke" d="
  M 100.98 386.66
  C 90.78 373.67 80.91 361.06 71.38 348.85
  C 67.00 343.24 62.74 337.53 58.61 331.72
  C 57.55 330.23 56.27 329.25 54.93 328.10
  C 54.78 327.97 54.55 328.00 54.44 328.17
  L 14.11 386.93"
/>
<path stroke="#9cbee7" vector-effect="non-scaling-stroke" d="
  M 414.16 307.75
  C 411.71 307.54 409.49 307.49 407.50 307.58
  C 407.27 307.59 407.12 307.68 407.05 307.85
  C 406.91 308.17 407.01 308.37 407.35 308.45
  C 409.46 308.94 411.69 308.89 414.04 308.32"
/>
<path stroke="#a7c5ec" vector-effect="non-scaling-stroke" d="
  M 414.04 308.32
  C 414.47 309.98 413.87 311.29 412.24 312.24
  C 412.09 312.33 412.07 312.44 412.16 312.58
  L 412.42 312.98
  C 412.55 313.17 412.70 313.19 412.88 313.04
  L 417.44 309.11
  C 418.09 308.55 417.91 307.49 417.11 307.18
  C 415.37 306.51 414.13 305.32 413.38 303.63
  C 413.33 303.50 413.17 303.44 413.04 303.50
  L 412.77 303.62
  C 412.67 303.67 412.63 303.79 412.67 303.89
  L 414.16 307.75"
/>
<path stroke="#e9edf0" vector-effect="non-scaling-stroke" d="
  M 414.04 308.32
  C 413.87 307.53 413.91 307.34 414.16 307.75"
/>
<path stroke="#5f51cf" vector-effect="non-scaling-stroke" d="
  M 152.24 399.47
  C 152.13 398.94 151.95 398.61 151.70 398.47
  C 151.48 398.35 151.20 398.49 151.17 398.74
  C 151.13 399.07 150.98 399.32 150.72 399.51"
/>
<path stroke="#b4859e" vector-effect="non-scaling-stroke" d="
  M 127.18 341.72
  C 129.57 338.11 132.36 335.06 135.54 332.57"
/>
<path stroke="#b695ef" vector-effect="non-scaling-stroke" d="
  M 152.21 362.70
  C 154.04 362.53 155.42 361.66 156.35 360.09
  C 161.22 351.80 160.07 345.01 152.90 339.73"
/>
<path stroke="#b373e3" vector-effect="non-scaling-stroke" d="
  M 152.90 339.73
  C 148.95 338.21 145.27 337.88 141.86 338.74
  C 136.91 340.00 133.32 344.27 132.66 349.27
  C 131.74 356.08 135.59 362.32 142.45 364.32
  C 146.12 365.39 149.37 364.85 152.21 362.70"
/>
<path stroke="#f1d2e8" vector-effect="non-scaling-stroke" d="
  M 152.90 339.73
  C 152.47 341.38 152.32 343.01 152.45 344.62
  C 152.85 349.42 152.90 353.32 152.55 356.99
  C 152.30 359.58 152.19 361.48 152.21 362.70"
/>
<path stroke="#5081cb" vector-effect="non-scaling-stroke" d="
  M 100.98 386.66
  C 101.33 387.21 102.03 388.13 103.07 389.44
  C 113.30 402.31 123.28 415.37 132.99 428.64
  C 133.82 429.77 134.93 432.69 137.00 432.79
  C 140.02 432.94 150.74 434.41 151.08 428.75
  C 151.63 419.66 151.52 410.57 150.75 401.49
  C 150.69 400.80 150.68 400.14 150.72 399.51"
/>
<path stroke="#7e6f77" vector-effect="non-scaling-stroke" d="
  M 165.81 383.61
  C 165.10 386.96 165.05 390.46 165.68 394.11"
/>
</g>
<path fill="#f4f4f4" d="
  M 500.00 55.13
  L 500.00 180.40
  L 471.78 182.57
  L 454.28 182.30
  C 447.20 181.22 440.38 181.40 433.82 182.83
  C 415.01 182.73 396.11 182.59 377.23 182.70
  C 370.74 182.73 364.25 182.60 357.76 182.29
  C 353.70 182.10 349.46 178.69 349.73 174.25
  C 349.91 171.41 349.73 165.55 349.19 156.66
  L 348.84 150.11
  C 348.83 149.80 348.90 149.50 349.05 149.24
  C 349.23 148.93 349.34 148.60 349.38 148.25
  C 349.43 147.80 349.23 147.58 348.77 147.60
  C 340.72 148.00 331.47 147.07 324.83 147.04
  C 308.46 146.97 292.10 147.08 275.74 147.39
  C 255.90 147.76 236.07 147.55 216.23 147.64
  C 209.83 147.67 203.69 146.73 197.16 146.97
  C 186.28 147.35 172.36 146.98 164.59 146.97
  C 133.31 146.90 102.03 146.83 70.75 146.74
  C 69.28 146.74 68.12 146.48 67.27 145.97
  C 64.98 144.60 62.82 142.85 60.79 140.74
  C 60.18 137.88 59.31 135.16 59.56 132.39
  C 60.69 119.79 75.55 120.89 84.75 121.48
  C 88.50 121.73 96.59 121.65 109.00 121.26
  C 115.90 121.05 127.63 121.11 144.19 121.44
  C 161.04 121.79 177.57 121.15 194.76 121.40
  C 218.39 121.73 242.04 121.44 265.67 121.60
  C 292.69 121.78 319.68 121.11 346.75 121.47
  C 347.41 121.48 347.93 121.69 348.32 122.09
  C 348.74 122.53 349.48 122.34 349.64 121.75
  C 349.91 120.74 350.04 119.66 350.03 118.50
  C 349.94 110.33 349.70 102.21 349.88 94.03
  C 349.97 90.38 349.50 86.81 348.49 83.34
  C 348.77 82.01 348.87 80.98 348.80 80.25
  C 348.15 73.80 348.10 67.67 348.63 61.88
  C 349.19 55.74 357.15 54.29 361.99 54.10
  C 367.11 53.91 372.34 53.53 377.33 53.53
  C 407.60 53.52 437.86 53.31 468.12 52.88
  C 478.45 52.73 488.27 51.71 499.02 53.24
  C 499.35 53.29 499.55 53.47 499.64 53.79
  L 500.00 55.13
  Z
  M 367.56 59.57
  C 362.10 60.99 359.58 61.17 358.44 67.51
  C 357.32 73.79 361.52 77.74 367.54 77.97
  C 371.93 78.14 376.34 78.11 380.76 77.87
  C 392.60 77.23 392.27 60.58 380.03 59.65
  L 367.56 59.57
  Z
  M 372.26 100.43
  C 369.98 103.53 375.59 104.60 377.35 104.58
  C 410.68 104.29 444.01 104.16 477.34 104.20
  C 479.09 104.20 481.14 103.76 480.89 101.66
  C 480.81 101.04 480.46 100.70 479.83 100.63
  C 479.53 100.60 479.29 100.70 479.10 100.94
  C 478.49 101.72 477.71 102.11 476.75 102.11
  C 465.98 102.14 455.22 102.18 444.46 102.21
  L 441.87 102.04
  C 441.64 102.02 441.47 101.80 441.53 101.57
  L 441.73 100.81
  C 441.80 100.55 441.97 100.42 442.24 100.41
  C 452.40 100.14 462.65 100.09 472.98 100.26
  C 474.22 100.28 474.81 99.77 475.98 99.52
  C 476.28 99.45 476.43 99.29 476.44 99.03
  C 476.44 98.86 476.30 98.72 476.13 98.71
  C 451.37 97.68 426.40 98.03 401.61 98.24
  C 392.69 98.32 383.40 97.41 374.51 98.61
  C 373.17 98.79 372.42 99.40 372.26 100.43
  Z
  M 389.51 118.10
  C 388.02 121.65 396.49 121.91 398.57 121.92
  C 426.46 122.00 445.93 121.94 457.00 121.73
  C 458.13 121.71 459.90 121.38 462.30 120.75
  C 462.63 120.66 462.82 120.45 462.86 120.11
  C 462.98 119.13 462.82 118.25 462.39 117.46
  C 462.46 116.90 462.12 116.52 461.37 116.33
  C 459.61 115.86 456.75 115.58 454.53 115.55
  C 446.94 115.43 439.34 115.40 431.75 115.47
  C 418.14 115.59 404.39 114.82 390.84 116.43
  C 390.39 116.48 390.04 116.63 389.81 116.88
  C 389.46 117.27 389.36 117.68 389.51 118.10
  Z
  M 72.47 138.04
  C 72.10 138.03 71.77 138.14 71.47 138.37
  C 71.20 138.58 71.08 138.85 71.10 139.18
  L 71.22 140.98
  C 71.26 141.65 71.98 142.06 72.58 141.76
  C 73.73 141.19 74.75 140.42 75.63 139.47
  C 75.91 139.17 76.26 139.04 76.67 139.07
  C 80.11 139.33 83.09 138.80 83.88 134.99
  C 85.94 124.98 72.17 124.98 72.09 133.13
  C 72.08 134.42 72.81 135.87 73.11 137.24
  C 73.20 137.65 72.89 138.05 72.47 138.04
  Z
  M 160.5296 134.8812
  C 160.52 133.11 159.09 131.69 157.3184 131.6924
  L 95.6788 131.9076
  C 93.91 131.91 92.48 133.35 92.4900 135.1188
  L 92.4904 135.2388
  C 92.50 137.01 93.93 138.43 95.7016 138.4276
  L 157.3412 138.2124
  C 159.11 138.21 160.54 136.77 160.5300 135.0012
  L 160.5296 134.8812
  Z
  M 192.8811 134.3641
  C 192.88 132.88 191.68 131.67 190.1958 131.6694
  L 167.9958 131.6306
  C 166.51 131.63 165.30 132.83 165.3012 134.3159
  L 165.2989 135.6159
  C 165.30 137.10 166.50 138.31 167.9842 138.3106
  L 190.1842 138.3494
  C 191.67 138.35 192.88 137.15 192.8788 135.6641
  L 192.8811 134.3641
  Z
  M 367.31 168.54
  C 370.10 170.46 373.66 171.40 378.00 171.37
  C 408.17 171.15 438.33 171.07 468.50 171.14
  C 473.94 171.15 479.48 171.80 484.28 168.45
  C 492.67 161.79 492.17 147.95 482.18 143.46
  C 480.21 142.57 477.35 142.14 473.59 142.15
  C 430.19 142.32 398.16 142.36 377.50 142.25
  C 374.93 142.24 372.60 142.65 370.52 143.50
  C 367.92 144.56 363.40 149.44 362.40 151.87
  C 360.98 155.35 361.00 158.88 362.46 162.46
  C 363.44 164.86 365.49 166.49 367.31 168.54
  Z"
/>
<path fill="#dde6eb" d="
  M 380.03 59.65
  L 367.56 59.57
  L 380.03 59.65
  Z"
/>
<path fill="#5a95e3" d="
  M 367.56 59.57
  L 380.03 59.65
  C 392.27 60.58 392.60 77.23 380.76 77.87
  C 376.34 78.11 371.93 78.14 367.54 77.97
  C 361.52 77.74 357.32 73.79 358.44 67.51
  C 359.58 61.17 362.10 60.99 367.56 59.57
  Z
  M 386.90 68.48
  C 386.90 64.54 383.71 61.35 379.77 61.35
  C 375.83 61.35 372.64 64.54 372.64 68.48
  C 372.64 72.42 375.83 75.61 379.77 75.61
  C 383.71 75.61 386.90 72.42 386.90 68.48
  Z"
/>
<circle fill="#dde6eb" cx="379.77" cy="68.48" r="7.13"/>
<path fill="#dde6eb" d="
  M 348.49 83.34
  C 349.50 86.81 349.97 90.38 349.88 94.03
  C 349.70 102.21 349.94 110.33 350.03 118.50
  C 350.04 119.66 349.91 120.74 349.64 121.75
  C 349.48 122.34 348.74 122.53 348.32 122.09
  C 347.93 121.69 347.41 121.48 346.75 121.47
  C 319.68 121.11 292.69 121.78 265.67 121.60
  C 242.04 121.44 218.39 121.73 194.76 121.40
  C 177.57 121.15 161.04 121.79 144.19 121.44
  C 127.63 121.11 115.90 121.05 109.00 121.26
  C 96.59 121.65 88.50 121.73 84.75 121.48
  C 75.55 120.89 60.69 119.79 59.56 132.39
  C 59.31 135.16 60.18 137.88 60.79 140.74
  C 59.90 139.83 59.51 139.02 59.62 138.31
  C 59.67 137.95 59.53 137.71 59.18 137.59
  C 59.06 137.55 58.96 137.48 58.88 137.38
  C 58.78 137.25 58.69 137.33 58.60 137.60
  C 58.57 137.70 58.50 137.77 58.41 137.81
  C 58.26 137.88 58.22 138.00 58.30 138.15
  C 58.51 138.52 58.55 138.91 58.42 139.34
  C 58.32 139.65 58.11 139.81 57.79 139.84
  C 57.28 139.88 56.90 140.09 56.64 140.47
  C 56.47 140.72 56.27 140.92 56.03 141.09
  C 55.56 141.42 55.02 141.66 54.43 141.80
  C 54.18 141.86 54.10 142.01 54.21 142.25
  C 54.25 142.33 54.27 142.41 54.28 142.49
  C 54.31 142.80 54.17 142.96 53.86 142.99
  C 53.22 143.04 52.71 142.90 52.33 142.58
  C 52.01 142.31 51.69 142.31 51.37 142.58
  C 50.46 143.33 49.48 143.63 48.41 143.48
  C 48.10 143.43 47.79 143.62 47.68 143.92
  L 47.37 144.75
  C 47.18 145.27 46.92 145.30 46.61 144.85
  C 46.41 144.56 46.20 144.53 45.98 144.76
  C 45.92 144.82 45.91 144.88 45.96 144.95
  C 46.02 145.04 46.03 145.12 45.99 145.19
  C 45.34 146.36 44.59 146.61 43.74 145.95
  C 43.47 145.75 43.35 145.48 43.38 145.15
  C 43.53 143.24 43.26 141.42 42.57 139.71
  C 42.59 127.39 42.70 115.07 42.90 102.75
  C 43.10 90.58 46.01 85.73 59.00 85.33
  C 68.71 85.03 82.13 84.87 99.25 84.84
  C 151.17 84.75 203.09 84.80 255.00 85.00
  C 283.33 85.11 311.67 84.58 340.00 84.51
  C 342.55 84.51 346.31 84.90 348.49 83.34
  Z
  M 68.30 105.62
  C 68.30 103.01 66.19 100.90 63.58 100.90
  C 60.97 100.90 58.86 103.01 58.86 105.62
  C 58.86 108.23 60.97 110.34 63.58 110.34
  C 66.19 110.34 68.30 108.23 68.30 105.62
  Z
  M 95.87 105.76
  C 95.87 103.16 93.76 101.05 91.16 101.05
  C 88.56 101.05 86.45 103.16 86.45 105.76
  C 86.45 108.36 88.56 110.47 91.16 110.47
  C 93.76 110.47 95.87 108.36 95.87 105.76
  Z
  M 82.7748 104.8347
  C 82.24 102.30 79.46 100.74 76.5629 101.3508
  C 73.67 101.96 71.75 104.51 72.2852 107.0453
  C 72.82 109.58 75.60 111.14 78.4971 110.5292
  C 81.39 109.92 83.31 107.37 82.7748 104.8347
  Z"
/>
<path fill="#dde6eb" d="
  M 444.46 102.21
  C 421.39 102.23 398.32 102.21 375.25 102.14
  C 374.06 102.14 373.06 101.57 372.26 100.43
  C 372.42 99.40 373.17 98.79 374.51 98.61
  C 383.40 97.41 392.69 98.32 401.61 98.24
  C 426.40 98.03 451.37 97.68 476.13 98.71
  C 476.30 98.72 476.44 98.86 476.44 99.03
  C 476.43 99.29 476.28 99.45 475.98 99.52
  C 474.81 99.77 474.22 100.28 472.98 100.26
  C 462.65 100.09 452.40 100.14 442.24 100.41
  C 441.97 100.42 441.80 100.55 441.73 100.81
  L 441.53 101.57
  C 441.47 101.80 441.64 102.02 441.87 102.04
  L 444.46 102.21
  Z"
/>
<path fill="#9e9ea2" d="
  M 372.26 100.43
  C 373.06 101.57 374.06 102.14 375.25 102.14
  C 398.32 102.21 421.39 102.23 444.46 102.21
  C 455.22 102.18 465.98 102.14 476.75 102.11
  C 477.71 102.11 478.49 101.72 479.10 100.94
  C 479.29 100.70 479.53 100.60 479.83 100.63
  C 480.46 100.70 480.81 101.04 480.89 101.66
  C 481.14 103.76 479.09 104.20 477.34 104.20
  C 444.01 104.16 410.68 104.29 377.35 104.58
  C 375.59 104.60 369.98 103.53 372.26 100.43
  Z"
/>
<circle fill="#e17065" cx="63.58" cy="105.62" r="4.72"/>
<circle fill="#46e4f0" cx="91.16" cy="105.76" r="4.71"/>
<ellipse fill="#f0d452" cx="0.00" cy="0.00" transform="translate(77.53,105.94) rotate(-11.9)" rx="5.36" ry="4.69"/>
<path fill="#dde6eb" d="
  M 462.39 117.46
  C 462.40 117.57 462.29 117.59 462.08 117.54
  C 461.89 117.49 461.76 117.56 461.69 117.75
  C 461.25 119.04 460.10 119.69 458.25 119.70
  C 430.01 119.92 409.34 119.93 396.25 119.73
  C 394.42 119.70 392.18 119.16 389.51 118.10
  C 389.36 117.68 389.46 117.27 389.81 116.88
  C 390.04 116.63 390.39 116.48 390.84 116.43
  C 404.39 114.82 418.14 115.59 431.75 115.47
  C 439.34 115.40 446.94 115.43 454.53 115.55
  C 456.75 115.58 459.61 115.86 461.37 116.33
  C 462.12 116.52 462.46 116.90 462.39 117.46
  Z"
/>
<path fill="#9e9ea2" d="
  M 462.39 117.46
  C 462.82 118.25 462.98 119.13 462.86 120.11
  C 462.82 120.45 462.63 120.66 462.30 120.75
  C 459.90 121.38 458.13 121.71 457.00 121.73
  C 445.93 121.94 426.46 122.00 398.57 121.92
  C 396.49 121.91 388.02 121.65 389.51 118.10
  C 392.18 119.16 394.42 119.70 396.25 119.73
  C 409.34 119.93 430.01 119.92 458.25 119.70
  C 460.10 119.69 461.25 119.04 461.69 117.75
  C 461.76 117.56 461.89 117.49 462.08 117.54
  C 462.29 117.59 462.40 117.57 462.39 117.46
  Z"
/>
<path fill="#e17065" d="
  M 73.11 137.24
  C 72.81 135.87 72.08 134.42 72.09 133.13
  C 72.17 124.98 85.94 124.98 83.88 134.99
  C 83.09 138.80 80.11 139.33 76.67 139.07
  C 76.26 139.04 75.91 139.17 75.63 139.47
  C 74.75 140.42 73.73 141.19 72.58 141.76
  C 71.98 142.06 71.26 141.65 71.22 140.98
  L 71.10 139.18
  C 71.08 138.85 71.20 138.58 71.47 138.37
  C 71.77 138.14 72.10 138.03 72.47 138.04
  C 72.89 138.05 73.20 137.65 73.11 137.24
  Z
  M 82.12 132.23
  C 82.12 130.78 81.00 129.57 79.54 129.47
  L 77.40 129.32
  C 75.70 129.20 74.29 130.63 74.45 132.34
  L 74.66 134.61
  C 74.79 136.04 75.99 137.13 77.42 137.12
  L 79.36 137.12
  C 80.88 137.11 82.12 135.87 82.12 134.35
  L 82.12 132.23
  Z"
/>
<path fill="#f4f4f4" d="
  M 82.12 132.23
  L 82.12 134.35
  C 82.12 135.87 80.88 137.11 79.36 137.12
  L 77.42 137.12
  C 75.99 137.13 74.79 136.04 74.66 134.61
  L 74.45 132.34
  C 74.29 130.63 75.70 129.20 77.40 129.32
  L 79.54 129.47
  C 81.00 129.57 82.12 130.78 82.12 132.23
  Z"
/>
<rect fill="#f0d452" x="-34.02" y="-3.26" transform="translate(126.51,135.06) rotate(-0.2)" width="68.04" height="6.52" rx="3.20"/>
<rect fill="#f0d452" x="-13.79" y="-3.34" transform="translate(179.09,134.99) rotate(0.1)" width="27.58" height="6.68" rx="2.69"/>
<path fill="#d5dde4" d="
  M 60.79 140.74
  C 62.82 142.85 64.98 144.60 67.27 145.97
  C 68.12 146.48 69.28 146.74 70.75 146.74
  C 102.03 146.83 133.31 146.90 164.59 146.97
  C 172.36 146.98 186.28 147.35 197.16 146.97
  C 203.69 146.73 209.83 147.67 216.23 147.64
  C 236.07 147.55 255.90 147.76 275.74 147.39
  C 292.10 147.08 308.46 146.97 324.83 147.04
  C 331.47 147.07 340.72 148.00 348.77 147.60
  C 349.23 147.58 349.43 147.80 349.38 148.25
  C 349.34 148.60 349.23 148.93 349.05 149.24
  C 348.90 149.50 348.83 149.80 348.84 150.11
  L 349.19 156.66
  C 341.52 157.86 333.28 157.07 325.50 157.12
  C 320.74 157.14 314.15 164.21 314.12 168.50
  C 314.09 171.89 314.10 179.05 314.15 189.97
  C 314.17 194.98 313.88 202.03 314.07 208.08
  C 314.30 215.38 313.67 223.57 314.39 229.75
  C 314.68 232.20 315.08 233.91 315.60 234.87
  C 316.87 237.19 318.47 238.45 320.40 238.66
  C 322.98 239.65 325.76 240.14 328.75 240.13
  C 342.51 240.12 356.53 239.62 370.25 240.06
  C 383.72 240.49 401.56 240.48 423.75 240.03
  C 427.46 239.96 430.53 239.04 432.96 237.28
  C 434.65 235.75 435.52 233.40 435.56 230.24
  C 435.77 214.77 435.80 199.29 435.67 183.79
  C 435.67 183.44 435.50 183.23 435.16 183.15
  L 433.82 182.83
  C 440.38 181.40 447.20 181.22 454.28 182.30
  L 453.19 182.47
  C 452.77 182.54 452.47 182.90 452.46 183.32
  C 451.54 233.48 452.39 283.20 452.45 333.13
  C 452.46 341.34 446.13 346.83 438.25 347.43
  C 432.81 347.84 423.81 348.02 411.25 347.95
  C 335.84 347.56 260.42 347.97 185.00 347.78
  C 179.80 347.77 174.84 347.82 170.11 347.93
  C 168.84 347.96 167.78 348.90 167.59 350.15
  L 166.43 357.79
  C 166.27 358.02 166.07 358.18 165.82 358.27
  C 165.79 357.41 166.01 355.65 166.48 353.00
  C 166.88 350.73 166.53 342.61 163.70 340.34
  C 164.35 340.11 164.86 340.06 165.24 340.19
  C 165.35 340.26 165.40 340.40 165.37 340.62
  C 165.37 340.63 165.37 340.63 165.37 340.63
  C 165.37 340.63 165.37 340.63 165.37 340.63
  C 165.36 340.62 165.36 340.61 165.36 340.60
  C 165.93 337.02 165.29 332.93 165.33 330.13
  C 165.60 310.90 166.36 291.40 165.44 272.21
  C 165.32 269.70 164.73 267.87 163.72 265.73
  C 163.38 265.00 163.18 265.04 163.12 265.84
  L 163.00 267.43
  C 161.27 261.40 155.23 260.79 149.50 260.84
  C 117.91 261.07 86.31 261.16 54.71 261.13
  C 51.67 261.13 46.84 261.61 42.80 260.96
  C 42.47 250.79 42.32 242.81 42.35 237.00
  C 42.52 204.57 42.59 172.14 42.57 139.71
  C 43.26 141.42 43.53 143.24 43.38 145.15
  C 43.35 145.48 43.47 145.75 43.74 145.95
  C 44.59 146.61 45.34 146.36 45.99 145.19
  C 46.03 145.12 46.02 145.04 45.96 144.95
  C 45.91 144.88 45.92 144.82 45.98 144.76
  C 46.20 144.53 46.41 144.56 46.61 144.85
  C 46.92 145.30 47.18 145.27 47.37 144.75
  L 47.68 143.92
  C 47.79 143.62 48.10 143.43 48.41 143.48
  C 49.48 143.63 50.46 143.33 51.37 142.58
  C 51.69 142.31 52.01 142.31 52.33 142.58
  C 52.71 142.90 53.22 143.04 53.86 142.99
  C 54.17 142.96 54.31 142.80 54.28 142.49
  C 54.27 142.41 54.25 142.33 54.21 142.25
  C 54.10 142.01 54.18 141.86 54.43 141.80
  C 55.02 141.66 55.56 141.42 56.03 141.09
  C 56.27 140.92 56.47 140.72 56.64 140.47
  C 56.90 140.09 57.28 139.88 57.79 139.84
  C 58.11 139.81 58.32 139.65 58.42 139.34
  C 58.55 138.91 58.51 138.52 58.30 138.15
  C 58.22 138.00 58.26 137.88 58.41 137.81
  C 58.50 137.77 58.57 137.70 58.60 137.60
  C 58.69 137.33 58.78 137.25 58.88 137.38
  C 58.96 137.48 59.06 137.55 59.18 137.59
  C 59.53 137.71 59.67 137.95 59.62 138.31
  C 59.51 139.02 59.90 139.83 60.79 140.74
  Z
  M 187.36 212.29
  C 187.19 215.27 187.10 218.26 187.10 221.25
  C 187.11 254.92 187.08 288.58 187.01 322.25
  C 187.00 325.37 188.32 328.51 191.30 330.11
  C 193.10 331.07 194.58 331.55 195.75 331.56
  C 228.33 331.63 260.91 331.67 293.50 331.68
  C 297.76 331.68 300.52 331.32 301.77 330.59
  C 305.27 328.56 307.02 325.86 307.01 322.50
  C 306.96 293.67 306.94 264.85 306.95 236.04
  C 307.06 214.32 307.09 192.60 307.03 170.87
  C 307.02 167.16 306.91 164.91 306.72 164.14
  C 305.53 159.34 300.79 156.72 295.75 156.72
  C 263.10 156.77 230.44 156.79 197.77 156.79
  C 195.96 156.79 194.35 157.14 192.94 157.83
  C 189.10 159.71 187.24 162.43 187.17 166.25
  C 186.96 179.60 187.02 194.94 187.36 212.29
  Z
  M 132.54 197.71
  C 132.54 189.97 126.26 183.69 118.52 183.69
  C 110.78 183.69 104.50 189.97 104.50 197.71
  C 104.50 205.45 110.78 211.73 118.52 211.73
  C 126.26 211.73 132.54 205.45 132.54 197.71
  Z
  M 433.06 328.89
  C 434.97 327.48 435.87 324.69 435.78 320.50
  C 435.33 299.65 435.84 282.09 435.34 258.00
  C 435.25 253.65 432.81 251.24 429.05 249.60
  C 426.33 248.41 423.06 248.74 420.02 248.64
  C 402.17 248.44 384.35 248.95 366.51 248.71
  C 353.05 248.52 339.59 248.55 326.13 248.80
  C 316.58 248.98 315.15 255.32 315.20 263.50
  C 315.31 282.21 315.29 300.92 315.14 319.63
  C 315.11 322.87 315.34 325.09 315.83 326.29
  C 317.55 330.57 322.08 332.27 326.50 332.24
  C 359.41 332.05 392.33 332.00 425.25 332.07
  C 428.23 332.08 430.83 331.02 433.06 328.89
  Z"
/>
<path fill="#fd6d5e" d="
  M 484.28 168.45
  C 482.99 167.58 481.34 167.72 479.33 168.87
  C 479.05 169.03 478.74 169.11 478.42 169.11
  C 451.31 169.00 419.26 169.47 381.29 168.98
  C 377.77 168.94 373.60 167.81 369.53 168.06
  C 369.26 168.08 369.00 168.03 368.75 167.90
  C 368.19 167.62 367.62 167.29 367.04 166.91
  C 366.79 166.74 366.49 167.03 366.63 167.29
  L 367.31 168.54
  C 365.49 166.49 363.44 164.86 362.46 162.46
  C 361.00 158.88 360.98 155.35 362.40 151.87
  C 363.40 149.44 367.92 144.56 370.52 143.50
  C 372.60 142.65 374.93 142.24 377.50 142.25
  C 398.16 142.36 430.19 142.32 473.59 142.15
  C 477.35 142.14 480.21 142.57 482.18 143.46
  C 492.17 147.95 492.67 161.79 484.28 168.45
  Z
  M 439.9714 156.0037
  C 439.98 154.36 438.66 153.03 437.0170 153.0182
  L 414.8173 152.9019
  C 413.18 152.89 411.84 154.22 411.8318 155.8563
  L 411.8286 156.4563
  C 411.82 158.10 413.14 159.43 414.7830 159.4418
  L 436.9827 159.5581
  C 438.62 159.57 439.96 158.24 439.9682 156.6037
  L 439.9714 156.0037
  Z"
/>
<rect fill="#f0b24d" x="-14.07" y="-3.27" transform="translate(425.90,156.23) rotate(0.3)" width="28.14" height="6.54" rx="2.97"/>
<path fill="#3f64a4" d="
  M 306.95 236.04
  C 306.77 234.93 306.19 234.16 305.22 233.73
  C 304.87 233.58 304.69 233.31 304.70 232.92
  C 304.71 231.16 303.93 229.82 302.36 228.91
  C 302.27 228.86 302.22 228.78 302.19 228.69
  C 302.16 228.58 302.16 228.49 302.17 228.41
  C 302.20 228.26 302.14 228.17 302.01 228.12
  C 300.48 227.53 299.34 226.53 298.57 225.12
  C 298.40 224.81 298.40 224.49 298.56 224.18
  C 298.99 223.36 298.89 222.58 298.26 221.85
  C 298.04 221.60 297.77 221.43 297.44 221.34
  C 296.26 221.03 295.37 220.66 294.76 220.24
  C 294.48 220.04 294.34 219.81 294.35 219.55
  C 294.35 219.29 294.24 219.09 294.02 218.96
  L 292.87 218.28
  C 292.60 218.12 292.42 217.83 292.41 217.51
  L 292.35 215.24
  C 292.34 215.03 292.17 214.86 291.96 214.85
  C 291.79 214.85 291.68 214.78 291.65 214.63
  C 291.35 213.26 290.98 212.28 291.20 210.80
  C 291.25 210.47 291.14 210.22 290.85 210.05
  C 288.98 208.91 289.37 207.04 287.88 205.45
  C 287.65 205.20 287.49 204.92 287.40 204.59
  L 286.71 202.05
  C 286.68 201.95 286.63 201.88 286.54 201.84
  C 286.41 201.78 286.29 201.73 286.18 201.68
  C 285.95 201.60 285.75 201.47 285.58 201.28
  C 284.55 200.18 283.42 199.19 282.21 198.30
  C 281.94 198.11 281.75 197.86 281.62 197.55
  C 281.27 196.74 280.67 196.22 279.80 196.00
  C 277.92 193.55 275.92 192.91 273.46 191.78
  C 273.17 191.65 272.94 191.46 272.75 191.21
  C 272.10 190.35 271.21 189.82 270.08 189.61
  C 269.77 189.56 269.48 189.45 269.21 189.28
  C 268.26 188.69 267.27 188.21 266.24 187.85
  C 263.70 186.95 261.76 185.41 259.06 184.86
  C 256.62 184.37 254.17 183.17 251.15 184.30
  C 250.03 183.97 248.66 183.85 247.05 183.93
  C 236.06 182.51 221.25 189.97 213.99 198.02
  C 210.22 201.86 207.15 206.53 204.78 212.04
  C 204.55 210.99 204.53 209.94 204.72 208.89
  C 204.75 208.72 204.68 208.64 204.51 208.63
  L 204.13 208.63
  C 203.96 208.63 203.85 208.46 203.90 208.30
  C 204.58 206.25 204.29 204.40 203.02 202.73
  C 202.65 202.24 202.42 201.78 202.35 201.35
  C 202.26 200.82 202.16 200.30 202.05 199.77
  C 201.98 199.45 201.84 199.16 201.64 198.89
  L 200.64 197.58
  C 200.46 197.34 200.37 197.07 200.38 196.76
  C 200.39 196.45 200.27 196.20 200.02 196.03
  C 199.86 195.91 199.63 196.03 199.63 196.23
  C 199.63 196.32 199.63 196.41 199.63 196.50
  C 199.63 196.50 199.59 196.50 199.50 196.50
  C 199.41 196.50 199.31 196.50 199.21 196.51
  C 199.02 196.51 198.98 196.43 199.09 196.28
  C 199.17 196.17 199.19 196.05 199.16 195.94
  C 199.09 195.65 198.90 195.53 198.60 195.58
  C 197.73 195.73 196.91 195.57 196.16 195.09
  C 195.98 194.98 195.75 194.97 195.56 195.06
  C 195.24 195.21 195.09 195.41 195.12 195.68
  C 195.17 196.03 195.02 196.25 194.67 196.33
  C 193.76 196.54 192.88 196.44 192.05 196.05
  C 190.50 195.30 188.69 196.38 188.58 198.10
  L 188.30 202.59
  C 188.28 202.90 188.16 203.17 187.94 203.39
  C 187.75 203.58 187.67 203.78 187.69 203.99
  C 188.01 207.10 187.90 209.87 187.36 212.29
  C 187.02 194.94 186.96 179.60 187.17 166.25
  C 187.24 162.43 189.10 159.71 192.94 157.83
  C 194.35 157.14 195.96 156.79 197.77 156.79
  C 230.44 156.79 263.10 156.77 295.75 156.72
  C 300.79 156.72 305.53 159.34 306.72 164.14
  C 306.91 164.91 307.02 167.16 307.03 170.87
  C 307.09 192.60 307.06 214.32 306.95 236.04
  Z"
/>
<path fill="#fda9d6" d="
  M 349.19 156.66
  C 349.73 165.55 349.91 171.41 349.73 174.25
  C 349.46 178.69 353.70 182.10 357.76 182.29
  C 364.25 182.60 370.74 182.73 377.23 182.70
  C 396.11 182.59 415.01 182.73 433.82 182.83
  L 435.16 183.15
  C 435.50 183.23 435.67 183.44 435.67 183.79
  C 435.80 199.29 435.77 214.77 435.56 230.24
  C 435.52 233.40 434.65 235.75 432.96 237.28
  C 429.66 238.63 426.92 239.34 424.75 239.40
  C 418.58 239.57 409.83 239.55 398.50 239.32
  C 388.30 239.11 380.18 239.33 371.02 239.25
  C 358.77 239.14 344.76 239.26 331.64 239.32
  C 327.98 239.34 324.23 239.12 320.40 238.66
  C 318.47 238.45 316.87 237.19 315.60 234.87
  C 315.08 233.91 314.68 232.20 314.39 229.75
  C 313.67 223.57 314.30 215.38 314.07 208.08
  C 313.88 202.03 314.17 194.98 314.15 189.97
  C 314.10 179.05 314.09 171.89 314.12 168.50
  C 314.15 164.21 320.74 157.14 325.50 157.12
  C 333.28 157.07 341.52 157.86 349.19 156.66
  Z
  M 360.1668 203.6633
  C 362.01 202.48 362.47 199.91 361.2008 197.9252
  C 359.93 195.94 357.40 195.29 355.5532 196.4767
  C 353.71 197.66 353.25 200.23 354.5192 202.2148
  C 355.79 204.20 358.32 204.85 360.1668 203.6633
  Z
  M 374.5703 204.4203
  C 376.78 204.68 378.80 203.02 379.0717 200.7072
  C 379.35 198.39 377.78 196.30 375.5697 196.0397
  C 373.36 195.78 371.34 197.44 371.0683 199.7528
  C 370.79 202.07 372.36 204.16 374.5703 204.4203
  Z
  M 393.0349 204.5329
  C 395.14 204.30 396.62 202.17 396.3561 199.7831
  C 396.09 197.40 394.17 195.65 392.0651 195.8871
  C 389.96 196.12 388.48 198.25 388.7439 200.6369
  C 389.01 203.02 390.93 204.77 393.0349 204.5329
  Z"
/>
<path fill="#e17065" d="
  M 484.28 168.45
  C 479.48 171.80 473.94 171.15 468.50 171.14
  C 438.33 171.07 408.17 171.15 378.00 171.37
  C 373.66 171.40 370.10 170.46 367.31 168.54
  L 366.63 167.29
  C 366.49 167.03 366.79 166.74 367.04 166.91
  C 367.62 167.29 368.19 167.62 368.75 167.90
  C 369.00 168.03 369.26 168.08 369.53 168.06
  C 373.60 167.81 377.77 168.94 381.29 168.98
  C 419.26 169.47 451.31 169.00 478.42 169.11
  C 478.74 169.11 479.05 169.03 479.33 168.87
  C 481.34 167.72 482.99 167.58 484.28 168.45
  Z"
/>
<path fill="#e1dfe9" d="
  M 500.00 180.40
  L 500.00 446.97
  L 476.01 447.16
  C 475.08 447.17 474.32 446.42 474.31 445.48
  C 474.24 433.03 474.25 420.87 474.34 409.00
  C 474.58 375.57 474.16 342.17 474.26 308.76
  C 474.39 267.79 474.19 226.82 473.64 185.86
  C 473.63 184.72 473.57 184.08 473.48 183.94
  C 473.21 183.51 472.64 183.06 471.78 182.57
  L 500.00 180.40
  Z"
/>
<path fill="#f4f4f4" d="
  M 132.54 197.71
  C 132.54 205.45 126.26 211.73 118.52 211.73
  C 110.78 211.73 104.50 205.45 104.50 197.71
  C 104.50 189.97 110.78 183.69 118.52 183.69
  C 126.26 183.69 132.54 189.97 132.54 197.71
  Z
  M 130.3615 198.2757
  C 131.10 192.21 126.77 186.69 120.7016 185.9559
  L 118.5970 185.7012
  C 112.53 184.97 107.01 189.29 106.2772 195.3611
  L 105.9985 197.6643
  C 105.26 203.73 109.59 209.25 115.6584 209.9841
  L 117.7630 210.2388
  C 123.83 210.97 129.35 206.65 130.0828 200.5789
  L 130.3615 198.2757
  Z"
/>
<path fill="#dde6eb" d="
  M 247.05 183.93
  L 246.48 209.56
  L 246.24 209.81
  C 246.05 210.02 245.82 210.13 245.55 210.15
  C 241.32 210.50 237.34 212.29 233.60 215.50
  C 229.34 211.87 225.25 207.94 221.34 203.72
  C 220.22 202.51 219.05 201.49 217.84 200.65
  C 216.57 199.76 215.28 198.89 213.99 198.02
  C 221.25 189.97 236.06 182.51 247.05 183.93
  Z"
/>
<path fill="#5d3f4c" d="
  M 279.80 196.00
  C 281.18 197.84 282.74 199.08 283.77 201.18
  C 285.26 204.21 287.47 206.49 288.69 209.70
  C 289.12 210.83 289.58 211.95 290.07 213.06
  C 292.46 218.53 293.29 225.87 293.57 231.79
  C 293.88 238.19 291.65 244.00 289.28 249.83
  C 288.52 251.70 287.50 253.51 286.22 255.25
  C 284.99 256.93 283.74 258.59 282.46 260.23
  C 279.90 263.50 278.10 264.67 276.11 266.70
  C 273.75 269.11 270.27 270.74 267.30 272.31
  C 258.04 277.23 246.90 277.72 236.41 275.92
  C 234.23 275.54 232.22 274.51 230.03 273.83
  C 228.31 273.29 226.82 272.56 225.57 271.64
  C 223.32 269.99 221.04 268.37 218.74 266.78
  C 216.74 265.39 215.20 263.62 213.35 261.99
  C 212.37 261.14 211.95 259.98 211.13 258.99
  C 206.00 252.78 203.43 247.39 200.86 238.00
  C 200.31 235.98 200.58 233.55 201.67 230.71
  C 203.43 243.71 206.34 251.86 215.18 260.04
  C 217.76 262.42 220.04 264.34 222.03 265.80
  C 228.43 270.52 237.20 272.79 245.03 273.20
  C 250.21 273.46 255.49 271.98 260.50 270.76
  C 264.07 269.89 267.31 268.34 270.22 266.10
  C 270.39 265.97 270.62 265.89 270.93 265.88
  C 271.26 265.87 271.55 265.75 271.80 265.53
  C 273.01 264.46 274.23 263.40 275.44 262.34
  C 278.21 259.92 280.18 256.84 282.41 253.93
  C 283.68 252.26 284.71 250.52 285.49 248.71
  C 287.83 243.22 289.25 239.40 289.76 237.27
  C 290.77 232.96 290.80 227.37 289.86 220.50
  C 289.56 218.32 287.82 214.20 284.63 208.13
  C 284.26 207.42 283.14 205.95 281.28 203.72
  C 281.17 203.59 281.12 203.45 281.13 203.28
  C 281.13 203.19 281.13 203.10 281.12 203.02
  C 281.11 202.87 281.05 202.72 280.94 202.58
  C 279.09 200.25 275.93 196.99 271.45 192.80
  C 270.28 191.71 269.31 191.01 268.52 190.70
  C 268.26 190.60 268.02 190.46 267.81 190.28
  L 265.85 188.64
  C 265.58 188.41 265.26 188.28 264.90 188.24
  C 263.66 188.10 262.44 187.86 261.25 187.51
  C 260.63 187.33 259.90 187.44 259.27 186.85
  C 259.08 186.68 258.85 186.55 258.61 186.48
  L 251.15 184.30
  C 254.17 183.17 256.62 184.37 259.06 184.86
  C 261.76 185.41 263.70 186.95 266.24 187.85
  C 267.27 188.21 268.26 188.69 269.21 189.28
  C 269.48 189.45 269.77 189.56 270.08 189.61
  C 271.21 189.82 272.10 190.35 272.75 191.21
  C 272.94 191.46 273.17 191.65 273.46 191.78
  C 275.92 192.91 277.92 193.55 279.80 196.00
  Z"
/>
<path fill="#f25e51" d="
  M 247.05 183.93
  C 248.66 183.85 250.03 183.97 251.15 184.30
  L 258.61 186.48
  C 258.85 186.55 259.08 186.68 259.27 186.85
  C 259.90 187.44 260.63 187.33 261.25 187.51
  C 262.44 187.86 263.66 188.10 264.90 188.24
  C 265.26 188.28 265.58 188.41 265.85 188.64
  L 267.81 190.28
  C 268.02 190.46 268.26 190.60 268.52 190.70
  C 269.31 191.01 270.28 191.71 271.45 192.80
  C 275.93 196.99 279.09 200.25 280.94 202.58
  C 281.05 202.72 281.11 202.87 281.12 203.02
  C 281.13 203.10 281.13 203.19 281.13 203.28
  C 281.12 203.45 281.17 203.59 281.28 203.72
  C 283.14 205.95 284.26 207.42 284.63 208.13
  C 287.82 214.20 289.56 218.32 289.86 220.50
  C 290.80 227.37 290.77 232.96 289.76 237.27
  C 289.25 239.40 287.83 243.22 285.49 248.71
  C 284.71 250.52 283.68 252.26 282.41 253.93
  C 280.18 256.84 278.21 259.92 275.44 262.34
  C 274.23 263.40 273.01 264.46 271.80 265.53
  C 271.55 265.75 271.26 265.87 270.93 265.88
  C 270.62 265.89 270.39 265.97 270.22 266.10
  C 267.31 268.34 264.07 269.89 260.50 270.76
  C 255.49 271.98 250.21 273.46 245.03 273.20
  C 246.24 273.11 246.84 272.62 246.83 271.75
  C 246.76 263.75 246.88 255.77 247.18 247.82
  C 248.99 247.69 251.02 247.30 253.28 246.64
  C 262.20 244.02 266.24 233.96 265.74 225.25
  C 265.50 220.95 262.61 215.42 259.15 212.74
  C 255.94 210.26 251.01 208.15 246.96 209.91
  C 246.79 209.98 246.68 209.93 246.65 209.74
  C 246.61 209.57 246.55 209.51 246.48 209.56
  L 247.05 183.93
  Z"
/>
<path fill="#d5dde4" d="
  M 130.0828 200.5789
  C 129.35 206.65 123.83 210.97 117.7630 210.2388
  L 115.6584 209.9841
  C 109.59 209.25 105.26 203.73 105.9985 197.6643
  L 106.2772 195.3611
  C 107.01 189.29 112.53 184.97 118.5970 185.7012
  L 120.7016 185.9559
  C 126.77 186.69 131.10 192.21 130.3615 198.2757
  L 130.0828 200.5789
  Z
  M 116.07 197.58
  C 115.14 196.95 114.16 196.89 113.13 197.41
  C 112.34 197.81 112.38 198.08 113.25 198.23
  L 116.53 198.77
  C 116.83 198.82 117.08 199.02 117.20 199.29
  C 117.53 200.06 117.73 200.86 117.80 201.70
  C 117.83 202.10 118.38 202.17 118.51 201.79
  C 118.76 201.04 118.84 200.27 118.73 199.47
  C 118.68 199.09 118.93 198.74 119.30 198.65
  L 122.00 198.00
  C 123.41 197.66 123.48 197.22 122.20 196.67
  C 122.12 196.64 121.45 196.76 120.20 197.05
  C 119.52 197.21 118.89 196.64 118.97 195.95
  L 119.16 194.23
  C 119.19 193.95 119.06 193.67 118.83 193.52
  C 118.48 193.29 118.19 193.37 117.98 193.74
  C 117.48 194.62 117.25 195.68 117.29 196.91
  C 117.31 197.55 116.60 197.94 116.07 197.58
  Z"
/>
<path fill="#f4f4f4" d="
  M 116.07 197.58
  C 116.60 197.94 117.31 197.55 117.29 196.91
  C 117.25 195.68 117.48 194.62 117.98 193.74
  C 118.19 193.37 118.48 193.29 118.83 193.52
  C 119.06 193.67 119.19 193.95 119.16 194.23
  L 118.97 195.95
  C 118.89 196.64 119.52 197.21 120.20 197.05
  C 121.45 196.76 122.12 196.64 122.20 196.67
  C 123.48 197.22 123.41 197.66 122.00 198.00
  L 119.30 198.65
  C 118.93 198.74 118.68 199.09 118.73 199.47
  C 118.84 200.27 118.76 201.04 118.51 201.79
  C 118.38 202.17 117.83 202.10 117.80 201.70
  C 117.73 200.86 117.53 200.06 117.20 199.29
  C 117.08 199.02 116.83 198.82 116.53 198.77
  L 113.25 198.23
  C 112.38 198.08 112.34 197.81 113.13 197.41
  C 114.16 196.89 115.14 196.95 116.07 197.58
  Z"
/>
<path fill="#3a5a94" d="
  M 204.78 212.04
  C 202.88 217.53 201.96 223.28 202.02 229.27
  C 201.79 229.76 201.68 230.24 201.67 230.71
  C 200.58 233.55 200.31 235.98 200.86 238.00
  C 203.43 247.39 206.00 252.78 211.13 258.99
  C 211.95 259.98 212.37 261.14 213.35 261.99
  C 215.20 263.62 216.74 265.39 218.74 266.78
  C 221.04 268.37 223.32 269.99 225.57 271.64
  C 226.82 272.56 228.31 273.29 230.03 273.83
  C 232.22 274.51 234.23 275.54 236.41 275.92
  C 246.90 277.72 258.04 277.23 267.30 272.31
  C 270.27 270.74 273.75 269.11 276.11 266.70
  C 278.10 264.67 279.90 263.50 282.46 260.23
  C 283.74 258.59 284.99 256.93 286.22 255.25
  C 287.50 253.51 288.52 251.70 289.28 249.83
  C 291.65 244.00 293.88 238.19 293.57 231.79
  C 293.29 225.87 292.46 218.53 290.07 213.06
  C 289.58 211.95 289.12 210.83 288.69 209.70
  C 287.47 206.49 285.26 204.21 283.77 201.18
  C 282.74 199.08 281.18 197.84 279.80 196.00
  C 280.67 196.22 281.27 196.74 281.62 197.55
  C 281.75 197.86 281.94 198.11 282.21 198.30
  C 283.42 199.19 284.55 200.18 285.58 201.28
  C 285.75 201.47 285.95 201.60 286.18 201.68
  C 286.29 201.73 286.41 201.78 286.54 201.84
  C 286.63 201.88 286.68 201.95 286.71 202.05
  L 287.40 204.59
  C 287.49 204.92 287.65 205.20 287.88 205.45
  C 289.37 207.04 288.98 208.91 290.85 210.05
  C 291.14 210.22 291.25 210.47 291.20 210.80
  C 290.98 212.28 291.35 213.26 291.65 214.63
  C 291.68 214.78 291.79 214.85 291.96 214.85
  C 292.17 214.86 292.34 215.03 292.35 215.24
  L 292.41 217.51
  C 292.42 217.83 292.60 218.12 292.87 218.28
  L 294.02 218.96
  C 294.24 219.09 294.35 219.29 294.35 219.55
  C 294.34 219.81 294.48 220.04 294.76 220.24
  C 295.37 220.66 296.26 221.03 297.44 221.34
  C 297.77 221.43 298.04 221.60 298.26 221.85
  C 298.89 222.58 298.99 223.36 298.56 224.18
  C 298.40 224.49 298.40 224.81 298.57 225.12
  C 299.34 226.53 300.48 227.53 302.01 228.12
  C 302.14 228.17 302.20 228.26 302.17 228.41
  C 302.16 228.49 302.16 228.58 302.19 228.69
  C 302.22 228.78 302.27 228.86 302.36 228.91
  C 303.93 229.82 304.71 231.16 304.70 232.92
  C 304.69 233.31 304.87 233.58 305.22 233.73
  C 306.19 234.16 306.77 234.93 306.95 236.04
  C 306.94 264.85 306.96 293.67 307.01 322.50
  C 307.02 325.86 305.27 328.56 301.77 330.59
  C 300.52 331.32 297.76 331.68 293.50 331.68
  C 260.91 331.67 228.33 331.63 195.75 331.56
  C 194.58 331.55 193.10 331.07 191.30 330.11
  C 188.32 328.51 187.00 325.37 187.01 322.25
  C 187.08 288.58 187.11 254.92 187.10 221.25
  C 187.10 218.26 187.19 215.27 187.36 212.29
  C 187.90 209.87 188.01 207.10 187.69 203.99
  C 187.67 203.78 187.75 203.58 187.94 203.39
  C 188.16 203.17 188.28 202.90 188.30 202.59
  L 188.58 198.10
  C 188.69 196.38 190.50 195.30 192.05 196.05
  C 192.88 196.44 193.76 196.54 194.67 196.33
  C 195.02 196.25 195.17 196.03 195.12 195.68
  C 195.09 195.41 195.24 195.21 195.56 195.06
  C 195.75 194.97 195.98 194.98 196.16 195.09
  C 196.91 195.57 197.73 195.73 198.60 195.58
  C 198.90 195.53 199.09 195.65 199.16 195.94
  C 199.19 196.05 199.17 196.17 199.09 196.28
  C 198.98 196.43 199.02 196.51 199.21 196.51
  C 199.31 196.50 199.41 196.50 199.50 196.50
  C 199.59 196.50 199.63 196.50 199.63 196.50
  C 199.63 196.41 199.63 196.32 199.63 196.23
  C 199.63 196.03 199.86 195.91 200.02 196.03
  C 200.27 196.20 200.39 196.45 200.38 196.76
  C 200.37 197.07 200.46 197.34 200.64 197.58
  L 201.64 198.89
  C 201.84 199.16 201.98 199.45 202.05 199.77
  C 202.16 200.30 202.26 200.82 202.35 201.35
  C 202.42 201.78 202.65 202.24 203.02 202.73
  C 204.29 204.40 204.58 206.25 203.90 208.30
  C 203.85 208.46 203.96 208.63 204.13 208.63
  L 204.51 208.63
  C 204.68 208.64 204.75 208.72 204.72 208.89
  C 204.53 209.94 204.55 210.99 204.78 212.04
  Z
  M 296.1689 307.3638
  C 296.16 300.53 290.61 295.00 283.7773 295.0154
  L 209.7174 295.1446
  C 202.89 295.16 197.36 300.70 197.3690 307.5362
  L 197.3711 308.7362
  C 197.38 315.57 202.93 321.10 209.7627 321.0846
  L 283.8226 320.9554
  C 290.65 320.94 296.18 315.40 296.1710 308.5638
  L 296.1689 307.3638
  Z"
/>
<ellipse fill="#f4f4f4" cx="0.00" cy="0.00" transform="translate(357.86,200.07) rotate(57.3)" rx="4.27" ry="3.97"/>
<ellipse fill="#f4f4f4" cx="0.00" cy="0.00" transform="translate(375.07,200.23) rotate(96.8)" rx="4.22" ry="4.03"/>
<ellipse fill="#f4f4f4" cx="0.00" cy="0.00" transform="translate(392.55,200.21) rotate(83.6)" rx="4.35" ry="3.83"/>
<path fill="#46e4f0" d="
  M 213.99 198.02
  C 215.28 198.89 216.57 199.76 217.84 200.65
  C 219.05 201.49 220.22 202.51 221.34 203.72
  C 225.25 207.94 229.34 211.87 233.60 215.50
  C 230.29 218.59 228.27 222.64 227.54 227.66
  C 227.50 227.94 227.56 228.20 227.71 228.45
  C 227.95 228.84 228.00 229.35 227.87 229.96
  C 227.86 230.05 227.83 230.05 227.80 229.97
  C 227.76 229.88 227.72 229.78 227.68 229.68
  C 227.59 229.48 227.45 229.32 227.26 229.21
  L 226.70 228.88
  C 224.56 229.06 222.59 229.39 220.42 229.32
  C 214.29 229.13 208.16 229.12 202.02 229.27
  C 201.96 223.28 202.88 217.53 204.78 212.04
  C 207.15 206.53 210.22 201.86 213.99 198.02
  Z"
/>
<path fill="#3a5a94" d="
  M 247.18 247.82
  C 244.45 247.34 241.38 247.20 239.16 246.25
  C 232.45 243.38 228.52 238.12 227.38 230.49
  C 227.32 230.10 227.09 229.57 226.70 228.88
  L 227.26 229.21
  C 227.45 229.32 227.59 229.48 227.68 229.68
  C 227.72 229.78 227.76 229.88 227.80 229.97
  C 227.83 230.05 227.86 230.05 227.87 229.96
  C 228.00 229.35 227.95 228.84 227.71 228.45
  C 227.56 228.20 227.50 227.94 227.54 227.66
  C 228.27 222.64 230.29 218.59 233.60 215.50
  C 237.34 212.29 241.32 210.50 245.55 210.15
  C 245.82 210.13 246.05 210.02 246.24 209.81
  L 246.48 209.56
  C 246.55 209.51 246.61 209.57 246.65 209.74
  C 246.68 209.93 246.79 209.98 246.96 209.91
  C 251.01 208.15 255.94 210.26 259.15 212.74
  C 262.61 215.42 265.50 220.95 265.74 225.25
  C 266.24 233.96 262.20 244.02 253.28 246.64
  C 251.02 247.30 248.99 247.69 247.18 247.82
  Z"
/>
<path fill="#f0b24d" d="
  M 226.70 228.88
  C 227.09 229.57 227.32 230.10 227.38 230.49
  C 228.52 238.12 232.45 243.38 239.16 246.25
  C 241.38 247.20 244.45 247.34 247.18 247.82
  C 246.88 255.77 246.76 263.75 246.83 271.75
  C 246.84 272.62 246.24 273.11 245.03 273.20
  C 237.20 272.79 228.43 270.52 222.03 265.80
  C 220.04 264.34 217.76 262.42 215.18 260.04
  C 206.34 251.86 203.43 243.71 201.67 230.71
  C 201.68 230.24 201.79 229.76 202.02 229.27
  C 208.16 229.12 214.29 229.13 220.42 229.32
  C 222.59 229.39 224.56 229.06 226.70 228.88
  Z"
/>
<path fill="#5d3f4c" d="
  M 432.96 237.28
  C 430.53 239.04 427.46 239.96 423.75 240.03
  C 401.56 240.48 383.72 240.49 370.25 240.06
  C 356.53 239.62 342.51 240.12 328.75 240.13
  C 325.76 240.14 322.98 239.65 320.40 238.66
  C 324.23 239.12 327.98 239.34 331.64 239.32
  C 344.76 239.26 358.77 239.14 371.02 239.25
  C 380.18 239.33 388.30 239.11 398.50 239.32
  C 409.83 239.55 418.58 239.57 424.75 239.40
  C 426.92 239.34 429.66 238.63 432.96 237.28
  Z"
/>
<path fill="#e17065" d="
  M 420.02 248.64
  L 398.63 248.77
  C 398.54 248.77 398.47 248.80 398.40 248.85
  C 398.33 248.91 398.26 248.97 398.20 249.02
  C 398.16 249.05 398.12 249.06 398.07 249.07
  C 394.38 249.28 390.69 249.38 387.00 249.37
  C 386.35 249.37 386.30 249.51 386.83 249.78
  C 386.93 249.83 387.05 249.85 387.19 249.86
  C 387.32 249.87 387.33 249.90 387.20 249.94
  C 386.99 250.01 386.77 250.10 386.56 250.21
  C 386.34 250.34 386.13 250.41 385.94 250.44
  C 382.17 251.03 378.88 249.73 375.17 251.30
  C 374.98 251.38 374.89 251.61 374.97 251.80
  C 376.15 254.55 376.75 257.45 376.78 260.51
  C 376.89 272.20 376.96 283.89 376.99 295.58
  C 376.99 297.00 376.38 298.72 376.57 300.26
  C 376.87 302.62 376.97 304.64 376.88 306.33
  L 375.29 299.01
  C 375.28 285.20 375.29 271.36 375.33 257.50
  C 375.33 256.74 375.09 255.86 374.61 254.85
  C 374.46 254.54 374.21 254.36 373.87 254.31
  C 372.50 254.10 371.37 254.00 370.50 253.99
  C 359.23 253.88 344.57 253.87 326.50 253.98
  C 324.87 253.99 323.53 254.15 322.49 254.45
  C 322.14 254.56 321.87 254.83 321.77 255.18
  C 321.28 256.93 321.04 258.87 321.03 261.00
  C 321.00 276.59 321.08 289.74 321.29 300.45
  L 321.53 321.79
  C 321.41 322.66 321.42 323.42 321.55 324.07
  C 321.77 325.11 322.67 325.86 323.73 325.89
  C 341.51 326.36 359.06 326.30 376.37 325.69
  C 375.14 326.61 375.21 327.80 376.58 329.25
  C 376.80 329.48 377.10 329.62 377.41 329.63
  C 379.95 329.74 382.41 330.53 384.78 330.58
  C 392.19 330.75 399.59 330.66 407.00 330.33
  C 408.38 330.27 409.47 330.90 410.69 330.89
  C 413.66 330.86 416.63 330.76 419.60 330.59
  C 420.60 330.53 421.24 331.30 422.22 331.35
  C 425.63 331.52 429.24 330.70 433.06 328.89
  C 430.83 331.02 428.23 332.08 425.25 332.07
  C 392.33 332.00 359.41 332.05 326.50 332.24
  C 322.08 332.27 317.55 330.57 315.83 326.29
  C 315.34 325.09 315.11 322.87 315.14 319.63
  C 315.29 300.92 315.31 282.21 315.20 263.50
  C 315.15 255.32 316.58 248.98 326.13 248.80
  C 339.59 248.55 353.05 248.52 366.51 248.71
  C 384.35 248.95 402.17 248.44 420.02 248.64
  Z"
/>
<path fill="#fd6d5e" d="
  M 420.02 248.64
  C 423.06 248.74 426.33 248.41 429.05 249.60
  C 432.81 251.24 435.25 253.65 435.34 258.00
  C 435.84 282.09 435.33 299.65 435.78 320.50
  C 435.87 324.69 434.97 327.48 433.06 328.89
  C 429.24 330.70 425.63 331.52 422.22 331.35
  C 421.24 331.30 420.60 330.53 419.60 330.59
  C 416.63 330.76 413.66 330.86 410.69 330.89
  C 409.47 330.90 408.38 330.27 407.00 330.33
  C 399.59 330.66 392.19 330.75 384.78 330.58
  C 382.41 330.53 379.95 329.74 377.41 329.63
  C 377.10 329.62 376.80 329.48 376.58 329.25
  C 375.21 327.80 375.14 326.61 376.37 325.69
  C 377.78 319.35 376.98 312.74 376.88 306.33
  C 376.97 304.64 376.87 302.62 376.57 300.26
  C 376.38 298.72 376.99 297.00 376.99 295.58
  C 376.96 283.89 376.89 272.20 376.78 260.51
  C 376.75 257.45 376.15 254.55 374.97 251.80
  C 374.89 251.61 374.98 251.38 375.17 251.30
  C 378.88 249.73 382.17 251.03 385.94 250.44
  C 386.13 250.41 386.34 250.34 386.56 250.21
  C 386.77 250.10 386.99 250.01 387.20 249.94
  C 387.33 249.90 387.32 249.87 387.19 249.86
  C 387.05 249.85 386.93 249.83 386.83 249.78
  C 386.30 249.51 386.35 249.37 387.00 249.37
  C 390.69 249.38 394.38 249.28 398.07 249.07
  C 398.12 249.06 398.16 249.05 398.20 249.02
  C 398.26 248.97 398.33 248.91 398.40 248.85
  C 398.47 248.80 398.54 248.77 398.63 248.77
  L 420.02 248.64
  Z
  M 399.10 307.28
  C 397.52 311.33 398.58 314.63 401.09 317.84
  C 402.30 319.39 403.75 320.61 405.44 321.48
  C 411.33 324.53 419.32 323.73 423.43 318.03
  C 426.07 314.36 425.99 309.76 425.38 305.07
  C 423.86 302.02 422.39 298.37 418.98 296.93
  C 412.48 294.17 403.79 294.56 400.62 302.02
  C 399.90 303.71 399.39 305.47 399.10 307.28
  Z"
/>
<path fill="#f4f4f4" d="
  M 375.29 299.01
  C 375.86 302.76 375.76 306.35 374.99 309.80
  C 373.26 307.12 371.61 304.65 370.04 302.39
  C 367.68 298.98 365.12 294.33 361.39 290.77
  C 361.25 290.63 361.02 290.66 360.90 290.82
  L 354.17 300.73
  L 338.60 275.33
  C 338.30 274.84 337.58 274.83 337.27 275.32
  L 321.29 300.45
  C 321.08 289.74 321.00 276.59 321.03 261.00
  C 321.04 258.87 321.28 256.93 321.77 255.18
  C 321.87 254.83 322.14 254.56 322.49 254.45
  C 323.53 254.15 324.87 253.99 326.50 253.98
  C 344.57 253.87 359.23 253.88 370.50 253.99
  C 371.37 254.00 372.50 254.10 373.87 254.31
  C 374.21 254.36 374.46 254.54 374.61 254.85
  C 375.09 255.86 375.33 256.74 375.33 257.50
  C 375.29 271.36 375.28 285.20 375.29 299.01
  Z
  M 369.80 270.01
  C 369.80 265.19 365.89 261.28 361.07 261.28
  C 356.25 261.28 352.34 265.19 352.34 270.01
  C 352.34 274.83 356.25 278.74 361.07 278.74
  C 365.89 278.74 369.80 274.83 369.80 270.01
  Z"
/>
<path fill="#f4f4f4" d="
  M 42.80 260.96
  C 46.84 261.61 51.67 261.13 54.71 261.13
  C 86.31 261.16 117.91 261.07 149.50 260.84
  C 155.23 260.79 161.27 261.40 163.00 267.43
  C 163.36 269.75 164.00 271.97 164.10 274.23
  C 164.39 280.36 164.23 286.68 164.35 292.60
  C 164.43 296.29 164.40 299.50 164.25 302.25
  C 163.88 309.30 163.91 315.97 164.32 322.28
  C 164.67 327.60 164.25 334.23 165.24 340.19
  C 164.86 340.06 164.35 340.11 163.70 340.34
  C 160.41 335.06 157.57 333.82 152.91 331.35
  C 152.60 331.18 152.44 330.93 152.43 330.58
  C 152.14 322.08 152.14 313.61 152.42 305.17
  C 152.49 303.28 152.04 301.42 151.71 299.61
  C 151.26 297.06 145.33 295.77 143.25 295.71
  C 127.82 295.32 110.17 295.59 97.01 295.56
  C 72.54 295.52 48.08 295.60 23.62 295.81
  C 18.69 295.85 13.72 297.75 13.48 303.50
  C 12.50 326.72 13.36 350.10 13.32 373.35
  C 13.31 378.02 13.67 382.42 14.11 386.93
  C 13.62 389.49 13.36 392.01 13.31 394.50
  C 13.14 405.33 13.14 416.17 13.33 427.00
  C 13.43 432.93 17.86 434.22 22.75 434.22
  C 63.00 434.25 103.25 434.19 143.50 434.02
  C 147.12 434.01 152.24 432.58 152.30 428.25
  C 152.38 422.40 152.36 412.81 152.24 399.47
  L 152.14 372.53
  C 152.14 372.05 152.42 371.61 152.86 371.42
  C 158.20 369.03 164.41 364.20 165.82 358.27
  C 166.07 358.18 166.27 358.02 166.43 357.79
  L 166.10 364.26
  C 165.46 366.47 165.34 368.75 165.74 371.10
  C 165.98 372.57 165.09 374.16 165.11 375.77
  C 165.19 382.52 164.49 389.63 165.20 396.30
  C 165.40 398.19 165.16 400.21 165.45 402.02
  C 165.49 402.29 165.44 402.53 165.31 402.76
  C 165.18 402.98 165.11 403.22 165.12 403.48
  L 165.34 420.06
  C 165.53 425.06 165.54 430.08 165.39 435.13
  C 165.24 440.07 163.88 445.19 157.75 445.22
  C 108.24 445.46 58.76 445.44 9.25 445.29
  C 5.93 445.28 1.87 444.48 1.98 440.50
  C 3.01 402.81 2.38 365.19 2.15 327.50
  C 2.05 310.93 2.53 293.68 2.46 276.75
  C 2.42 264.84 9.36 265.03 19.25 264.94
  C 25.20 264.89 31.70 264.45 38.73 263.64
  C 41.19 263.36 42.55 262.47 42.80 260.96
  Z
  M 151.19 281.90
  C 151.26 283.03 150.49 284.04 149.38 284.26
  C 146.64 284.81 144.21 284.25 142.09 282.56
  C 141.66 282.22 141.52 282.31 141.69 282.84
  C 142.84 286.48 152.78 288.18 153.15 282.15
  C 153.26 280.34 152.11 278.12 151.47 276.27
  C 151.44 276.17 151.37 276.12 151.26 276.12
  C 151.17 276.12 151.07 276.12 150.98 276.11
  C 150.88 276.11 150.83 276.16 150.84 276.25
  L 151.19 281.90
  Z"
/>
<circle fill="#f0d452" cx="361.07" cy="270.01" r="8.73"/>
<path fill="#9e9ea2" d="
  M 165.24 340.19
  C 164.25 334.23 164.67 327.60 164.32 322.28
  C 163.91 315.97 163.88 309.30 164.25 302.25
  C 164.40 299.50 164.43 296.29 164.35 292.60
  C 164.23 286.68 164.39 280.36 164.10 274.23
  C 164.00 271.97 163.36 269.75 163.00 267.43
  L 163.12 265.84
  C 163.18 265.04 163.38 265.00 163.72 265.73
  C 164.73 267.87 165.32 269.70 165.44 272.21
  C 166.36 291.40 165.60 310.90 165.33 330.13
  C 165.29 332.93 165.93 337.02 165.36 340.60
  C 165.36 340.61 165.36 340.62 165.37 340.63
  C 165.37 340.63 165.37 340.63 165.37 340.63
  C 165.37 340.63 165.37 340.63 165.37 340.62
  C 165.40 340.40 165.35 340.26 165.24 340.19
  Z"
/>
<path fill="#5a95e3" d="
  M 354.17 300.73
  L 369.04 324.75
  C 354.05 325.08 339.13 324.96 324.27 324.40
  C 322.66 324.34 321.47 323.44 321.53 321.79
  L 321.29 300.45
  L 337.27 275.32
  C 337.58 274.83 338.30 274.84 338.60 275.33
  L 354.17 300.73
  Z"
/>
<path fill="#9e9ea2" d="
  M 151.19 281.90
  L 150.84 276.25
  C 150.83 276.16 150.88 276.11 150.98 276.11
  C 151.07 276.12 151.17 276.12 151.26 276.12
  C 151.37 276.12 151.44 276.17 151.47 276.27
  C 152.11 278.12 153.26 280.34 153.15 282.15
  C 152.78 288.18 142.84 286.48 141.69 282.84
  C 141.52 282.31 141.66 282.22 142.09 282.56
  C 144.21 284.25 146.64 284.81 149.38 284.26
  C 150.49 284.04 151.26 283.03 151.19 281.90
  Z"
/>
<path fill="#46e4f0" d="
  M 374.99 309.80
  C 375.49 313.62 375.50 317.99 375.03 322.92
  C 374.97 323.49 374.64 323.99 374.14 324.25
  C 372.64 325.04 370.94 325.21 369.04 324.75
  L 354.17 300.73
  L 360.90 290.82
  C 361.02 290.66 361.25 290.63 361.39 290.77
  C 365.12 294.33 367.68 298.98 370.04 302.39
  C 371.61 304.65 373.26 307.12 374.99 309.80
  Z"
/>
<rect fill="#46e4f0" x="-49.40" y="-12.97" transform="translate(246.77,308.05) rotate(-0.1)" width="98.80" height="25.94" rx="12.37"/>
<path fill="#eeb0db" d="
  M 151.71 299.61
  L 150.91 299.20
  C 150.52 299.01 150.36 299.12 150.43 299.54
  C 151.93 309.37 151.12 320.27 151.12 330.24
  C 151.13 330.51 150.89 330.71 150.63 330.67
  C 145.48 329.89 140.45 330.52 135.54 332.57
  C 135.24 331.87 135.65 331.35 136.78 331.00
  C 137.23 330.86 137.50 330.56 137.59 330.11
  C 138.65 324.91 136.33 317.11 131.75 314.37
  C 129.34 312.93 127.03 311.56 124.21 311.18
  C 115.59 310.02 112.19 311.34 106.63 317.64
  C 105.59 318.82 105.13 320.76 105.25 323.47
  C 105.26 323.70 105.16 323.85 104.93 323.92
  C 104.74 323.99 104.63 324.16 104.61 324.44
  C 104.26 329.85 104.14 334.65 108.74 338.77
  C 110.76 340.57 113.31 341.89 116.39 342.72
  C 120.52 343.83 123.53 342.28 127.18 341.72
  C 123.23 348.78 124.31 357.39 129.06 363.95
  C 134.17 371.01 141.46 372.67 150.01 372.13
  C 150.64 372.09 151.18 372.60 151.17 373.24
  L 150.72 399.51
  C 149.85 400.01 149.09 399.68 148.45 398.53
  C 146.98 395.86 145.40 393.60 143.72 391.74
  C 136.46 383.71 129.53 375.06 122.27 366.45
  C 121.71 365.77 120.68 365.75 120.07 366.39
  L 100.98 386.66
  C 90.78 373.67 80.91 361.06 71.38 348.85
  C 67.00 343.24 62.74 337.53 58.61 331.72
  C 57.55 330.23 56.27 329.25 54.93 328.10
  C 54.78 327.97 54.55 328.00 54.44 328.17
  L 14.11 386.93
  C 13.67 382.42 13.31 378.02 13.32 373.35
  C 13.36 350.10 12.50 326.72 13.48 303.50
  C 13.72 297.75 18.69 295.85 23.62 295.81
  C 48.08 295.60 72.54 295.52 97.01 295.56
  C 110.17 295.59 127.82 295.32 143.25 295.71
  C 145.33 295.77 151.26 297.06 151.71 299.61
  Z"
/>
<path fill="#5a95e3" d="
  M 425.38 305.07
  C 425.60 307.92 425.25 310.27 424.33 312.10
  C 423.57 313.62 422.93 315.40 421.92 316.43
  C 417.47 320.94 412.21 321.83 406.13 319.10
  C 401.08 316.83 398.74 312.89 399.10 307.28
  C 399.39 305.47 399.90 303.71 400.62 302.02
  C 403.79 294.56 412.48 294.17 418.98 296.93
  C 422.39 298.37 423.86 302.02 425.38 305.07
  Z
  M 414.16 307.75
  C 411.71 307.54 409.49 307.49 407.50 307.58
  C 407.27 307.59 407.12 307.68 407.05 307.85
  C 406.91 308.17 407.01 308.37 407.35 308.45
  C 409.46 308.94 411.69 308.89 414.04 308.32
  C 414.47 309.98 413.87 311.29 412.24 312.24
  C 412.09 312.33 412.07 312.44 412.16 312.58
  L 412.42 312.98
  C 412.55 313.17 412.70 313.19 412.88 313.04
  L 417.44 309.11
  C 418.09 308.55 417.91 307.49 417.11 307.18
  C 415.37 306.51 414.13 305.32 413.38 303.63
  C 413.33 303.50 413.17 303.44 413.04 303.50
  L 412.77 303.62
  C 412.67 303.67 412.63 303.79 412.67 303.89
  L 414.16 307.75
  Z"
/>
<path fill="#7736ea" d="
  M 151.71 299.61
  C 152.04 301.42 152.49 303.28 152.42 305.17
  C 152.14 313.61 152.14 322.08 152.43 330.58
  C 152.44 330.93 152.60 331.18 152.91 331.35
  C 157.57 333.82 160.41 335.06 163.70 340.34
  C 166.53 342.61 166.88 350.73 166.48 353.00
  C 166.01 355.65 165.79 357.41 165.82 358.27
  C 164.41 364.20 158.20 369.03 152.86 371.42
  C 152.42 371.61 152.14 372.05 152.14 372.53
  L 152.24 399.47
  C 152.13 398.94 151.95 398.61 151.70 398.47
  C 151.48 398.35 151.20 398.49 151.17 398.74
  C 151.13 399.07 150.98 399.32 150.72 399.51
  L 151.17 373.24
  C 151.18 372.60 150.64 372.09 150.01 372.13
  C 141.46 372.67 134.17 371.01 129.06 363.95
  C 124.31 357.39 123.23 348.78 127.18 341.72
  C 129.57 338.11 132.36 335.06 135.54 332.57
  C 140.45 330.52 145.48 329.89 150.63 330.67
  C 150.89 330.71 151.13 330.51 151.12 330.24
  C 151.12 320.27 151.93 309.37 150.43 299.54
  C 150.36 299.12 150.52 299.01 150.91 299.20
  L 151.71 299.61
  Z
  M 152.21 362.70
  C 154.04 362.53 155.42 361.66 156.35 360.09
  C 161.22 351.80 160.07 345.01 152.90 339.73
  C 148.95 338.21 145.27 337.88 141.86 338.74
  C 136.91 340.00 133.32 344.27 132.66 349.27
  C 131.74 356.08 135.59 362.32 142.45 364.32
  C 146.12 365.39 149.37 364.85 152.21 362.70
  Z"
/>
<path fill="#5d3f4c" d="
  M 375.29 299.01
  L 376.88 306.33
  C 376.98 312.74 377.78 319.35 376.37 325.69
  C 359.06 326.30 341.51 326.36 323.73 325.89
  C 322.67 325.86 321.77 325.11 321.55 324.07
  C 321.42 323.42 321.41 322.66 321.53 321.79
  C 321.47 323.44 322.66 324.34 324.27 324.40
  C 339.13 324.96 354.05 325.08 369.04 324.75
  C 370.94 325.21 372.64 325.04 374.14 324.25
  C 374.64 323.99 374.97 323.49 375.03 322.92
  C 375.50 317.99 375.49 313.62 374.99 309.80
  C 375.76 306.35 375.86 302.76 375.29 299.01
  Z"
/>
<path fill="#f4f4f4" d="
  M 414.04 308.32
  C 413.87 307.53 413.91 307.34 414.16 307.75
  L 412.67 303.89
  C 412.63 303.79 412.67 303.67 412.77 303.62
  L 413.04 303.50
  C 413.17 303.44 413.33 303.50 413.38 303.63
  C 414.13 305.32 415.37 306.51 417.11 307.18
  C 417.91 307.49 418.09 308.55 417.44 309.11
  L 412.88 313.04
  C 412.70 313.19 412.55 313.17 412.42 312.98
  L 412.16 312.58
  C 412.07 312.44 412.09 312.33 412.24 312.24
  C 413.87 311.29 414.47 309.98 414.04 308.32
  Z"
/>
<path fill="#5d3f4c" d="
  M 425.38 305.07
  C 425.99 309.76 426.07 314.36 423.43 318.03
  C 419.32 323.73 411.33 324.53 405.44 321.48
  C 403.75 320.61 402.30 319.39 401.09 317.84
  C 398.58 314.63 397.52 311.33 399.10 307.28
  C 398.74 312.89 401.08 316.83 406.13 319.10
  C 412.21 321.83 417.47 320.94 421.92 316.43
  C 422.93 315.40 423.57 313.62 424.33 312.10
  C 425.25 310.27 425.60 307.92 425.38 305.07
  Z"
/>
<path fill="#dde6eb" d="
  M 414.16 307.75
  C 413.91 307.34 413.87 307.53 414.04 308.32
  C 411.69 308.89 409.46 308.94 407.35 308.45
  C 407.01 308.37 406.91 308.17 407.05 307.85
  C 407.12 307.68 407.27 307.59 407.50 307.58
  C 409.49 307.49 411.71 307.54 414.16 307.75
  Z"
/>
<path fill="#f0d452" d="
  M 135.54 332.57
  C 132.36 335.06 129.57 338.11 127.18 341.72
  C 123.53 342.28 120.52 343.83 116.39 342.72
  C 113.31 341.89 110.76 340.57 108.74 338.77
  C 104.14 334.65 104.26 329.85 104.61 324.44
  C 104.63 324.16 104.74 323.99 104.93 323.92
  C 105.16 323.85 105.26 323.70 105.25 323.47
  C 105.13 320.76 105.59 318.82 106.63 317.64
  C 112.19 311.34 115.59 310.02 124.21 311.18
  C 127.03 311.56 129.34 312.93 131.75 314.37
  C 136.33 317.11 138.65 324.91 137.59 330.11
  C 137.50 330.56 137.23 330.86 136.78 331.00
  C 135.65 331.35 135.24 331.87 135.54 332.57
  Z"
/>
<path fill="#466cb3" d="
  M 100.98 386.66
  C 101.33 387.21 102.03 388.13 103.07 389.44
  C 113.30 402.31 123.28 415.37 132.99 428.64
  C 133.82 429.77 134.93 432.69 137.00 432.79
  C 140.02 432.94 150.74 434.41 151.08 428.75
  C 151.63 419.66 151.52 410.57 150.75 401.49
  C 150.69 400.80 150.68 400.14 150.72 399.51
  C 150.98 399.32 151.13 399.07 151.17 398.74
  C 151.20 398.49 151.48 398.35 151.70 398.47
  C 151.95 398.61 152.13 398.94 152.24 399.47
  C 152.36 412.81 152.38 422.40 152.30 428.25
  C 152.24 432.58 147.12 434.01 143.50 434.02
  C 103.25 434.19 63.00 434.25 22.75 434.22
  C 17.86 434.22 13.43 432.93 13.33 427.00
  C 13.14 416.17 13.14 405.33 13.31 394.50
  C 13.36 392.01 13.62 389.49 14.11 386.93
  L 54.44 328.17
  C 54.55 328.00 54.78 327.97 54.93 328.10
  C 56.27 329.25 57.55 330.23 58.61 331.72
  C 62.74 337.53 67.00 343.24 71.38 348.85
  C 80.91 361.06 90.78 373.67 100.98 386.66
  Z"
/>
<path fill="#eeb0db" d="
  M 152.90 339.73
  C 152.47 341.38 152.32 343.01 152.45 344.62
  C 152.85 349.42 152.90 353.32 152.55 356.99
  C 152.30 359.58 152.19 361.48 152.21 362.70
  C 149.37 364.85 146.12 365.39 142.45 364.32
  C 135.59 362.32 131.74 356.08 132.66 349.27
  C 133.32 344.27 136.91 340.00 141.86 338.74
  C 145.27 337.88 148.95 338.21 152.90 339.73
  Z"
/>
<path fill="#f4f4f4" d="
  M 152.90 339.73
  C 160.07 345.01 161.22 351.80 156.35 360.09
  C 155.42 361.66 154.04 362.53 152.21 362.70
  C 152.19 361.48 152.30 359.58 152.55 356.99
  C 152.90 353.32 152.85 349.42 152.45 344.62
  C 152.32 343.01 152.47 341.38 152.90 339.73
  Z"
/>
<path fill="#9e9ea2" d="
  M 166.10 364.26
  L 165.81 383.61
  C 165.10 386.96 165.05 390.46 165.68 394.11
  L 165.34 420.06
  L 165.12 403.48
  C 165.11 403.22 165.18 402.98 165.31 402.76
  C 165.44 402.53 165.49 402.29 165.45 402.02
  C 165.16 400.21 165.40 398.19 165.20 396.30
  C 164.49 389.63 165.19 382.52 165.11 375.77
  C 165.09 374.16 165.98 372.57 165.74 371.10
  C 165.34 368.75 165.46 366.47 166.10 364.26
  Z"
/>
<path fill="#5a95e3" d="
  M 150.72 399.51
  C 150.68 400.14 150.69 400.80 150.75 401.49
  C 151.52 410.57 151.63 419.66 151.08 428.75
  C 150.74 434.41 140.02 432.94 137.00 432.79
  C 134.93 432.69 133.82 429.77 132.99 428.64
  C 123.28 415.37 113.30 402.31 103.07 389.44
  C 102.03 388.13 101.33 387.21 100.98 386.66
  L 120.07 366.39
  C 120.68 365.75 121.71 365.77 122.27 366.45
  C 129.53 375.06 136.46 383.71 143.72 391.74
  C 145.40 393.60 146.98 395.86 148.45 398.53
  C 149.09 399.68 149.85 400.01 150.72 399.51
  Z"
/>
<path fill="#5d3f4c" d="
  M 165.81 383.61
  L 165.68 394.11
  C 165.05 390.46 165.10 386.96 165.81 383.61
  Z"
/>
</svg>
