<?xml version="1.0" encoding="UTF-8" standalone="no"?>
<!DOCTYPE svg PUBLIC "-//W3C//DTD SVG 1.1//EN" "http://www.w3.org/Graphics/SVG/1.1/DTD/svg11.dtd">
<svg xmlns="http://www.w3.org/2000/svg" version="1.1" viewBox="0.00 0.00 500.00 500.00">
<g stroke-width="2.00" fill="none" stroke-linecap="butt">
<path stroke="#8cbde9" vector-effect="non-scaling-stroke" d="
  M 500.00 214.14
  C 497.55 214.29 495.10 214.47 492.65 214.67
  C 490.28 214.86 487.87 215.26 485.40 215.85
  C 470.92 219.35 456.44 223.13 441.88 226.26
  C 437.41 227.22 432.85 226.69 428.17 226.73
  C 426.18 226.75 424.53 226.17 422.59 225.83
  C 416.70 224.80 411.54 220.01 408.36 215.15
  C 408.18 214.88 407.93 214.74 407.60 214.74
  C 403.94 214.73 402.33 214.38 401.83 218.61
  C 401.26 223.40 399.54 227.72 396.67 231.57
  C 394.13 234.97 388.30 232.74 389.16 228.50
  C 389.94 224.69 390.47 220.84 390.76 216.97
  C 391.07 212.84 390.17 207.81 390.51 203.09
  C 390.59 201.99 389.98 200.83 389.91 199.79
  C 389.86 198.97 389.09 198.40 388.30 198.60
  C 383.72 199.77 383.04 202.06 381.63 206.26
  C 381.09 207.86 380.80 209.63 380.76 211.56
  C 380.65 216.62 380.16 221.25 381.07 226.41
  C 381.59 229.43 381.48 237.15 376.87 237.04
  C 374.99 236.99 374.11 235.35 373.43 233.83
  C 373.36 233.67 373.34 233.50 373.36 233.33
  L 373.85 229.16
  C 373.89 228.85 373.81 228.58 373.62 228.34
  C 371.03 225.08 372.54 219.31 373.30 215.85
  C 373.98 212.80 373.17 210.93 371.67 208.48
  C 371.50 208.19 371.24 208.00 370.90 207.93
  C 359.55 205.51 361.71 217.03 361.58 223.57
  C 361.51 226.95 360.25 229.78 359.41 233.04
  C 358.84 235.22 357.79 236.09 355.61 236.14
  C 352.03 236.23 350.97 232.18 350.86 229.26
  C 350.46 219.19 351.42 209.98 353.74 201.63
  C 354.91 197.43 350.02 197.53 347.48 197.67
  C 342.90 197.91 341.46 203.60 341.24 207.26
  C 340.99 211.41 340.53 215.55 339.84 219.67
  C 339.24 223.36 340.15 226.40 340.29 230.12
  C 340.30 230.51 340.13 230.76 339.77 230.89
  C 337.14 231.85 334.54 231.83 331.97 230.82
  C 331.20 230.52 330.75 229.70 330.92 228.89
  C 331.45 226.27 331.94 223.47 332.40 220.49
  C 332.67 218.74 331.47 217.28 331.51 215.38
  C 331.58 212.60 331.94 210.49 330.49 207.92
  C 329.32 205.83 328.53 203.67 326.61 202.19
  C 323.35 199.67 320.37 197.77 316.02 197.68
  C 311.82 197.60 308.23 198.19 305.50 200.26
  C 301.55 203.25 295.75 209.76 295.72 215.30
  C 295.70 219.72 295.71 224.16 295.74 228.61
  C 295.76 232.43 293.75 235.23 290.49 236.64
  C 289.01 237.29 287.28 236.57 286.70 235.05
  C 285.93 233.02 284.98 231.18 284.97 228.89
  C 284.97 216.59 285.98 205.91 286.79 194.41
  C 286.88 193.14 287.16 191.05 287.64 188.14
  C 288.31 184.05 287.87 180.34 288.93 176.28
  C 290.31 171.01 290.19 165.39 291.21 160.58
  C 292.02 156.75 296.96 143.50 290.75 142.91
  C 287.56 142.60 285.15 143.58 283.51 145.83
  C 281.38 148.76 282.52 152.99 281.65 155.88
  C 280.06 161.15 279.16 164.82 278.94 166.89
  C 278.21 173.78 277.46 180.67 276.69 187.56
  C 276.49 189.36 275.50 191.72 275.53 193.25
  C 275.80 204.39 273.02 215.76 274.27 226.01
  C 274.69 229.46 273.53 231.81 270.80 233.06
  C 268.59 234.08 266.62 232.97 264.55 232.11
  C 260.38 230.39 256.88 223.90 254.08 221.92
  C 250.74 219.56 247.76 223.10 249.37 226.41
  C 252.58 233.07 256.04 239.77 257.37 246.88
  C 258.36 252.15 258.85 257.48 258.86 262.87
  C 258.87 265.74 259.81 269.12 259.69 272.39
  C 259.54 276.86 259.50 281.34 259.58 285.81
  C 259.60 287.12 258.98 288.49 258.95 289.50
  C 258.74 296.03 256.98 300.32 255.14 306.09
  C 253.95 309.80 252.56 312.17 248.28 310.81
  C 247.99 310.72 247.75 310.56 247.56 310.34
  L 244.40 306.69
  C 244.17 306.42 244.00 306.12 243.89 305.79
  C 242.28 300.82 241.44 297.60 241.37 296.13
  C 241.23 292.90 240.95 289.69 240.54 286.50
  C 240.04 282.67 240.16 276.72 240.91 268.65
  C 240.92 268.58 241.03 266.14 241.25 261.34
  C 241.35 259.19 241.62 256.67 242.07 253.76
  C 243.20 246.43 242.91 233.16 245.01 222.31
  C 245.64 219.05 246.10 215.81 246.39 212.60
  C 247.50 200.07 249.54 191.65 251.80 181.10
  C 252.13 179.55 252.07 178.33 251.60 177.44
  C 250.24 174.85 244.78 174.54 242.92 176.42
  C 241.03 178.33 239.85 180.90 239.46 183.80
  C 237.45 198.86 235.44 213.93 233.43 229.00
  C 232.95 232.61 231.22 235.20 228.24 236.75
  C 227.61 237.08 227.01 237.03 226.46 236.58
  C 224.20 234.79 223.07 232.59 223.08 230.00
  C 223.09 224.46 223.14 218.92 223.23 213.37
  C 223.30 208.46 224.22 203.84 225.04 199.03
  C 225.19 198.15 224.82 197.27 224.10 196.75
  C 220.21 193.98 215.12 195.81 213.95 200.49
  C 212.25 207.29 211.07 217.84 212.04 226.91
  C 212.29 229.30 212.25 231.01 211.90 232.04
  C 210.81 235.24 206.99 237.33 203.72 235.62
  C 203.43 235.47 203.28 235.23 203.26 234.91
  C 202.63 224.72 205.93 214.84 203.47 204.66
  C 203.27 203.83 202.80 203.09 202.14 202.54
  C 199.54 200.42 196.68 197.90 193.22 197.66
  C 187.20 197.23 184.14 200.38 180.61 205.35
  C 180.33 205.74 179.79 206.09 178.99 206.41
  C 178.66 206.54 178.54 206.44 178.63 206.09
  C 179.61 202.14 180.70 199.65 176.37 197.28
  C 173.37 195.63 169.36 198.09 168.08 200.59
  C 167.45 201.82 167.11 204.02 167.08 207.19
  C 166.99 215.02 166.57 222.83 165.80 230.62
  C 165.48 233.94 162.64 235.40 160.00 236.82
  C 159.72 236.97 159.47 236.94 159.24 236.72
  C 157.69 235.27 156.81 234.05 156.62 233.05
  C 154.49 221.86 154.97 210.76 158.05 199.75
  C 158.24 199.07 158.09 198.34 157.64 197.79
  C 156.23 196.03 154.45 195.24 152.31 195.42
  C 145.07 196.02 146.31 205.32 145.56 210.04
  C 144.57 216.27 144.73 222.21 144.76 228.39
  C 144.77 230.86 144.18 233.20 141.52 233.53
  C 138.02 233.96 135.12 232.91 132.54 230.21
  C 130.09 227.66 127.66 225.10 125.23 222.53
  C 123.87 221.09 122.54 220.95 120.74 221.39
  C 120.43 221.47 120.26 221.66 120.21 221.97
  C 119.18 228.21 122.64 232.34 125.01 237.41
  C 126.13 239.82 126.89 242.38 127.30 245.11
  C 127.99 249.78 128.57 254.46 129.04 259.16
  C 129.21 260.81 130.05 261.99 130.05 263.78
  C 130.05 271.26 130.04 278.74 130.01 286.23
  C 130.00 291.10 129.06 295.50 128.05 300.16
  C 127.18 304.20 125.61 309.51 121.46 311.53
  C 121.20 311.66 120.92 311.69 120.63 311.63
  C 116.21 310.70 114.51 306.06 113.25 302.01
  C 111.98 297.97 113.28 293.66 111.88 289.87
  C 111.57 289.06 111.43 288.28 111.45 287.53
  C 111.73 274.80 112.10 262.07 112.57 249.34
  C 112.71 245.55 114.02 242.28 114.18 238.37
  C 114.40 232.83 115.81 226.83 116.26 222.02
  C 117.08 213.10 117.71 204.33 119.61 195.53
  C 120.54 191.23 121.48 186.93 122.43 182.63
  C 122.71 181.37 122.21 179.19 120.92 176.10
  C 120.80 175.80 120.59 175.59 120.28 175.47
  C 119.42 175.12 118.49 175.04 117.48 175.22
  C 112.43 176.14 112.01 179.98 110.46 183.94
  C 110.05 184.99 109.82 186.24 109.76 187.70
  C 109.67 190.04 108.93 192.51 108.68 194.44
  C 107.73 201.61 106.76 208.79 105.75 215.96
  C 104.85 222.34 94.43 226.36 89.00 226.92
  C 85.97 227.23 81.38 227.08 75.21 226.46
  C 65.00 225.44 54.57 221.81 44.48 219.03
  C 30.65 215.21 14.26 212.13 0.00 214.84"
/>
<path stroke="#8cbde9" vector-effect="non-scaling-stroke" d="
  M 152.95 181.06
  C 150.89 181.61 148.85 184.69 149.19 186.78
  C 149.45 188.35 149.74 189.99 150.07 191.71
  C 150.16 192.15 150.42 192.40 150.86 192.45
  L 157.01 193.21
  C 157.35 193.25 157.64 193.15 157.87 192.90
  C 159.54 191.17 160.71 189.15 161.40 186.85
  C 161.47 186.60 161.44 186.33 161.32 186.11
  L 158.65 181.31
  C 158.48 181.00 158.23 180.83 157.89 180.78
  C 156.20 180.53 154.55 180.63 152.95 181.06"
/>
<path stroke="#8cbde9" vector-effect="non-scaling-stroke" d="
  M 216.96 191.29
  C 217.11 191.67 217.40 191.99 217.78 192.16
  C 222.84 194.48 226.28 193.36 228.09 188.79
  C 228.40 188.00 228.49 187.13 228.35 186.17
  C 227.66 181.55 225.77 179.86 220.92 180.87
  C 215.34 182.04 215.38 187.03 216.96 191.29"
/>
<path stroke="#8cbde9" vector-effect="non-scaling-stroke" d="
  M 500.00 223.79
  C 493.65 223.76 489.40 224.01 487.25 224.52
  C 475.17 227.42 463.08 230.31 450.99 233.20
  C 445.64 234.47 440.16 234.05 434.84 234.69
  C 429.11 235.37 425.16 235.18 419.79 233.36
  C 415.60 231.94 411.82 229.18 407.98 226.71
  C 407.67 226.52 407.49 226.60 407.43 226.95
  C 406.68 231.34 404.68 234.92 401.42 237.71
  C 398.80 239.94 395.50 240.36 392.16 240.50
  C 389.90 240.59 387.87 239.50 385.67 238.85
  C 385.29 238.74 385.00 238.85 384.81 239.20
  L 383.68 241.16
  C 383.51 241.45 383.24 241.65 382.92 241.73
  L 374.50 243.85
  C 374.13 243.94 373.79 243.88 373.46 243.69
  L 365.62 239.02
  C 365.35 238.86 365.11 238.90 364.90 239.14
  C 358.75 246.24 348.07 245.02 342.75 237.61
  C 342.54 237.32 342.28 237.27 341.98 237.47
  C 336.95 240.83 333.08 238.27 328.15 236.46
  C 327.83 236.34 327.55 236.41 327.32 236.66
  C 323.36 240.87 318.55 243.21 312.89 243.68
  C 311.10 243.83 309.24 243.47 307.31 242.62
  C 304.82 241.53 302.36 240.31 299.93 238.98
  C 299.63 238.81 299.36 238.85 299.11 239.10
  C 296.28 242.04 292.87 243.62 288.86 243.83
  C 285.26 244.01 280.88 240.70 277.66 239.08
  C 277.34 238.91 277.03 238.92 276.72 239.11
  C 272.33 241.76 267.77 242.01 263.04 239.84
  C 262.72 239.70 262.38 239.98 262.47 240.32
  C 263.48 244.10 264.28 247.88 264.87 251.65
  C 265.25 254.03 266.60 257.64 266.26 261.01
  C 266.10 262.71 266.83 264.36 266.87 266.11
  C 267.05 275.62 267.59 285.41 265.81 294.72
  C 264.19 303.17 262.95 310.42 256.69 316.34
  C 254.33 318.58 247.15 319.07 244.29 317.78
  C 237.01 314.54 235.32 305.62 233.49 298.66
  C 232.59 295.24 232.01 291.43 231.76 287.22
  C 231.31 279.75 231.02 272.27 230.89 264.78
  C 230.78 258.33 232.19 250.77 231.80 243.55
  C 231.78 243.21 231.60 243.06 231.26 243.09
  C 229.20 243.27 226.22 244.23 224.30 243.37
  C 221.44 242.10 218.67 240.65 216.00 239.03
  C 215.71 238.85 215.45 238.88 215.20 239.12
  C 209.82 244.40 203.70 245.11 196.85 241.25
  C 189.04 236.85 191.68 225.30 193.34 218.15
  C 194.34 213.89 194.58 210.36 193.96 206.34
  C 193.89 205.86 193.41 205.55 192.94 205.69
  L 187.75 207.20
  C 187.40 207.30 187.14 207.50 186.95 207.81
  C 179.95 219.44 175.67 229.67 175.16 243.00
  C 175.08 245.03 174.85 246.37 174.48 247.01
  C 172.91 249.66 168.61 249.28 166.39 247.73
  C 166.05 247.49 165.90 247.16 165.95 246.75
  L 166.29 243.73
  C 166.38 242.93 165.65 242.28 164.86 242.46
  C 161.74 243.20 159.05 244.31 155.99 242.97
  C 153.38 241.82 150.80 240.38 148.27 238.64
  C 147.65 238.21 146.79 238.45 146.48 239.14
  C 144.99 242.41 137.74 241.37 135.36 240.10
  C 134.58 239.68 133.67 240.39 133.88 241.25
  C 135.68 248.68 137.01 255.44 137.10 263.34
  C 137.18 271.65 137.22 279.97 137.21 288.28
  C 137.21 289.78 136.45 291.03 136.48 292.63
  C 136.55 296.51 135.73 299.79 134.63 303.47
  C 133.21 308.25 130.03 312.03 127.24 316.23
  C 125.47 318.91 118.38 318.82 115.72 317.92
  C 106.83 314.91 104.56 300.96 103.23 293.13
  C 102.58 289.25 102.24 284.98 102.21 280.31
  C 102.14 269.36 102.13 258.40 102.17 247.45
  C 102.17 245.81 102.52 244.28 102.83 242.69
  C 103.62 238.73 103.26 234.26 103.50 230.24
  C 103.52 229.92 103.17 229.71 102.90 229.87
  C 98.95 232.19 95.57 233.76 90.87 234.27
  C 83.13 235.12 76.42 235.03 70.74 234.02
  C 66.34 233.23 55.84 230.79 39.25 226.70
  C 31.20 224.71 23.61 223.88 15.38 223.37
  C 12.73 223.21 10.16 223.33 7.65 223.72
  C 5.06 224.12 2.51 224.58 0.00 225.09"
/>
<path stroke="#8cbde9" vector-effect="non-scaling-stroke" d="
  M 311.82 206.38
  C 304.18 213.69 304.62 226.34 309.10 235.26
  C 309.26 235.57 309.51 235.78 309.84 235.87
  C 311.77 236.42 313.73 236.46 315.71 236.01
  C 316.09 235.92 316.41 235.68 316.59 235.34
  L 320.03 229.00
  C 320.19 228.70 320.23 228.36 320.15 228.03
  C 319.31 224.64 318.13 221.61 318.30 218.12
  C 318.46 214.92 319.69 209.15 318.61 206.30
  C 318.49 205.99 318.25 205.74 317.95 205.59
  C 315.79 204.53 313.66 204.61 311.82 206.38"
/>
</g>
<path fill="#ffffff" d="
  M 0.00 0.00
  L 500.00 0.00
  L 500.00 214.14
  C 497.55 214.29 495.10 214.47 492.65 214.67
  C 490.28 214.86 487.87 215.26 485.40 215.85
  C 470.92 219.35 456.44 223.13 441.88 226.26
  C 437.41 227.22 432.85 226.69 428.17 226.73
  C 426.18 226.75 424.53 226.17 422.59 225.83
  C 416.70 224.80 411.54 220.01 408.36 215.15
  C 408.18 214.88 407.93 214.74 407.60 214.74
  C 403.94 214.73 402.33 214.38 401.83 218.61
  C 401.26 223.40 399.54 227.72 396.67 231.57
  C 394.13 234.97 388.30 232.74 389.16 228.50
  C 389.94 224.69 390.47 220.84 390.76 216.97
  C 391.07 212.84 390.17 207.81 390.51 203.09
  C 390.59 201.99 389.98 200.83 389.91 199.79
  C 389.86 198.97 389.09 198.40 388.30 198.60
  C 383.72 199.77 383.04 202.06 381.63 206.26
  C 381.09 207.86 380.80 209.63 380.76 211.56
  C 380.65 216.62 380.16 221.25 381.07 226.41
  C 381.59 229.43 381.48 237.15 376.87 237.04
  C 374.99 236.99 374.11 235.35 373.43 233.83
  C 373.36 233.67 373.34 233.50 373.36 233.33
  L 373.85 229.16
  C 373.89 228.85 373.81 228.58 373.62 228.34
  C 371.03 225.08 372.54 219.31 373.30 215.85
  C 373.98 212.80 373.17 210.93 371.67 208.48
  C 371.50 208.19 371.24 208.00 370.90 207.93
  C 359.55 205.51 361.71 217.03 361.58 223.57
  C 361.51 226.95 360.25 229.78 359.41 233.04
  C 358.84 235.22 357.79 236.09 355.61 236.14
  C 352.03 236.23 350.97 232.18 350.86 229.26
  C 350.46 219.19 351.42 209.98 353.74 201.63
  C 354.91 197.43 350.02 197.53 347.48 197.67
  C 342.90 197.91 341.46 203.60 341.24 207.26
  C 340.99 211.41 340.53 215.55 339.84 219.67
  C 339.24 223.36 340.15 226.40 340.29 230.12
  C 340.30 230.51 340.13 230.76 339.77 230.89
  C 337.14 231.85 334.54 231.83 331.97 230.82
  C 331.20 230.52 330.75 229.70 330.92 228.89
  C 331.45 226.27 331.94 223.47 332.40 220.49
  C 332.67 218.74 331.47 217.28 331.51 215.38
  C 331.58 212.60 331.94 210.49 330.49 207.92
  C 329.32 205.83 328.53 203.67 326.61 202.19
  C 323.35 199.67 320.37 197.77 316.02 197.68
  C 311.82 197.60 308.23 198.19 305.50 200.26
  C 301.55 203.25 295.75 209.76 295.72 215.30
  C 295.70 219.72 295.71 224.16 295.74 228.61
  C 295.76 232.43 293.75 235.23 290.49 236.64
  C 289.01 237.29 287.28 236.57 286.70 235.05
  C 285.93 233.02 284.98 231.18 284.97 228.89
  C 284.97 216.59 285.98 205.91 286.79 194.41
  C 286.88 193.14 287.16 191.05 287.64 188.14
  C 288.31 184.05 287.87 180.34 288.93 176.28
  C 290.31 171.01 290.19 165.39 291.21 160.58
  C 292.02 156.75 296.96 143.50 290.75 142.91
  C 287.56 142.60 285.15 143.58 283.51 145.83
  C 281.38 148.76 282.52 152.99 281.65 155.88
  C 280.06 161.15 279.16 164.82 278.94 166.89
  C 278.21 173.78 277.46 180.67 276.69 187.56
  C 276.49 189.36 275.50 191.72 275.53 193.25
  C 275.80 204.39 273.02 215.76 274.27 226.01
  C 274.69 229.46 273.53 231.81 270.80 233.06
  C 268.59 234.08 266.62 232.97 264.55 232.11
  C 260.38 230.39 256.88 223.90 254.08 221.92
  C 250.74 219.56 247.76 223.10 249.37 226.41
  C 252.58 233.07 256.04 239.77 257.37 246.88
  C 258.36 252.15 258.85 257.48 258.86 262.87
  C 258.87 265.74 259.81 269.12 259.69 272.39
  C 259.54 276.86 259.50 281.34 259.58 285.81
  C 259.60 287.12 258.98 288.49 258.95 289.50
  C 258.74 296.03 256.98 300.32 255.14 306.09
  C 253.95 309.80 252.56 312.17 248.28 310.81
  C 247.99 310.72 247.75 310.56 247.56 310.34
  L 244.40 306.69
  C 244.17 306.42 244.00 306.12 243.89 305.79
  C 242.28 300.82 241.44 297.60 241.37 296.13
  C 241.23 292.90 240.95 289.69 240.54 286.50
  C 240.04 282.67 240.16 276.72 240.91 268.65
  C 240.92 268.58 241.03 266.14 241.25 261.34
  C 241.35 259.19 241.62 256.67 242.07 253.76
  C 243.20 246.43 242.91 233.16 245.01 222.31
  C 245.64 219.05 246.10 215.81 246.39 212.60
  C 247.50 200.07 249.54 191.65 251.80 181.10
  C 252.13 179.55 252.07 178.33 251.60 177.44
  C 250.24 174.85 244.78 174.54 242.92 176.42
  C 241.03 178.33 239.85 180.90 239.46 183.80
  C 237.45 198.86 235.44 213.93 233.43 229.00
  C 232.95 232.61 231.22 235.20 228.24 236.75
  C 227.61 237.08 227.01 237.03 226.46 236.58
  C 224.20 234.79 223.07 232.59 223.08 230.00
  C 223.09 224.46 223.14 218.92 223.23 213.37
  C 223.30 208.46 224.22 203.84 225.04 199.03
  C 225.19 198.15 224.82 197.27 224.10 196.75
  C 220.21 193.98 215.12 195.81 213.95 200.49
  C 212.25 207.29 211.07 217.84 212.04 226.91
  C 212.29 229.30 212.25 231.01 211.90 232.04
  C 210.81 235.24 206.99 237.33 203.72 235.62
  C 203.43 235.47 203.28 235.23 203.26 234.91
  C 202.63 224.72 205.93 214.84 203.47 204.66
  C 203.27 203.83 202.80 203.09 202.14 202.54
  C 199.54 200.42 196.68 197.90 193.22 197.66
  C 187.20 197.23 184.14 200.38 180.61 205.35
  C 180.33 205.74 179.79 206.09 178.99 206.41
  C 178.66 206.54 178.54 206.44 178.63 206.09
  C 179.61 202.14 180.70 199.65 176.37 197.28
  C 173.37 195.63 169.36 198.09 168.08 200.59
  C 167.45 201.82 167.11 204.02 167.08 207.19
  C 166.99 215.02 166.57 222.83 165.80 230.62
  C 165.48 233.94 162.64 235.40 160.00 236.82
  C 159.72 236.97 159.47 236.94 159.24 236.72
  C 157.69 235.27 156.81 234.05 156.62 233.05
  C 154.49 221.86 154.97 210.76 158.05 199.75
  C 158.24 199.07 158.09 198.34 157.64 197.79
  C 156.23 196.03 154.45 195.24 152.31 195.42
  C 145.07 196.02 146.31 205.32 145.56 210.04
  C 144.57 216.27 144.73 222.21 144.76 228.39
  C 144.77 230.86 144.18 233.20 141.52 233.53
  C 138.02 233.96 135.12 232.91 132.54 230.21
  C 130.09 227.66 127.66 225.10 125.23 222.53
  C 123.87 221.09 122.54 220.95 120.74 221.39
  C 120.43 221.47 120.26 221.66 120.21 221.97
  C 119.18 228.21 122.64 232.34 125.01 237.41
  C 126.13 239.82 126.89 242.38 127.30 245.11
  C 127.99 249.78 128.57 254.46 129.04 259.16
  C 129.21 260.81 130.05 261.99 130.05 263.78
  C 130.05 271.26 130.04 278.74 130.01 286.23
  C 130.00 291.10 129.06 295.50 128.05 300.16
  C 127.18 304.20 125.61 309.51 121.46 311.53
  C 121.20 311.66 120.92 311.69 120.63 311.63
  C 116.21 310.70 114.51 306.06 113.25 302.01
  C 111.98 297.97 113.28 293.66 111.88 289.87
  C 111.57 289.06 111.43 288.28 111.45 287.53
  C 111.73 274.80 112.10 262.07 112.57 249.34
  C 112.71 245.55 114.02 242.28 114.18 238.37
  C 114.40 232.83 115.81 226.83 116.26 222.02
  C 117.08 213.10 117.71 204.33 119.61 195.53
  C 120.54 191.23 121.48 186.93 122.43 182.63
  C 122.71 181.37 122.21 179.19 120.92 176.10
  C 120.80 175.80 120.59 175.59 120.28 175.47
  C 119.42 175.12 118.49 175.04 117.48 175.22
  C 112.43 176.14 112.01 179.98 110.46 183.94
  C 110.05 184.99 109.82 186.24 109.76 187.70
  C 109.67 190.04 108.93 192.51 108.68 194.44
  C 107.73 201.61 106.76 208.79 105.75 215.96
  C 104.85 222.34 94.43 226.36 89.00 226.92
  C 85.97 227.23 81.38 227.08 75.21 226.46
  C 65.00 225.44 54.57 221.81 44.48 219.03
  C 30.65 215.21 14.26 212.13 0.00 214.84
  L 0.00 0.00
  Z
  M 152.95 181.06
  C 150.89 181.61 148.85 184.69 149.19 186.78
  C 149.45 188.35 149.74 189.99 150.07 191.71
  C 150.16 192.15 150.42 192.40 150.86 192.45
  L 157.01 193.21
  C 157.35 193.25 157.64 193.15 157.87 192.90
  C 159.54 191.17 160.71 189.15 161.40 186.85
  C 161.47 186.60 161.44 186.33 161.32 186.11
  L 158.65 181.31
  C 158.48 181.00 158.23 180.83 157.89 180.78
  C 156.20 180.53 154.55 180.63 152.95 181.06
  Z
  M 216.96 191.29
  C 217.11 191.67 217.40 191.99 217.78 192.16
  C 222.84 194.48 226.28 193.36 228.09 188.79
  C 228.40 188.00 228.49 187.13 228.35 186.17
  C 227.66 181.55 225.77 179.86 220.92 180.87
  C 215.34 182.04 215.38 187.03 216.96 191.29
  Z"
/>
<path fill="#187ad3" d="
  M 500.00 214.14
  L 500.00 223.79
  C 493.65 223.76 489.40 224.01 487.25 224.52
  C 475.17 227.42 463.08 230.31 450.99 233.20
  C 445.64 234.47 440.16 234.05 434.84 234.69
  C 429.11 235.37 425.16 235.18 419.79 233.36
  C 415.60 231.94 411.82 229.18 407.98 226.71
  C 407.67 226.52 407.49 226.60 407.43 226.95
  C 406.68 231.34 404.68 234.92 401.42 237.71
  C 398.80 239.94 395.50 240.36 392.16 240.50
  C 389.90 240.59 387.87 239.50 385.67 238.85
  C 385.29 238.74 385.00 238.85 384.81 239.20
  L 383.68 241.16
  C 383.51 241.45 383.24 241.65 382.92 241.73
  L 374.50 243.85
  C 374.13 243.94 373.79 243.88 373.46 243.69
  L 365.62 239.02
  C 365.35 238.86 365.11 238.90 364.90 239.14
  C 358.75 246.24 348.07 245.02 342.75 237.61
  C 342.54 237.32 342.28 237.27 341.98 237.47
  C 336.95 240.83 333.08 238.27 328.15 236.46
  C 327.83 236.34 327.55 236.41 327.32 236.66
  C 323.36 240.87 318.55 243.21 312.89 243.68
  C 311.10 243.83 309.24 243.47 307.31 242.62
  C 304.82 241.53 302.36 240.31 299.93 238.98
  C 299.63 238.81 299.36 238.85 299.11 239.10
  C 296.28 242.04 292.87 243.62 288.86 243.83
  C 285.26 244.01 280.88 240.70 277.66 239.08
  C 277.34 238.91 277.03 238.92 276.72 239.11
  C 272.33 241.76 267.77 242.01 263.04 239.84
  C 262.72 239.70 262.38 239.98 262.47 240.32
  C 263.48 244.10 264.28 247.88 264.87 251.65
  C 265.25 254.03 266.60 257.64 266.26 261.01
  C 266.10 262.71 266.83 264.36 266.87 266.11
  C 267.05 275.62 267.59 285.41 265.81 294.72
  C 264.19 303.17 262.95 310.42 256.69 316.34
  C 254.33 318.58 247.15 319.07 244.29 317.78
  C 237.01 314.54 235.32 305.62 233.49 298.66
  C 232.59 295.24 232.01 291.43 231.76 287.22
  C 231.31 279.75 231.02 272.27 230.89 264.78
  C 230.78 258.33 232.19 250.77 231.80 243.55
  C 231.78 243.21 231.60 243.06 231.26 243.09
  C 229.20 243.27 226.22 244.23 224.30 243.37
  C 221.44 242.10 218.67 240.65 216.00 239.03
  C 215.71 238.85 215.45 238.88 215.20 239.12
  C 209.82 244.40 203.70 245.11 196.85 241.25
  C 189.04 236.85 191.68 225.30 193.34 218.15
  C 194.34 213.89 194.58 210.36 193.96 206.34
  C 193.89 205.86 193.41 205.55 192.94 205.69
  L 187.75 207.20
  C 187.40 207.30 187.14 207.50 186.95 207.81
  C 179.95 219.44 175.67 229.67 175.16 243.00
  C 175.08 245.03 174.85 246.37 174.48 247.01
  C 172.91 249.66 168.61 249.28 166.39 247.73
  C 166.05 247.49 165.90 247.16 165.95 246.75
  L 166.29 243.73
  C 166.38 242.93 165.65 242.28 164.86 242.46
  C 161.74 243.20 159.05 244.31 155.99 242.97
  C 153.38 241.82 150.80 240.38 148.27 238.64
  C 147.65 238.21 146.79 238.45 146.48 239.14
  C 144.99 242.41 137.74 241.37 135.36 240.10
  C 134.58 239.68 133.67 240.39 133.88 241.25
  C 135.68 248.68 137.01 255.44 137.10 263.34
  C 137.18 271.65 137.22 279.97 137.21 288.28
  C 137.21 289.78 136.45 291.03 136.48 292.63
  C 136.55 296.51 135.73 299.79 134.63 303.47
  C 133.21 308.25 130.03 312.03 127.24 316.23
  C 125.47 318.91 118.38 318.82 115.72 317.92
  C 106.83 314.91 104.56 300.96 103.23 293.13
  C 102.58 289.25 102.24 284.98 102.21 280.31
  C 102.14 269.36 102.13 258.40 102.17 247.45
  C 102.17 245.81 102.52 244.28 102.83 242.69
  C 103.62 238.73 103.26 234.26 103.50 230.24
  C 103.52 229.92 103.17 229.71 102.90 229.87
  C 98.95 232.19 95.57 233.76 90.87 234.27
  C 83.13 235.12 76.42 235.03 70.74 234.02
  C 66.34 233.23 55.84 230.79 39.25 226.70
  C 31.20 224.71 23.61 223.88 15.38 223.37
  C 12.73 223.21 10.16 223.33 7.65 223.72
  C 5.06 224.12 2.51 224.58 0.00 225.09
  L 0.00 214.84
  C 14.26 212.13 30.65 215.21 44.48 219.03
  C 54.57 221.81 65.00 225.44 75.21 226.46
  C 81.38 227.08 85.97 227.23 89.00 226.92
  C 94.43 226.36 104.85 222.34 105.75 215.96
  C 106.76 208.79 107.73 201.61 108.68 194.44
  C 108.93 192.51 109.67 190.04 109.76 187.70
  C 109.82 186.24 110.05 184.99 110.46 183.94
  C 112.01 179.98 112.43 176.14 117.48 175.22
  C 118.49 175.04 119.42 175.12 120.28 175.47
  C 120.59 175.59 120.80 175.80 120.92 176.10
  C 122.21 179.19 122.71 181.37 122.43 182.63
  C 121.48 186.93 120.54 191.23 119.61 195.53
  C 117.71 204.33 117.08 213.10 116.26 222.02
  C 115.81 226.83 114.40 232.83 114.18 238.37
  C 114.02 242.28 112.71 245.55 112.57 249.34
  C 112.10 262.07 111.73 274.80 111.45 287.53
  C 111.43 288.28 111.57 289.06 111.88 289.87
  C 113.28 293.66 111.98 297.97 113.25 302.01
  C 114.51 306.06 116.21 310.70 120.63 311.63
  C 120.92 311.69 121.20 311.66 121.46 311.53
  C 125.61 309.51 127.18 304.20 128.05 300.16
  C 129.06 295.50 130.00 291.10 130.01 286.23
  C 130.04 278.74 130.05 271.26 130.05 263.78
  C 130.05 261.99 129.21 260.81 129.04 259.16
  C 128.57 254.46 127.99 249.78 127.30 245.11
  C 126.89 242.38 126.13 239.82 125.01 237.41
  C 122.64 232.34 119.18 228.21 120.21 221.97
  C 120.26 221.66 120.43 221.47 120.74 221.39
  C 122.54 220.95 123.87 221.09 125.23 222.53
  C 127.66 225.10 130.09 227.66 132.54 230.21
  C 135.12 232.91 138.02 233.96 141.52 233.53
  C 144.18 233.20 144.77 230.86 144.76 228.39
  C 144.73 222.21 144.57 216.27 145.56 210.04
  C 146.31 205.32 145.07 196.02 152.31 195.42
  C 154.45 195.24 156.23 196.03 157.64 197.79
  C 158.09 198.34 158.24 199.07 158.05 199.75
  C 154.97 210.76 154.49 221.86 156.62 233.05
  C 156.81 234.05 157.69 235.27 159.24 236.72
  C 159.47 236.94 159.72 236.97 160.00 236.82
  C 162.64 235.40 165.48 233.94 165.80 230.62
  C 166.57 222.83 166.99 215.02 167.08 207.19
  C 167.11 204.02 167.45 201.82 168.08 200.59
  C 169.36 198.09 173.37 195.63 176.37 197.28
  C 180.70 199.65 179.61 202.14 178.63 206.09
  C 178.54 206.44 178.66 206.54 178.99 206.41
  C 179.79 206.09 180.33 205.74 180.61 205.35
  C 184.14 200.38 187.20 197.23 193.22 197.66
  C 196.68 197.90 199.54 200.42 202.14 202.54
  C 202.80 203.09 203.27 203.83 203.47 204.66
  C 205.93 214.84 202.63 224.72 203.26 234.91
  C 203.28 235.23 203.43 235.47 203.72 235.62
  C 206.99 237.33 210.81 235.24 211.90 232.04
  C 212.25 231.01 212.29 229.30 212.04 226.91
  C 211.07 217.84 212.25 207.29 213.95 200.49
  C 215.12 195.81 220.21 193.98 224.10 196.75
  C 224.82 197.27 225.19 198.15 225.04 199.03
  C 224.22 203.84 223.30 208.46 223.23 213.37
  C 223.14 218.92 223.09 224.46 223.08 230.00
  C 223.07 232.59 224.20 234.79 226.46 236.58
  C 227.01 237.03 227.61 237.08 228.24 236.75
  C 231.22 235.20 232.95 232.61 233.43 229.00
  C 235.44 213.93 237.45 198.86 239.46 183.80
  C 239.85 180.90 241.03 178.33 242.92 176.42
  C 244.78 174.54 250.24 174.85 251.60 177.44
  C 252.07 178.33 252.13 179.55 251.80 181.10
  C 249.54 191.65 247.50 200.07 246.39 212.60
  C 246.10 215.81 245.64 219.05 245.01 222.31
  C 242.91 233.16 243.20 246.43 242.07 253.76
  C 241.62 256.67 241.35 259.19 241.25 261.34
  C 241.03 266.14 240.92 268.58 240.91 268.65
  C 240.16 276.72 240.04 282.67 240.54 286.50
  C 240.95 289.69 241.23 292.90 241.37 296.13
  C 241.44 297.60 242.28 300.82 243.89 305.79
  C 244.00 306.12 244.17 306.42 244.40 306.69
  L 247.56 310.34
  C 247.75 310.56 247.99 310.72 248.28 310.81
  C 252.56 312.17 253.95 309.80 255.14 306.09
  C 256.98 300.32 258.74 296.03 258.95 289.50
  C 258.98 288.49 259.60 287.12 259.58 285.81
  C 259.50 281.34 259.54 276.86 259.69 272.39
  C 259.81 269.12 258.87 265.74 258.86 262.87
  C 258.85 257.48 258.36 252.15 257.37 246.88
  C 256.04 239.77 252.58 233.07 249.37 226.41
  C 247.76 223.10 250.74 219.56 254.08 221.92
  C 256.88 223.90 260.38 230.39 264.55 232.11
  C 266.62 232.97 268.59 234.08 270.80 233.06
  C 273.53 231.81 274.69 229.46 274.27 226.01
  C 273.02 215.76 275.80 204.39 275.53 193.25
  C 275.50 191.72 276.49 189.36 276.69 187.56
  C 277.46 180.67 278.21 173.78 278.94 166.89
  C 279.16 164.82 280.06 161.15 281.65 155.88
  C 282.52 152.99 281.38 148.76 283.51 145.83
  C 285.15 143.58 287.56 142.60 290.75 142.91
  C 296.96 143.50 292.02 156.75 291.21 160.58
  C 290.19 165.39 290.31 171.01 288.93 176.28
  C 287.87 180.34 288.31 184.05 287.64 188.14
  C 287.16 191.05 286.88 193.14 286.79 194.41
  C 285.98 205.91 284.97 216.59 284.97 228.89
  C 284.98 231.18 285.93 233.02 286.70 235.05
  C 287.28 236.57 289.01 237.29 290.49 236.64
  C 293.75 235.23 295.76 232.43 295.74 228.61
  C 295.71 224.16 295.70 219.72 295.72 215.30
  C 295.75 209.76 301.55 203.25 305.50 200.26
  C 308.23 198.19 311.82 197.60 316.02 197.68
  C 320.37 197.77 323.35 199.67 326.61 202.19
  C 328.53 203.67 329.32 205.83 330.49 207.92
  C 331.94 210.49 331.58 212.60 331.51 215.38
  C 331.47 217.28 332.67 218.74 332.40 220.49
  C 331.94 223.47 331.45 226.27 330.92 228.89
  C 330.75 229.70 331.20 230.52 331.97 230.82
  C 334.54 231.83 337.14 231.85 339.77 230.89
  C 340.13 230.76 340.30 230.51 340.29 230.12
  C 340.15 226.40 339.24 223.36 339.84 219.67
  C 340.53 215.55 340.99 211.41 341.24 207.26
  C 341.46 203.60 342.90 197.91 347.48 197.67
  C 350.02 197.53 354.91 197.43 353.74 201.63
  C 351.42 209.98 350.46 219.19 350.86 229.26
  C 350.97 232.18 352.03 236.23 355.61 236.14
  C 357.79 236.09 358.84 235.22 359.41 233.04
  C 360.25 229.78 361.51 226.95 361.58 223.57
  C 361.71 217.03 359.55 205.51 370.90 207.93
  C 371.24 208.00 371.50 208.19 371.67 208.48
  C 373.17 210.93 373.98 212.80 373.30 215.85
  C 372.54 219.31 371.03 225.08 373.62 228.34
  C 373.81 228.58 373.89 228.85 373.85 229.16
  L 373.36 233.33
  C 373.34 233.50 373.36 233.67 373.43 233.83
  C 374.11 235.35 374.99 236.99 376.87 237.04
  C 381.48 237.15 381.59 229.43 381.07 226.41
  C 380.16 221.25 380.65 216.62 380.76 211.56
  C 380.80 209.63 381.09 207.86 381.63 206.26
  C 383.04 202.06 383.72 199.77 388.30 198.60
  C 389.09 198.40 389.86 198.97 389.91 199.79
  C 389.98 200.83 390.59 201.99 390.51 203.09
  C 390.17 207.81 391.07 212.84 390.76 216.97
  C 390.47 220.84 389.94 224.69 389.16 228.50
  C 388.30 232.74 394.13 234.97 396.67 231.57
  C 399.54 227.72 401.26 223.40 401.83 218.61
  C 402.33 214.38 403.94 214.73 407.60 214.74
  C 407.93 214.74 408.18 214.88 408.36 215.15
  C 411.54 220.01 416.70 224.80 422.59 225.83
  C 424.53 226.17 426.18 226.75 428.17 226.73
  C 432.85 226.69 437.41 227.22 441.88 226.26
  C 456.44 223.13 470.92 219.35 485.40 215.85
  C 487.87 215.26 490.28 214.86 492.65 214.67
  C 495.10 214.47 497.55 214.29 500.00 214.14
  Z
  M 311.82 206.38
  C 304.18 213.69 304.62 226.34 309.10 235.26
  C 309.26 235.57 309.51 235.78 309.84 235.87
  C 311.77 236.42 313.73 236.46 315.71 236.01
  C 316.09 235.92 316.41 235.68 316.59 235.34
  L 320.03 229.00
  C 320.19 228.70 320.23 228.36 320.15 228.03
  C 319.31 224.64 318.13 221.61 318.30 218.12
  C 318.46 214.92 319.69 209.15 318.61 206.30
  C 318.49 205.99 318.25 205.74 317.95 205.59
  C 315.79 204.53 313.66 204.61 311.82 206.38
  Z"
/>
<path fill="#187ad3" d="
  M 149.19 186.78
  C 148.85 184.69 150.89 181.61 152.95 181.06
  C 154.55 180.63 156.20 180.53 157.89 180.78
  C 158.23 180.83 158.48 181.00 158.65 181.31
  L 161.32 186.11
  C 161.44 186.33 161.47 186.60 161.40 186.85
  C 160.71 189.15 159.54 191.17 157.87 192.90
  C 157.64 193.15 157.35 193.25 157.01 193.21
  L 150.86 192.45
  C 150.42 192.40 150.16 192.15 150.07 191.71
  C 149.74 189.99 149.45 188.35 149.19 186.78
  Z"
/>
<path fill="#187ad3" d="
  M 216.96 191.29
  C 215.38 187.03 215.34 182.04 220.92 180.87
  C 225.77 179.86 227.66 181.55 228.35 186.17
  C 228.49 187.13 228.40 188.00 228.09 188.79
  C 226.28 193.36 222.84 194.48 217.78 192.16
  C 217.40 191.99 217.11 191.67 216.96 191.29
  Z"
/>
<path fill="#ffffff" d="
  M 309.10 235.26
  C 304.62 226.34 304.18 213.69 311.82 206.38
  C 313.66 204.61 315.79 204.53 317.95 205.59
  C 318.25 205.74 318.49 205.99 318.61 206.30
  C 319.69 209.15 318.46 214.92 318.30 218.12
  C 318.13 221.61 319.31 224.64 320.15 228.03
  C 320.23 228.36 320.19 228.70 320.03 229.00
  L 316.59 235.34
  C 316.41 235.68 316.09 235.92 315.71 236.01
  C 313.73 236.46 311.77 236.42 309.84 235.87
  C 309.51 235.78 309.26 235.57 309.10 235.26
  Z"
/>
<path fill="#ffffff" d="
  M 500.00 223.79
  L 500.00 500.00
  L 0.00 500.00
  L 0.00 225.09
  C 2.51 224.58 5.06 224.12 7.65 223.72
  C 10.16 223.33 12.73 223.21 15.38 223.37
  C 23.61 223.88 31.20 224.71 39.25 226.70
  C 55.84 230.79 66.34 233.23 70.74 234.02
  C 76.42 235.03 83.13 235.12 90.87 234.27
  C 95.57 233.76 98.95 232.19 102.90 229.87
  C 103.17 229.71 103.52 229.92 103.50 230.24
  C 103.26 234.26 103.62 238.73 102.83 242.69
  C 102.52 244.28 102.17 245.81 102.17 247.45
  C 102.13 258.40 102.14 269.36 102.21 280.31
  C 102.24 284.98 102.58 289.25 103.23 293.13
  C 104.56 300.96 106.83 314.91 115.72 317.92
  C 118.38 318.82 125.47 318.91 127.24 316.23
  C 130.03 312.03 133.21 308.25 134.63 303.47
  C 135.73 299.79 136.55 296.51 136.48 292.63
  C 136.45 291.03 137.21 289.78 137.21 288.28
  C 137.22 279.97 137.18 271.65 137.10 263.34
  C 137.01 255.44 135.68 248.68 133.88 241.25
  C 133.67 240.39 134.58 239.68 135.36 240.10
  C 137.74 241.37 144.99 242.41 146.48 239.14
  C 146.79 238.45 147.65 238.21 148.27 238.64
  C 150.80 240.38 153.38 241.82 155.99 242.97
  C 159.05 244.31 161.74 243.20 164.86 242.46
  C 165.65 242.28 166.38 242.93 166.29 243.73
  L 165.95 246.75
  C 165.90 247.16 166.05 247.49 166.39 247.73
  C 168.61 249.28 172.91 249.66 174.48 247.01
  C 174.85 246.37 175.08 245.03 175.16 243.00
  C 175.67 229.67 179.95 219.44 186.95 207.81
  C 187.14 207.50 187.40 207.30 187.75 207.20
  L 192.94 205.69
  C 193.41 205.55 193.89 205.86 193.96 206.34
  C 194.58 210.36 194.34 213.89 193.34 218.15
  C 191.68 225.30 189.04 236.85 196.85 241.25
  C 203.70 245.11 209.82 244.40 215.20 239.12
  C 215.45 238.88 215.71 238.85 216.00 239.03
  C 218.67 240.65 221.44 242.10 224.30 243.37
  C 226.22 244.23 229.20 243.27 231.26 243.09
  C 231.60 243.06 231.78 243.21 231.80 243.55
  C 232.19 250.77 230.78 258.33 230.89 264.78
  C 231.02 272.27 231.31 279.75 231.76 287.22
  C 232.01 291.43 232.59 295.24 233.49 298.66
  C 235.32 305.62 237.01 314.54 244.29 317.78
  C 247.15 319.07 254.33 318.58 256.69 316.34
  C 262.95 310.42 264.19 303.17 265.81 294.72
  C 267.59 285.41 267.05 275.62 266.87 266.11
  C 266.83 264.36 266.10 262.71 266.26 261.01
  C 266.60 257.64 265.25 254.03 264.87 251.65
  C 264.28 247.88 263.48 244.10 262.47 240.32
  C 262.38 239.98 262.72 239.70 263.04 239.84
  C 267.77 242.01 272.33 241.76 276.72 239.11
  C 277.03 238.92 277.34 238.91 277.66 239.08
  C 280.88 240.70 285.26 244.01 288.86 243.83
  C 292.87 243.62 296.28 242.04 299.11 239.10
  C 299.36 238.85 299.63 238.81 299.93 238.98
  C 302.36 240.31 304.82 241.53 307.31 242.62
  C 309.24 243.47 311.10 243.83 312.89 243.68
  C 318.55 243.21 323.36 240.87 327.32 236.66
  C 327.55 236.41 327.83 236.34 328.15 236.46
  C 333.08 238.27 336.95 240.83 341.98 237.47
  C 342.28 237.27 342.54 237.32 342.75 237.61
  C 348.07 245.02 358.75 246.24 364.90 239.14
  C 365.11 238.90 365.35 238.86 365.62 239.02
  L 373.46 243.69
  C 373.79 243.88 374.13 243.94 374.50 243.85
  L 382.92 241.73
  C 383.24 241.65 383.51 241.45 383.68 241.16
  L 384.81 239.20
  C 385.00 238.85 385.29 238.74 385.67 238.85
  C 387.87 239.50 389.90 240.59 392.16 240.50
  C 395.50 240.36 398.80 239.94 401.42 237.71
  C 404.68 234.92 406.68 231.34 407.43 226.95
  C 407.49 226.60 407.67 226.52 407.98 226.71
  C 411.82 229.18 415.60 231.94 419.79 233.36
  C 425.16 235.18 429.11 235.37 434.84 234.69
  C 440.16 234.05 445.64 234.47 450.99 233.20
  C 463.08 230.31 475.17 227.42 487.25 224.52
  C 489.40 224.01 493.65 223.76 500.00 223.79
  Z"
/>
</svg>
