<?xml version="1.0" encoding="UTF-8" standalone="no"?>
<!DOCTYPE svg PUBLIC "-//W3C//DTD SVG 1.1//EN" "http://www.w3.org/Graphics/SVG/1.1/DTD/svg11.dtd">
<svg xmlns="http://www.w3.org/2000/svg" version="1.1" viewBox="0.00 0.00 500.00 500.00">
<path fill="#187ad3" d="
  M 500.00 214.16
  L 500.00 223.80
  C 497.53 223.90 495.06 223.98 492.59 224.05
  C 490.07 224.11 487.63 224.42 485.26 224.99
  C 472.69 228.02 460.10 231.00 447.51 233.95
  C 446.18 234.26 443.95 234.37 440.82 234.28
  C 439.12 234.23 437.09 234.39 434.73 234.78
  C 430.24 235.51 425.89 235.20 421.70 233.83
  C 419.84 233.23 418.05 232.96 416.56 232.04
  C 413.73 230.30 410.83 228.49 407.86 226.62
  C 407.59 226.45 407.43 226.52 407.38 226.83
  C 406.67 231.53 404.45 235.32 400.72 238.19
  C 398.44 239.94 395.86 240.10 393.07 240.38
  C 390.43 240.65 388.35 239.74 385.94 238.83
  C 385.59 238.70 385.27 238.76 384.98 239.01
  C 384.51 239.43 384.20 239.94 384.07 240.55
  C 383.94 241.10 383.51 241.54 382.96 241.68
  L 374.37 243.81
  C 374.10 243.88 373.85 243.84 373.62 243.70
  L 365.73 238.95
  C 365.48 238.80 365.24 238.82 365.01 239.02
  C 363.64 240.23 362.62 241.47 360.97 242.19
  C 353.80 245.34 347.75 243.85 342.80 237.74
  C 342.58 237.47 342.31 237.40 341.99 237.55
  C 338.68 239.07 337.04 239.87 333.46 238.32
  C 331.69 237.55 329.85 236.94 327.95 236.47
  C 327.63 236.39 327.36 236.47 327.13 236.71
  C 323.20 240.85 318.43 243.18 312.84 243.69
  C 311.23 243.84 309.57 243.52 307.85 242.73
  C 305.18 241.52 302.54 240.24 299.93 238.87
  C 299.63 238.71 299.36 238.75 299.13 239.00
  C 296.24 242.02 292.76 243.61 288.67 243.76
  C 287.30 243.81 285.83 243.39 284.26 242.50
  C 282.05 241.25 279.80 240.06 277.51 238.93
  C 277.22 238.78 276.94 238.81 276.67 239.00
  C 272.51 242.08 267.46 241.64 262.91 239.75
  C 262.73 239.68 262.54 239.83 262.57 240.02
  C 263.29 244.32 264.50 248.42 264.95 252.67
  C 265.29 255.93 266.66 257.83 266.17 261.49
  C 266.01 262.70 266.75 263.72 266.78 265.02
  C 266.91 271.06 266.96 277.10 266.95 283.14
  C 266.94 286.91 266.58 290.61 265.85 294.26
  C 263.99 303.53 262.94 310.96 256.05 316.60
  C 253.88 318.38 251.52 318.19 248.88 318.34
  C 246.76 318.45 244.95 318.11 243.46 317.31
  C 240.08 315.49 237.79 312.62 236.58 308.70
  C 235.46 305.05 234.38 301.40 233.35 297.73
  C 232.54 294.88 232.07 291.90 231.94 288.80
  C 231.52 278.88 230.98 269.08 230.82 259.13
  C 230.81 258.78 230.90 258.46 231.08 258.16
  C 231.71 257.13 232.01 256.03 231.96 254.84
  C 231.79 251.02 232.05 247.18 231.91 243.32
  C 231.90 243.01 231.74 242.88 231.43 242.93
  L 225.74 243.84
  C 225.43 243.89 225.14 243.85 224.87 243.70
  L 215.88 238.91
  C 215.61 238.77 215.38 238.81 215.17 239.03
  C 212.34 242.09 208.85 243.66 204.70 243.74
  C 202.09 243.79 197.18 242.06 195.38 240.31
  C 194.45 239.40 193.67 238.36 193.05 237.20
  C 192.24 235.69 192.55 233.85 191.67 232.12
  C 191.52 231.83 191.44 231.52 191.44 231.19
  C 191.41 229.11 190.64 226.45 192.05 224.72
  C 192.26 224.47 192.37 224.19 192.38 223.86
  C 192.43 222.65 192.41 221.63 192.82 220.45
  C 194.43 215.84 194.80 211.16 193.92 206.42
  C 193.83 205.93 193.34 205.63 192.86 205.75
  L 187.34 207.19
  C 187.15 207.24 186.99 207.37 186.89 207.54
  C 182.11 216.22 177.65 223.82 176.19 234.32
  C 176.10 234.97 175.89 235.74 175.58 236.63
  C 174.48 239.68 176.31 245.03 174.19 247.43
  C 172.20 249.68 168.25 249.23 166.29 247.23
  C 166.02 246.95 165.91 246.62 165.96 246.24
  L 166.29 243.70
  C 166.39 242.93 165.71 242.29 164.95 242.45
  L 158.14 243.85
  C 157.97 243.88 157.80 243.86 157.65 243.78
  L 148.35 238.85
  C 147.54 238.42 146.87 238.58 146.34 239.31
  C 144.82 241.38 138.13 242.04 136.20 240.67
  C 134.28 239.32 133.57 239.79 134.07 242.08
  C 135.51 248.67 136.96 254.88 137.02 261.73
  C 137.09 270.46 137.13 279.18 137.14 287.91
  C 137.14 289.57 136.38 290.96 136.43 292.72
  C 136.48 294.41 136.43 295.59 136.28 296.24
  C 135.73 298.68 135.15 301.11 134.52 303.53
  C 133.22 308.55 129.48 312.68 126.55 316.84
  C 126.04 317.57 125.10 317.98 123.75 318.07
  C 121.10 318.26 118.28 318.83 115.84 317.89
  C 109.76 315.56 106.91 309.22 105.45 303.35
  C 103.31 294.79 102.24 289.26 102.23 286.75
  C 102.17 273.28 102.12 259.82 102.07 246.35
  C 102.07 244.68 103.12 243.26 103.15 241.37
  C 103.20 237.70 103.29 233.97 103.43 230.19
  C 103.44 229.80 103.27 229.69 102.92 229.87
  C 99.19 231.82 95.75 233.89 91.38 234.10
  C 87.38 234.30 83.39 234.61 79.41 235.03
  C 79.11 235.06 78.80 235.03 78.51 234.92
  C 76.67 234.22 74.68 234.71 73.11 234.45
  C 62.92 232.72 52.86 229.86 42.76 227.60
  C 39.76 226.92 36.53 226.43 33.60 225.44
  C 29.61 224.10 25.25 223.65 20.50 224.10
  C 20.17 224.13 19.86 224.06 19.58 223.89
  C 18.10 223.02 14.34 223.22 10.99 223.19
  C 10.74 223.19 10.33 223.38 9.75 223.75
  C 9.46 223.94 9.13 224.02 8.78 224.00
  C 5.75 223.81 2.83 224.21 0.00 225.18
  L 0.00 214.76
  C 5.37 213.88 10.80 213.59 16.27 213.90
  C 16.47 213.91 16.67 213.98 16.84 214.10
  L 17.28 214.41
  C 17.36 214.47 17.45 214.50 17.55 214.49
  C 21.45 214.12 24.77 214.38 27.50 215.25
  C 29.18 215.79 30.53 216.01 31.55 215.92
  C 31.86 215.89 32.17 215.96 32.44 216.11
  C 33.69 216.80 35.04 217.08 36.48 216.95
  C 36.78 216.92 37.08 216.99 37.34 217.15
  C 38.33 217.73 39.39 218.01 40.54 218.00
  C 42.05 217.98 42.45 218.64 43.71 218.85
  C 47.31 219.45 51.17 220.97 54.12 221.73
  C 58.38 222.82 62.61 224.03 66.80 225.35
  C 69.26 226.12 71.34 226.04 73.83 226.04
  C 74.35 226.04 74.61 226.19 75.00 226.47
  C 75.22 226.62 75.47 226.70 75.74 226.71
  C 80.22 226.75 84.70 226.84 89.18 226.98
  C 91.44 227.05 93.14 226.15 95.20 225.44
  C 98.83 224.21 101.87 222.18 104.30 219.37
  C 105.18 218.35 105.72 217.05 105.92 215.48
  C 107.48 202.96 109.04 194.83 109.76 187.26
  C 109.89 185.90 110.14 184.76 110.50 183.85
  C 112.27 179.43 113.01 175.75 118.44 175.07
  C 119.48 174.94 120.49 175.48 120.95 176.42
  C 122.65 179.87 122.35 183.08 121.43 187.09
  C 120.67 190.37 119.94 193.65 119.23 196.94
  C 117.24 206.13 116.74 215.87 115.97 225.24
  C 115.82 227.02 114.70 228.90 114.80 231.05
  C 114.91 233.43 114.07 235.44 114.10 237.82
  C 114.16 242.37 112.49 246.12 112.38 250.65
  C 112.05 263.41 111.68 276.17 111.28 288.93
  C 111.27 289.25 111.37 289.57 111.58 289.81
  C 112.75 291.21 112.46 295.14 112.50 296.95
  C 112.60 302.18 114.94 310.38 120.81 311.82
  C 121.15 311.90 121.47 311.85 121.78 311.67
  C 127.52 308.23 128.45 298.90 129.54 293.32
  C 129.89 291.51 130.07 289.94 130.07 288.63
  C 130.07 280.16 130.06 271.70 130.05 263.23
  C 130.04 261.52 129.03 260.42 128.96 258.85
  C 128.76 254.56 128.27 252.22 127.89 249.01
  C 127.51 245.87 127.21 241.64 125.81 238.81
  C 123.23 233.60 119.17 228.15 120.14 222.04
  C 120.18 221.75 120.34 221.56 120.62 221.48
  C 122.33 220.98 123.82 221.37 125.09 222.64
  C 127.62 225.19 130.13 227.75 132.60 230.33
  C 133.94 231.73 135.30 232.65 136.69 233.09
  C 141.23 234.55 144.95 233.74 144.87 228.24
  C 144.80 223.85 144.78 219.45 144.79 215.04
  C 144.80 212.69 145.70 210.42 145.99 208.00
  C 146.18 206.46 145.36 204.28 146.48 202.33
  C 146.64 202.05 146.73 201.75 146.74 201.43
  C 147.01 195.30 153.59 193.68 157.60 197.77
  C 158.01 198.19 158.18 198.78 158.07 199.35
  C 157.42 202.74 156.11 205.51 156.02 208.97
  C 155.89 213.94 154.38 218.38 155.51 223.57
  C 155.58 223.89 155.57 224.21 155.46 224.53
  C 155.23 225.22 155.31 225.87 155.72 226.49
  C 155.91 226.79 156.02 227.13 156.04 227.48
  C 156.17 229.81 155.77 231.95 157.05 234.00
  C 157.68 235.01 158.35 235.92 159.07 236.75
  C 159.35 237.08 159.85 237.12 160.20 236.84
  C 161.91 235.43 164.20 234.72 165.36 232.81
  C 166.99 230.15 165.05 226.62 166.48 223.85
  C 166.57 223.68 166.62 223.49 166.63 223.30
  C 166.92 216.66 167.07 210.02 167.09 203.37
  C 167.09 202.22 168.09 200.52 170.10 198.25
  C 170.29 198.03 170.53 197.88 170.81 197.81
  L 174.69 196.82
  C 174.94 196.76 175.20 196.80 175.42 196.93
  C 176.85 197.81 179.93 199.40 179.51 201.65
  C 179.22 203.22 179.04 204.23 178.97 204.67
  C 178.57 207.12 179.12 207.35 180.61 205.37
  C 184.15 200.69 186.72 197.35 193.22 197.81
  C 194.72 197.92 196.30 198.52 197.96 199.62
  C 199.37 200.55 200.77 201.54 202.17 202.59
  C 202.67 202.97 203.03 203.52 203.17 204.13
  C 203.99 207.68 204.63 210.89 204.38 214.64
  C 203.92 221.33 203.14 228.13 203.17 234.84
  C 203.17 235.17 203.31 235.41 203.60 235.57
  C 208.35 238.18 212.29 233.59 212.71 229.01
  C 212.74 228.72 212.67 228.44 212.51 228.20
  C 211.09 226.01 211.76 216.26 211.76 213.24
  C 211.76 212.55 211.89 212.34 212.26 211.85
  C 212.46 211.59 212.57 211.29 212.60 210.96
  C 212.72 209.37 212.84 207.78 212.95 206.19
  C 213.06 204.70 213.79 203.14 213.91 201.46
  C 214.23 197.23 218.35 194.54 222.42 195.83
  C 222.77 195.94 223.04 196.14 223.25 196.45
  L 223.50 196.82
  C 223.61 196.98 223.78 197.07 223.97 197.08
  C 224.88 197.11 225.23 197.67 225.04 198.76
  C 224.50 201.84 224.19 204.13 224.12 205.63
  C 224.07 206.80 223.13 207.75 223.13 209.19
  C 223.15 216.35 223.18 223.51 223.22 230.66
  C 223.24 233.53 224.73 235.48 226.92 236.97
  C 227.48 237.35 228.23 237.29 228.71 236.81
  L 232.66 232.86
  C 232.91 232.61 233.06 232.30 233.11 231.95
  C 234.82 219.60 236.44 207.25 237.95 194.88
  C 238.02 194.31 238.31 193.89 238.36 193.34
  C 238.68 189.85 239.12 186.38 239.68 182.92
  C 240.15 180.00 241.65 178.22 243.52 176.13
  C 243.74 175.88 244.01 175.72 244.34 175.65
  C 247.53 174.98 252.66 175.24 251.92 180.05
  C 251.65 181.82 251.32 183.56 250.91 185.29
  C 248.95 193.63 247.37 200.07 247.04 209.92
  C 247.03 210.26 246.92 210.57 246.73 210.85
  C 245.46 212.66 246.54 214.05 246.38 215.68
  C 246.10 218.43 244.91 220.48 244.75 223.17
  C 244.54 226.63 243.39 229.87 243.29 233.15
  C 243.09 239.68 242.73 246.19 242.20 252.70
  C 242.06 254.50 240.94 256.87 240.99 258.25
  C 241.11 261.82 241.09 264.72 240.94 266.94
  C 240.49 273.31 240.40 279.61 240.35 286.00
  C 240.33 287.95 241.03 289.47 241.10 291.01
  C 241.21 293.29 241.07 295.41 241.61 297.61
  C 242.30 300.46 243.08 303.28 243.93 306.08
  C 243.95 306.14 243.93 306.19 243.87 306.22
  C 243.78 306.27 243.74 306.33 243.73 306.41
  C 243.72 306.52 243.76 306.60 243.85 306.66
  C 245.33 307.52 246.45 308.72 247.22 310.26
  C 247.36 310.54 247.61 310.75 247.91 310.85
  C 251.09 311.84 253.45 311.10 254.63 307.78
  C 255.94 304.12 257.14 300.44 258.22 296.73
  C 259.00 294.04 258.60 291.15 259.23 288.21
  C 260.26 283.48 259.66 277.59 259.79 272.69
  C 259.89 268.83 258.82 264.90 258.78 261.00
  C 258.71 253.35 258.02 245.01 254.77 237.96
  C 252.89 233.87 250.98 229.80 249.05 225.74
  C 248.85 225.33 248.79 224.87 248.87 224.43
  C 249.22 222.34 250.21 221.29 251.84 221.29
  C 252.83 221.29 253.86 221.82 254.94 222.88
  C 257.13 225.01 259.18 227.25 261.11 229.60
  C 262.07 230.77 263.18 231.60 264.43 232.10
  C 266.37 232.86 268.15 233.93 270.24 233.29
  C 273.34 232.33 274.69 230.07 274.30 226.52
  C 273.65 220.61 273.78 214.96 274.68 209.59
  C 275.27 206.02 275.58 203.27 275.59 201.34
  C 275.61 198.78 274.93 192.24 276.27 190.29
  C 276.45 190.02 276.56 189.72 276.60 189.39
  C 277.13 184.51 277.68 179.64 278.26 174.78
  C 278.67 171.29 278.45 167.72 279.55 164.39
  C 279.96 163.14 279.94 161.78 280.38 160.56
  C 281.69 156.92 282.31 153.15 282.23 149.25
  C 282.13 144.02 291.84 139.80 293.71 145.49
  C 294.81 148.86 291.82 157.53 290.90 161.29
  C 289.74 166.01 290.55 170.76 289.00 175.77
  C 288.35 177.86 288.03 179.64 288.02 181.11
  C 288.01 183.40 288.69 187.18 287.23 189.06
  C 287.03 189.31 286.93 189.61 286.93 189.94
  C 286.96 193.05 286.76 196.15 286.34 199.22
  C 285.95 202.04 286.07 204.63 286.00 207.39
  C 285.98 208.13 285.75 209.67 285.32 212.01
  C 284.92 214.13 285.21 216.74 285.16 218.34
  C 285.05 221.51 284.97 224.69 284.90 227.88
  C 284.85 230.54 285.53 232.66 286.47 234.99
  C 287.07 236.47 288.74 237.22 290.25 236.68
  C 293.42 235.56 295.83 232.72 295.80 229.07
  C 295.76 224.54 295.75 220.03 295.76 215.53
  C 295.77 213.72 296.15 212.12 296.88 210.73
  C 299.42 205.95 305.29 198.37 311.26 197.96
  C 314.62 197.73 318.22 197.17 321.27 199.04
  C 324.55 201.05 328.39 202.04 329.30 206.46
  C 329.36 206.76 329.52 207.03 329.75 207.22
  C 333.86 210.66 329.02 214.96 332.26 218.75
  C 332.50 219.03 332.60 219.40 332.53 219.76
  L 330.88 228.22
  C 330.55 229.88 331.80 231.44 333.49 231.50
  L 337.60 231.62
  C 339.67 231.69 340.57 230.69 340.29 228.64
  L 339.25 220.91
  C 339.21 220.61 339.30 220.36 339.52 220.15
  C 340.21 219.50 340.57 218.79 340.58 218.01
  C 340.67 214.32 340.84 210.65 341.10 206.98
  C 341.23 205.16 342.04 203.57 342.32 201.69
  C 342.38 201.30 342.55 200.97 342.84 200.70
  L 345.48 198.18
  C 345.78 197.89 346.14 197.74 346.56 197.75
  L 351.57 197.82
  C 353.19 197.84 354.34 199.38 353.91 200.94
  C 353.70 201.71 353.50 202.68 353.33 203.85
  C 353.06 205.67 352.14 207.38 352.02 209.39
  C 351.91 211.10 351.77 212.32 351.58 213.07
  C 350.11 218.77 350.63 225.92 350.99 231.78
  C 351.01 232.15 351.12 232.48 351.33 232.79
  L 353.20 235.59
  C 353.40 235.89 353.68 236.04 354.04 236.05
  C 360.48 236.19 359.23 233.18 360.83 228.58
  C 362.47 223.84 361.74 217.81 361.71 212.83
  C 361.71 212.45 361.82 212.11 362.04 211.81
  L 364.55 208.41
  C 364.75 208.14 365.02 207.99 365.36 207.98
  L 370.22 207.82
  C 370.87 207.80 371.46 208.17 371.73 208.76
  C 372.64 210.74 374.50 213.66 373.53 215.83
  C 372.04 219.14 371.87 223.45 372.23 226.76
  C 372.29 227.28 372.62 227.53 373.23 227.52
  C 373.56 227.51 373.74 227.67 373.76 228.00
  C 373.86 229.73 373.67 231.42 373.18 233.08
  C 373.09 233.41 373.14 233.72 373.34 234.01
  L 375.06 236.49
  C 375.27 236.79 375.56 236.97 375.92 237.03
  C 381.03 237.87 380.65 233.05 381.69 229.92
  C 381.80 229.60 381.81 229.28 381.72 228.96
  C 381.21 227.13 380.77 224.94 380.41 222.38
  C 380.13 220.38 380.80 218.83 380.78 217.20
  C 380.74 213.85 380.19 210.18 381.59 207.01
  C 383.41 202.87 383.07 199.69 388.66 198.57
  C 389.39 198.42 390.05 199.04 389.95 199.78
  C 389.77 201.11 390.56 202.26 390.48 203.65
  C 390.36 205.94 390.28 208.24 390.24 210.53
  C 390.23 210.85 390.31 211.16 390.46 211.45
  C 391.86 214.20 390.59 216.44 390.45 218.63
  C 390.37 219.91 390.30 221.19 390.25 222.47
  C 390.07 226.63 387.20 228.91 391.08 232.91
  C 391.29 233.12 391.53 233.22 391.82 233.19
  L 395.36 232.84
  C 395.69 232.81 395.96 232.66 396.16 232.39
  C 397.81 230.12 399.22 227.73 400.41 225.21
  C 401.08 223.77 400.81 222.18 401.65 220.64
  C 401.81 220.35 401.87 220.03 401.83 219.70
  C 401.61 218.00 402.07 216.54 403.20 215.32
  C 403.47 215.02 403.81 214.86 404.22 214.85
  L 407.42 214.73
  C 407.78 214.72 408.06 214.86 408.26 215.17
  C 411.19 219.64 415.04 223.00 419.81 225.25
  C 421.40 226.00 423.09 225.63 424.80 226.28
  C 427.77 227.42 434.06 226.81 437.46 226.94
  C 440.25 227.05 442.70 226.06 445.47 225.59
  C 446.48 225.42 447.79 225.05 449.41 224.48
  C 451.22 223.83 453.28 223.71 454.85 223.32
  C 465.14 220.77 475.44 218.26 485.76 215.81
  C 488.12 215.25 490.48 214.88 492.83 214.69
  C 495.22 214.50 497.61 214.33 500.00 214.16
  Z
  M 307.36 213.07
  C 305.06 218.49 305.43 226.30 307.55 231.66
  C 307.58 231.73 307.76 232.49 308.09 233.96
  C 308.75 236.88 313.59 236.55 315.69 236.06
  C 316.05 235.98 316.35 235.75 316.53 235.43
  L 320.11 229.05
  C 320.26 228.77 320.30 228.47 320.23 228.15
  C 319.40 224.63 317.77 220.99 318.31 217.30
  C 318.81 213.92 319.05 210.56 319.03 207.22
  C 319.02 206.08 318.14 205.13 317.00 205.06
  L 314.00 204.86
  C 313.62 204.84 313.24 204.97 312.96 205.23
  C 310.51 207.42 308.64 210.04 307.36 213.07
  Z"
/>
<path fill="#187ad3" d="
  M 159.57 183.85
  L 161.23 185.95
  C 161.57 186.38 161.61 186.98 161.32 187.44
  L 158.17 192.53
  C 157.91 192.96 157.42 193.19 156.92 193.13
  L 151.23 192.47
  C 150.66 192.41 150.19 191.97 150.10 191.39
  L 149.21 186.02
  C 149.15 185.68 149.23 185.33 149.43 185.05
  L 151.95 181.54
  C 152.18 181.22 152.55 181.02 152.95 181.00
  L 157.66 180.79
  C 158.29 180.76 158.85 181.19 158.99 181.81
  L 159.33 183.33
  C 159.37 183.52 159.45 183.70 159.57 183.85
  Z"
/>
<path fill="#187ad3" d="
  M 216.31 188.98
  C 215.43 185.88 216.24 183.44 218.75 181.67
  C 220.18 180.66 221.60 180.94 223.24 180.93
  C 226.44 180.92 228.05 182.53 228.06 185.76
  C 228.06 186.11 228.24 186.64 228.60 187.35
  C 228.77 187.68 228.75 188.00 228.52 188.29
  L 225.12 192.79
  C 224.91 193.05 224.64 193.19 224.31 193.20
  C 222.00 193.25 220.15 193.08 218.76 192.68
  C 217.11 192.21 216.81 190.75 216.31 188.98
  Z"
/>
</svg>
